<?xml version="1.0" encoding="utf-8"?>
<!-- Generator: Adobe Illustrator 23.0.2, SVG Export Plug-In . SVG Version: 6.00 Build 0)  -->
<svg version="1.1" id="Camada_1" xmlns="http://www.w3.org/2000/svg" xmlns:xlink="http://www.w3.org/1999/xlink" x="0px" y="0px"
	 viewBox="0 0 1000 1000" style="enable-background:new 0 0 1000 1000;" xml:space="preserve">
<style type="text/css">
	.st0{fill:#7F25D9;}
</style>
<g>
	<path class="st0" d="M500,990c-119.1,0-234-43.3-323.4-121.9c-14-12.3-15.3-33.6-3.1-47.5c12.3-14,33.6-15.3,47.5-3.1
		c77.1,67.8,176.1,105.1,278.9,105.1c233,0,422.6-189.6,422.6-422.6S733,77.4,500,77.4S77.4,267,77.4,500
		c0,69.6,17.3,138.7,50,199.6c8.8,16.4,2.6,36.8-13.7,45.6c-16.4,8.8-36.8,2.6-45.6-13.7C30.1,660.8,10,580.7,10,500
		c0-66.1,13-130.3,38.5-190.7c24.7-58.4,60-110.8,105-155.7c45-45,97.4-80.3,155.7-105C369.7,23,433.9,10,500,10
		s130.3,13,190.7,38.5c58.4,24.7,110.8,60,155.7,105c45,45,80.3,97.4,105,155.7C977,369.7,990,433.9,990,500s-13,130.3-38.5,190.7
		c-24.7,58.4-60,110.8-105,155.7c-45,45-97.4,80.3-155.7,105C630.3,977,566.1,990,500,990z"/>
	<path class="st0" d="M497.3,657.7l-47.6,47.6L235.3,491c-13.1-13.1-13.1-34.5,0-47.6l0,0c13.1-13.1,34.5-13.1,47.6,0L497.3,657.7z"
		/>
	<path class="st0" d="M793.7,361.3L497.3,657.7l-47.6-47.6l293.7-293.7c13.2-13.2,34.5-13.2,47.6,0l2.8,2.8
		C805.4,330.8,805.4,349.6,793.7,361.3z"/>
</g>
</svg>
