<svg id="Слой_2" data-name="Слой 2" xmlns="http://www.w3.org/2000/svg" viewBox="0 0 2866.32 1127.56"><defs><style>.cls-1{fill:#ebf3fa;}.cls-2{fill:#ed985f;}.cls-3{fill:#233862;}.cls-4{fill:#ffb27d;}.cls-5{fill:#b5453c;}.cls-6{fill:#dd6d22;}.cls-7{fill:#9e332e;}.cls-8{fill:#ed7d2b;}.cls-9{fill:#f99746;}.cls-10{fill:#fff;}.cls-11{fill:#adcbf9;}.cls-12{fill:#fcecdb;}.cls-13{fill:#f4d2b8;}.cls-14{fill:#86d1cd;}.cls-15{fill:#d86713;}.cls-16{fill:#ee9849;}.cls-17{fill:#f1a34f;}.cls-18{fill:#e78b37;}.cls-19{fill:#699dee;}.cls-20{fill:#e9f3fe;}.cls-21,.cls-22{fill:#afcdfb;}.cls-22{opacity:0.6;isolation:isolate;}.cls-23{fill:#9e3732;}.cls-24{fill:#e49963;}.cls-25{fill:#163560;}.cls-26{fill:#599dad;}.cls-27{fill:#6bb7bf;}.cls-28{fill:#5aa9ad;}.cls-29{fill:#d68d5d;}.cls-30{fill:#4a75cb;}.cls-31{fill:#2b478b;}.cls-32{fill:#f4a269;}.cls-33{fill:#c65447;}.cls-34{fill:#1c468a;}.cls-35{fill:#2e3552;}.cls-36{fill:none;}.cls-37{fill:#2c3a64;}.cls-38{fill:#bc3f3f;}.cls-39{fill:#a02e2e;}.cls-40{fill:#e8945b;}.cls-41{fill:#d35c2b;}</style></defs><title>5514</title><path class="cls-1" d="M2477.73,1124.21s297.89-311.54,50.34-648.87C2308.45,176.07,2052.41,196.52,1864.55,318c-80,51.73-369.59,286.74-565.93-17.78C1030.91-115.06,161.7-143.56,330.92,495.34c81.89,309.19-327.81,320.43-159.09,629.5Z" transform="translate(-0.75 0.03)"/><g id="girl_2" data-name="girl 2"><path class="cls-2" d="M495.88,705s-83.59,36.42-98.76,35.76-108.68-28.48-108.68-28.48l2.38,16.08s72.16,41.5,97.39,43.86c24.83,2.32,109.76-22.29,118-27.49S519.71,710.21,495.88,705Z" transform="translate(-0.75 0.03)"/><path class="cls-3" d="M508.44,571s30.84-5.85,46.2,5.36c27.82,20.32,29.31,90.36,39.74,100.8s35.56,6,37.8,60-10,58.51,4.58,82.61S630.59,868,630.59,868s8.5-13.3,4.86-22.91c0,0-3.54,21.2-17,26.16s-15.45,8.61-17.6,15.9c0,0-114.87-58.86-115-100.61s-22.61-83.1-11.57-101.19c0,0-4.91,7.74-5.52,16.35,0,0-6.62-12.69,4.86-24.5s-13.47-36.26-9.77-64.58C466.38,593.11,480.07,571.82,508.44,571Z" transform="translate(-0.75 0.03)"/><path class="cls-4" d="M485.72,744.73a80.53,80.53,0,0,0,28.11,12c43.32,10,59.92-26.61,66.15-51.74a37.44,37.44,0,0,0-14.68-4.51c-3.13-.37-6.42-.61-9.15-.75-4.86-3.72-12.11-19-13.71-42.65l-2,.55L506.3,667s1.56,10.86,2.33,21.11c.59,8,.69,15.7-.83,17.58-2.67.58-4.27,1-4.27,1h0A219.15,219.15,0,0,0,485.72,744.73Z" transform="translate(-0.75 0.03)"/><path class="cls-2" d="M506.26,666.94s1.57,10.84,2.33,21.11c19.34-1.94,28.32-20.35,31.81-30.45Z" transform="translate(-0.75 0.03)"/><path class="cls-4" d="M500.48,677.13s45.91-2.54,43.9-31.1,2.54-48.13-26.85-47.72-34.32,11.71-36,21.41S488.49,677.05,500.48,677.13Z" transform="translate(-0.75 0.03)"/><path class="cls-3" d="M481.79,603.74c6.47-9.1,12-7.6,15.15-5.23,24.08-15.58,41.69,3.63,41.69,3.63a54.64,54.64,0,0,0,20.16,31s-8,5.76-27.62,2.19c-6-1.09-11.54-4.9-16.37-9.65a107,107,0,0,0,20,21.16c-23.78-9-35.32-40.33-36.48-43.65-2.62,2.71-7.75,8.57-9,14-1.77,7.44-9.38,19.07-13.78,18.87C475.52,636.06,472.07,617.34,481.79,603.74Z" transform="translate(-0.75 0.03)"/><path class="cls-5" d="M593.07,838.07c4.14-21.2,17.66-105.87,4.14-133.12-4.85-9.79-23.9-10.67-44.8-9.81-6.51,4.2-31.29,20.06-41.47,18.08l-.57-.13c-4.79-1.2-6.6-4.57-2.6-7.47A91.21,91.21,0,0,0,484.56,707c-7.26,1.37-26.85,11.5-26.85,11.5s9.87,17.82,24.41,24c-2.47,22.12,1.2,31.88,24.15,83,19.39,43.19-2.61,82.08-2.61,82.08s114.15,91.78,114.79,45C618.91,917.43,587.76,865.16,593.07,838.07Z" transform="translate(-0.75 0.03)"/><path class="cls-6" d="M498,1007.34a21.21,21.21,0,0,1-15.27-9.3L481,995.39c-13-19.67-18-79.92-47.27-144.09C426.56,835.67,401,832.86,394,815.2c0,0-17.15-57.25,32.83-58.94S560.71,915.57,562.07,932.45C563.32,948.81,595.07,1018.34,498,1007.34Z" transform="translate(-0.75 0.03)"/><path class="cls-7" d="M299.34,1006h71.14s2.66-11.34-2-19.06c-4.14-6.83-2.55-10.73.51-16.38a27.62,27.62,0,0,1-12,2.26c-3.54-.2-7.29-1.81-10.58-3.72-3.06,3.49-16.17,18.35-20.27,21.29C321.51,993.77,300.78,992.58,299.34,1006Z" transform="translate(-0.75 0.03)"/><path class="cls-7" d="M585.56,727.15s9.26,84.23-50.79,101.88-77.08-77.5-28.6-84.35S585.56,727.15,585.56,727.15Z" transform="translate(-0.75 0.03)"/><path class="cls-8" d="M392.41,772.83c-4.29,32.11-21,133.47-50.52,182.92-9.51,15.94,24,24.88,24.15,24.83,4.49-1.18,12-8.33,15.42-11.44,24-21.59,72.58-82.72,72.58-131.73,0-23.9.42-69.54-17-81.14C426.38,749.13,394.07,760.08,392.41,772.83Z" transform="translate(-0.75 0.03)"/><path class="cls-9" d="M540.4,1006s-2.63-3.67-7.23-10.63c-5.47-8.29-11.52-24.6-18.87-45.5-7.71-21.94-16.87-48.94-28.3-77-3.53-8.67-7.28-17.45-11.27-26.21-7.12-15.63-26.7-13.47-33.67-31.13,0,0-27.19-61.23,22.79-62.92s144.94,163.8,150.4,179.82C620.23,950,649.37,1022.85,540.4,1006Z" transform="translate(-0.75 0.03)"/><path class="cls-5" d="M351.56,1006H422.7s2.66-11.34-2-19.06c-4.14-6.83-2.55-10.73.51-16.38a27.62,27.62,0,0,1-12,2.26c-3.55-.2-7.29-1.81-10.58-3.72-3.06,3.49-16.17,18.35-20.27,21.29C373.72,993.77,353,992.58,351.56,1006Z" transform="translate(-0.75 0.03)"/><path class="cls-8" d="M514.3,949.91c-7.71-21.94-16.87-48.94-28.3-77,3-21.28,9.43-39.9,20.26-47.41C506.26,825.48,532.55,906.92,514.3,949.91Z" transform="translate(-0.75 0.03)"/><path class="cls-9" d="M433.93,770.55c-4.28,32.12-10.32,135.75-39.82,185.2-9.51,15.94,24,24.88,24.15,24.83,4.49-1.18,12-8.33,15.42-11.44,23.95-21.59,72.58-82.72,72.58-131.73,0-23.9-28.05-67.62-45.42-79.22C450.13,751,435.63,757.8,433.93,770.55Z" transform="translate(-0.75 0.03)"/><path class="cls-7" d="M280,670.85l72.85-7.74a4.7,4.7,0,0,1,4.89,3l26.06,68.49a4.71,4.71,0,0,1-2.72,6.07,4.64,4.64,0,0,1-1.48.3l-72.29,2.92a4.69,4.69,0,0,1-4.53-2.89l-26.66-63.66a4.7,4.7,0,0,1,2.52-6.15A4.53,4.53,0,0,1,280,670.85Z" transform="translate(-0.75 0.03)"/><path class="cls-5" d="M273.62,671.51l72.85-7.74a4.71,4.71,0,0,1,4.89,3l26.06,68.48a4.69,4.69,0,0,1-2.7,6.06,4.56,4.56,0,0,1-1.5.31l-72.29,2.92a4.69,4.69,0,0,1-4.52-2.88L269.78,678a4.7,4.7,0,0,1,2.53-6.15A4.94,4.94,0,0,1,273.62,671.51Z" transform="translate(-0.75 0.03)"/><path class="cls-7" d="M314,703.49c-.89-2.45.37-4.43,2.82-4.43a7,7,0,0,1,6,4.43c.89,2.44-.37,4.42-2.81,4.42A7,7,0,0,1,314,703.49Z" transform="translate(-0.75 0.03)"/><path class="cls-7" d="M275.8,678a1.46,1.46,0,0,1,.59-2,1.36,1.36,0,0,1,.79-.18,3.47,3.47,0,0,1,3,2.17,1.48,1.48,0,0,1-.57,2,1.53,1.53,0,0,1-.81.18A3.44,3.44,0,0,1,275.8,678Z" transform="translate(-0.75 0.03)"/><path class="cls-4" d="M580,705s-100.91,37.18-116.13,36.39c-9.81-.49-91.31-29.14-91.31-29.14s-6.05-9.3-12.62-11.24c0,0-11.59-5.32-14.9-6.31s-2.65,0-1.65,3.15c.51,1.63,2.36,3.22,4,4.51-5.56,1.53-11.06,3.6-13.63,4.09-4.3.83-16.55,4.81-12.91,10.77s20.53,7.28,27.82,6,16.55,2.91,16.55,2.91,79.33,51,101.14,50.73c43.05-.49,115.71-26.92,123.9-32.12S603.81,710.21,580,705Z" transform="translate(-0.75 0.03)"/><path class="cls-4" d="M281.12,706.27s7.31-11.56,9.7-12c7.29-1.44,7.29,8.16,5.74,14.35-1.65,6.64-7.27,12.9-8.82,12.36S279.41,712.34,281.12,706.27Z" transform="translate(-0.75 0.03)"/><path class="cls-4" d="M280.85,708.59s-2.34,13,10,19.72Z" transform="translate(-0.75 0.03)"/><path class="cls-10" d="M491.89,660.7s4.34-1.72,16.55-.73c0,0-.65,4.77-9.65,5.24C493.68,665.47,491.89,660.7,491.89,660.7Z" transform="translate(-0.75 0.03)"/><path class="cls-5" d="M528,723.34s9,28.58,40,35.09c0,0,51.21-15.78,25.71-50.67C593.72,707.71,568.51,689,528,723.34Z" transform="translate(-0.75 0.03)"/></g><path class="cls-11" d="M503.51,352.86c0-2.89.06-5.84.13-8.73A240.29,240.29,0,0,1,514.55,281c-5.39.2-10.59.52-15.6.84a245.8,245.8,0,0,0-9.5,53.4c-.38,5.39-.58,10.78-.64,16.24v1.41c0,5.46.19,10.91.51,16.31,4.94,2.31,10,4.49,15.34,6.67-.51-5.13-.9-10.33-1-15.53C503.57,357.8,503.51,355.34,503.51,352.86Zm471.13-98.4C920.17,125.9,771.92,65.69,643.24,119.87c-3.72,1.6-7.44,3.27-11,5-6,2.89-11.87,6-17.52,9.31a248.56,248.56,0,0,0-51.8,39.92c-3.27,3.21-6.42,6.55-9.5,10-3.85,4.23-7.51,8.66-11,13.15a251.74,251.74,0,0,0-15.66,22.41c-2.7,4.3-5.2,8.72-7.64,13.15-3.79,7-7.19,14.19-10.33,21.63-2.38,5.59-4.5,11.17-6.42,16.89-1.22,3.46-2.31,6.93-3.34,10.46a245.8,245.8,0,0,0-9.5,53.4c-.38,5.39-.58,10.78-.64,16.24v1.41c0,5.46.19,10.91.51,16.31.26,4.42.71,8.85,1.22,13.28a247.5,247.5,0,0,0,18.17,68.81C563.16,579.9,711.54,640.12,840.2,585.75A253,253,0,0,0,973.69,453.62c.32-.77.71-1.61,1-2.38,1.41-3.34,2.76-6.67,4-10a253.46,253.46,0,0,0-4-186.79ZM961.29,445.23c-.07.13-.07.19-.13.32-1.61,3.72-3.28,7.44-5.07,11.1C898.62,575.08,756,624.5,637.61,567A238.3,238.3,0,0,1,522.19,445.55a233.67,233.67,0,0,1-15.92-56.74c-.71-4.3-1.22-8.6-1.61-13-.51-5.13-.9-10.33-1-15.53-.07-2.51-.13-4.94-.13-7.45,0-2.89.06-5.84.13-8.73a240.29,240.29,0,0,1,10.91-63.16c1.09-3.46,2.24-6.86,3.53-10.27s2.63-7.06,4.11-10.52c2.11-4.88,4.3-9.69,6.67-14.38,2.25-4.49,4.62-8.86,7.13-13.16a239.93,239.93,0,0,1,24-33.83q5.58-6.54,11.62-12.7l1.67-1.67A238.09,238.09,0,0,1,634.66,140c4.69-2.38,9.44-4.56,14.31-6.61,1.29-.58,2.64-1.09,3.92-1.61,122.19-49,260.93,10.43,309.87,132.62a238.33,238.33,0,0,1-1.45,180.81Z" transform="translate(-0.75 0.03)"/><path class="cls-11" d="M1021.69,403.83l-19.62-.49c6.29,8.15,7.7,15.66,3.79,22s-13.29,11.81-27.28,15.86a161.08,161.08,0,0,1-17.33,4c-17.14,3.08-38.52,4.88-63.48,5.13-63.16.77-141.6-7.83-220.81-24.07-53.29-10.92-102.59-24.49-143.89-39.38-6.29-2.25-12.39-4.56-18.23-6.87-3.47-1.34-6.87-2.76-10.21-4.17-5.32-2.18-10.4-4.36-15.34-6.67-3.46-1.54-6.8-3.15-10.07-4.75-45.51-22.21-66.31-43.65-57-58.86,7.51-12.33,34.85-20.67,76.7-23.75,5-.32,10.21-.64,15.6-.84,1.09-3.46,2.24-6.86,3.53-10.27-5.46.13-10.72.39-15.79.65-52.76,3.14-81,12.43-91.28,29.24-11.93,19.58,4.37,45.85,56.55,71.4,7.19,3.53,14.89,7,23,10.46,5.07,2.12,10.34,4.24,15.73,6.36l7.51,2.89c6.16,2.31,12.45,4.62,18.93,6.86,40.57,14.06,87.81,26.77,138.52,37.23,70.93,14.55,141.41,23.11,201.68,24.55,8.86.26,17.46.26,25.8.19a458.94,458.94,0,0,0,57.39-3.85c6.22-.83,12.06-1.86,17.52-3C999.35,448.35,1016.29,440,1023,429,1027.72,421.34,1027.14,412.81,1021.69,403.83Z" transform="translate(-0.75 0.03)"/><path class="cls-11" d="M913.64,397.57c-.25.45-.51.91-.79,1.35-7.74,12.29-25,18.64-49.34,18.63a200.55,200.55,0,0,1-39.38-4.4c-47.8-9.7-104.31-34-159.11-68.59-53.86-33.94-99.57-73.6-129-111.92-.52-.67-1-1.33-1.52-2q-4.18-5.56-7.82-10.95c-21.47-31.88-27.93-58.91-17.64-75.23,7.75-12.29,25-18.63,49.34-18.63a200.65,200.65,0,0,1,39.39,4.4q8.28,1.68,16.89,3.94,9.78,2.57,20,5.86,7.05-3.56,14.36-6.64c1.29-.55,2.59-1.08,3.89-1.6q-10.5-3.81-20.69-6.91c-10.87-3.32-21.47-6-31.69-8.11-51.58-10.47-88.19-3.23-103.06,20.37-14.16,22.46-6.45,56.26,21.65,95.69,1.42,2,2.91,4,4.45,6.08q2.58,3.43,5.34,6.86c30.46,38.07,75.86,77,128.84,110.4,56.17,35.39,114.31,60.41,163.7,70.43a213.39,213.39,0,0,0,42.08,4.68c29.46,0,50.56-8.51,61-25a44.43,44.43,0,0,0,4.19-8.67Z" transform="translate(-0.75 0.03)"/><path class="cls-11" d="M652.43,584.64a25.06,25.06,0,0,1-8.58-1.48c-43.37-15.73-23.32-144.06,17.58-256.81C699.25,222.07,760.36,116.51,804,116.51a25.09,25.09,0,0,1,8.58,1.47c24.7,9,26.2,53.17,23.12,88.67-4.13,47.45-18.58,107.17-40.7,168.14C757.17,479.07,696.07,584.64,652.43,584.64ZM804,129.9c-27.45,0-84.94,76.85-130,201-21.7,59.93-35.92,118.44-39.92,164.75-4.34,49.83,4.56,71.37,14.34,74.92a11.6,11.6,0,0,0,4,.68c27.44,0,84.94-76.86,130-201,21.73-59.91,35.91-118.42,39.94-164.74,4.33-49.83-4.57-71.37-14.34-74.91A11.5,11.5,0,0,0,804,129.9Z" transform="translate(-0.75 0.03)"/><path class="cls-11" d="M911.17,306.9c-48.32,0-92.47-4.58-131.88-13.73-47.14-11-87.66-28.41-120.46-51.91-56.44-40.43-70.3-84.4-70.87-86.25l12.81-3.91c.13.42,13.54,42.16,66.8,79.94,49.5,35.11,144.43,73.9,315.66,59.3l1.14,13.35Q946.38,306.9,911.17,306.9Z" transform="translate(-0.75 0.03)"/><path class="cls-11" d="M863.66,570C770,500.24,677.44,469,616.32,455.11c-66.06-15-110.29-13.62-110.73-13.6l-.52-13.39c1.87-.07,46.44-1.49,114.19,13.93,62.38,14.2,156.8,46,252.36,117.19Z" transform="translate(-0.75 0.03)"/><path class="cls-9" d="M2643.14,1067.41a52.89,52.89,0,0,1-52.87,52.87H2159.56V1017.75H2593.5a49.58,49.58,0,0,1,49.64,49.66Z" transform="translate(-0.75 0.03)"/><path class="cls-12" d="M2239.51,1068.44a51.66,51.66,0,0,1-15,36.5l-.16.16a51.72,51.72,0,0,1-36.64,15.18H1698.33V1017.75h490.5A50.69,50.69,0,0,1,2239.51,1068.44Z" transform="translate(-0.75 0.03)"/><path class="cls-8" d="M2280.18,1112.6a7.66,7.66,0,0,1-7.64,7.68H1680.9a7.67,7.67,0,1,1,0-15.34h591.65a7.66,7.66,0,0,1,7.66,7.66Z" transform="translate(-0.75 0.03)"/><path class="cls-8" d="M2280.18,1025.42a7.67,7.67,0,0,1-7.65,7.67H1680.9a7.67,7.67,0,1,1,0-15.34h591.65A7.67,7.67,0,0,1,2280.18,1025.42Z" transform="translate(-0.75 0.03)"/><polygon class="cls-13" points="1697.58 1069.05 1763.19 1070.77 1697.58 1071.81 1697.58 1069.05"/><polygon class="cls-13" points="1697.58 1085.13 1853.67 1086.85 1697.58 1087.89 1697.58 1085.13"/><path class="cls-8" d="M2601.49,1018.39l-141.62,101.89H2159.56V1017.75H2593.5A49.77,49.77,0,0,1,2601.49,1018.39Z" transform="translate(-0.75 0.03)"/><path class="cls-14" d="M611.43,999.72H910.87a49.6,49.6,0,0,1,49.6,49.6v18.13a52.82,52.82,0,0,1-52.82,52.82H611.43V999.72Z" transform="translate(-0.75 0.03)"/><path class="cls-12" d="M278.53,999.72H620.94a48.2,48.2,0,0,1,48.2,48.2V1071a49.3,49.3,0,0,1-49.3,49.3H278.53V999.72Z" transform="translate(-0.75 0.03)"/><rect class="cls-14" x="259.66" y="1102.28" width="438.09" height="18.03" rx="7.66"/><rect class="cls-14" x="259.66" y="999.75" width="438.09" height="18.03" rx="7.66"/><polygon class="cls-13" points="277.78 1060.03 325.14 1062.06 277.78 1063.28 277.78 1060.03"/><polygon class="cls-13" points="277.78 1078.94 390.44 1080.97 277.78 1082.19 277.78 1078.94"/><path class="cls-15" d="M1074.58,565.62l-44,522.86s-4.61,31.7,19,31.75c38.76.1,192.93,0,192.93,0s-29.17-6.59-28.82-21.44c.42-17.5,51.4-538.12,51.4-538.12Z" transform="translate(-0.75 0.03)"/><path class="cls-16" d="M1255.07,1110.75c-7.62,0-154.88.48-192.62,0-16.46-.21-19.34-14.63-19.48-24a47.2,47.2,0,0,1,.5-7.79l1.15-13.59,2.91-34.64,2.57-30.6,3.31-39.32,2.79-33.19,31.24-371.53,190.51-5S1256.48,769,1241.29,927.62c-1.69,17.67-3.3,34.61-4.8,50.43q-.72,7.58-1.4,14.79c-1.4,15-2.69,28.79-3.81,41q-.9,9.63-1.63,17.83c-1.94,21.39-3.07,35-3.09,37.65a21.4,21.4,0,0,0,.37,4.23C1230,1110.2,1252.16,1110.75,1255.07,1110.75Z" transform="translate(-0.75 0.03)"/><polygon class="cls-17" points="611.17 281.13 718.29 711.38 732.95 770.3 782.84 970.7 1709.68 970.7 1525.8 281.13 611.17 281.13"/><polygon class="cls-16" points="611.17 281.13 596.33 286.08 763.11 985.67 782.84 970.7 611.17 281.13"/><polygon class="cls-15" points="763.11 985.67 1684.24 985.67 1709.68 970.7 782.84 970.7 763.11 985.67"/><rect class="cls-17" x="1086.58" y="1110.98" width="199.44" height="9.48"/><polygon class="cls-17" points="1664.78 843.64 1514.39 290.25 609.69 290.25 609.69 281.13 1525.8 281.13 1675.69 842.41 1664.78 843.64"/><polygon class="cls-15" points="1235.32 985.67 1234.29 992.91 1046.73 1030.81 1049.3 1000.2 1050.53 985.67 1235.32 985.67"/><path class="cls-18" d="M1255.07,1110.75c-7.62,0-154.88.48-192.62,0-16.46-.21-19.34-14.63-19.48-24l186.68-35.13c-1.94,21.39-3.07,35-3.09,37.65a21.46,21.46,0,0,0,.37,4.23C1230,1110.2,1252.16,1110.75,1255.07,1110.75Z" transform="translate(-0.75 0.03)"/><polygon class="cls-18" points="1189.99 831.11 782.84 970.7 732.95 770.3 1189.99 831.11"/><polygon class="cls-19" points="611.17 281.13 1525.8 281.13 1674.2 835.33 744.43 835.33 611.17 281.13"/><path class="cls-15" d="M1271.58,905.34c-2.64-13.6-15.8-24.61-29.39-24.61s-22.47,11-19.83,24.61,15.81,24.61,29.4,24.61S1274.23,919,1271.58,905.34Z" transform="translate(-0.75 0.03)"/><polygon class="cls-20" points="1631.06 811.31 774.69 811.31 677.71 424.97 670.28 395.34 663.93 370.07 649.06 310.81 1493.09 310.81 1509.42 370.07 1516.39 395.34 1524.55 424.97 1631.06 811.31"/><polygon class="cls-21" points="1509.42 370.07 663.93 370.07 649.06 310.81 1493.09 310.81 1509.42 370.07"/><path class="cls-20" d="M684.73,337.56c-1-4.09,1.47-7.4,5.56-7.4a10.12,10.12,0,0,1,9.25,7.4c1,4.09-1.47,7.41-5.56,7.41A10.11,10.11,0,0,1,684.73,337.56Z" transform="translate(-0.75 0.03)"/><path class="cls-20" d="M709.34,337.56c-1-4.09,1.47-7.4,5.56-7.4a10.11,10.11,0,0,1,9.26,7.4c1,4.09-1.47,7.41-5.57,7.41A10.11,10.11,0,0,1,709.34,337.56Z" transform="translate(-0.75 0.03)"/><path class="cls-20" d="M735.84,337.56c-1-4.09,1.47-7.4,5.56-7.4a10.11,10.11,0,0,1,9.26,7.4c1,4.09-1.47,7.41-5.56,7.41A10.14,10.14,0,0,1,735.84,337.56Z" transform="translate(-0.75 0.03)"/><path class="cls-19" d="M793.85,752.27c0-17.09,14.31-31,32-31s32,13.86,32,31-14.31,31-32,31S793.85,769.34,793.85,752.27Z" transform="translate(-0.75 0.03)"/><path class="cls-20" d="M823.25,734l18.36,15.88a3.41,3.41,0,0,1,.42,4.8,2.85,2.85,0,0,1-.42.43l-18,15.23a3.62,3.62,0,0,1-6-2.59l-.32-31.12a3.62,3.62,0,0,1,6-2.63Z" transform="translate(-0.75 0.03)"/><path class="cls-21" d="M1546.55,755.85a5.87,5.87,0,0,1-5.83,5.83H888.37a5.84,5.84,0,0,1,0-11.67h652.35A5.85,5.85,0,0,1,1546.55,755.85Z" transform="translate(-0.75 0.03)"/><path class="cls-19" d="M961,750v11.67H888.37a5.84,5.84,0,0,1,0-11.67Z" transform="translate(-0.75 0.03)"/><polygon class="cls-21" points="1465.21 702.1 898.11 702.1 833.88 469.98 828.95 452.19 824.76 437.01 814.9 401.41 1373.84 401.41 1384.66 437.01 1389.27 452.19 1394.68 469.98 1465.21 702.1"/><polygon class="cls-20" points="1378.51 530.19 1192.05 530.19 1170.93 453.87 1169.31 448.02 1167.93 443.03 1164.69 431.33 1348.47 431.33 1352.02 443.03 1353.54 448.02 1355.32 453.87 1378.51 530.19"/><polygon class="cls-22" points="1268.78 511.28 1204.13 511.28 1196.8 484.81 1196.24 482.79 1195.77 481.06 1194.64 477 1258.36 477 1259.59 481.06 1260.12 482.79 1260.74 484.81 1268.78 511.28"/><polygon class="cls-22" points="1351.08 511.28 1286.43 511.28 1279.11 484.81 1278.55 482.79 1278.07 481.06 1276.95 477 1340.67 477 1341.9 481.06 1342.43 482.79 1343.04 484.81 1351.08 511.28"/><path class="cls-21" d="M1305.51,445.83H1187.35a1.69,1.69,0,0,1-1.68-1.69h0a1.68,1.68,0,0,1,1.68-1.68h118.16a1.68,1.68,0,0,1,1.68,1.68h0A1.69,1.69,0,0,1,1305.51,445.83Z" transform="translate(-0.75 0.03)"/><path class="cls-21" d="M1309.89,454.92H1191.73a1.69,1.69,0,0,1-1.68-1.69h0a1.68,1.68,0,0,1,1.68-1.68h118.16a1.69,1.69,0,0,1,1.68,1.68h0A1.69,1.69,0,0,1,1309.89,454.92Z" transform="translate(-0.75 0.03)"/><path class="cls-21" d="M1330.32,468.12h-133a1.9,1.9,0,0,1-1.9-1.89h0a1.9,1.9,0,0,1,1.9-1.9h133a1.9,1.9,0,0,1,1.89,1.9h0a1.89,1.89,0,0,1-1.89,1.89Z" transform="translate(-0.75 0.03)"/><polygon class="cls-20" points="1413.35 649.53 1226.89 649.53 1205.77 573.21 1204.15 567.36 1202.78 562.37 1199.53 550.67 1383.31 550.67 1386.86 562.37 1388.38 567.36 1390.16 573.21 1413.35 649.53"/><polygon class="cls-22" points="1303.62 630.62 1238.97 630.62 1231.65 604.15 1231.08 602.13 1230.61 600.4 1229.48 596.34 1293.2 596.34 1294.43 600.4 1294.96 602.13 1295.58 604.15 1303.62 630.62"/><polygon class="cls-22" points="1385.92 630.62 1321.28 630.62 1313.95 604.15 1313.39 602.13 1312.91 600.4 1311.79 596.34 1375.51 596.34 1376.74 600.4 1377.27 602.13 1377.88 604.15 1385.92 630.62"/><path class="cls-21" d="M1340.35,565.17H1222.19a1.69,1.69,0,0,1-1.68-1.69h0a1.68,1.68,0,0,1,1.68-1.68h118.16a1.68,1.68,0,0,1,1.68,1.68h0A1.69,1.69,0,0,1,1340.35,565.17Z" transform="translate(-0.75 0.03)"/><path class="cls-21" d="M1344.73,574.26H1226.57a1.69,1.69,0,0,1-1.68-1.69h0a1.68,1.68,0,0,1,1.68-1.68h118.16a1.69,1.69,0,0,1,1.68,1.68h0A1.69,1.69,0,0,1,1344.73,574.26Z" transform="translate(-0.75 0.03)"/><path class="cls-21" d="M1347.93,583.34H1229.77a1.69,1.69,0,0,1-1.69-1.68h0a1.69,1.69,0,0,1,1.69-1.68h118.16a1.69,1.69,0,0,1,1.68,1.68h0a1.68,1.68,0,0,1-1.68,1.68Z" transform="translate(-0.75 0.03)"/><path class="cls-9" d="M427.07,1055.67s-10.3,5-13.71,13.08a13.22,13.22,0,0,0-1.07,4.55c-.57,10.8,0,35.24,0,35.24l-30.4-12.2-30.33,12.22v-33.13a21.15,21.15,0,0,1,7.43-16.35,13.29,13.29,0,0,1,8.41-3.39Z" transform="translate(-0.75 0.03)"/><path class="cls-8" d="M427.07,1055.67s-10.3,5-13.71,13.08l-60.95.48a18.13,18.13,0,0,1,15-13.56Z" transform="translate(-0.75 0.03)"/><path class="cls-5" d="M2275.46,1018.66H1911a66.78,66.78,0,0,1-66.78-66.78h0V925.4a62.71,62.71,0,0,1,62.71-62.71h368.56v156Z" transform="translate(-0.75 0.03)"/><path class="cls-12" d="M2686.79,1018.66H2266.48a62.33,62.33,0,0,1-62.33-62.33h0v-32.7a61,61,0,0,1,60.95-61h421.69v156h0Z" transform="translate(-0.75 0.03)"/><rect class="cls-5" x="2167.13" y="995.36" width="541.29" height="23.33" rx="9.68"/><rect class="cls-5" x="2167.13" y="862.71" width="541.29" height="23.33" rx="9.68"/><polygon class="cls-13" points="2686.04 940.7 2627.52 943.32 2686.04 944.9 2686.04 940.7"/><polygon class="cls-13" points="2686.04 904.81 2546.83 907.43 2686.04 909.01 2686.04 904.81"/><path class="cls-5" d="M2549.07,906.88s9.18,4.94,12.22,13.07a14.78,14.78,0,0,1,1,4.55c.5,10.8,0,35.25,0,35.25l27.12-12.23,27.06,12.23V926.61c0-6.26-2.33-12.35-6.64-16.35a11.25,11.25,0,0,0-7.49-3.38Z" transform="translate(-0.75 0.03)"/><path class="cls-23" d="M2549.07,906.88s9.18,4.94,12.22,13.07l54.36.49s-2.13-11.64-13.35-13.56Z" transform="translate(-0.75 0.03)"/><path class="cls-24" d="M1798.3,688.34s-19.37,11-24.79,11-26.72-4.11-32.65-1.08-16.67,15.23-18.69,19.22c-3.62,7.16,14.59,4,23.2-2.11a5.38,5.38,0,0,1,4.3-.88c4.46,1,13.72,2.65,18.19,1,6-2.23,37.7-4.7,37.7-4.7Z" transform="translate(-0.75 0.03)"/><path class="cls-25" d="M1776.4,1086.24s-2.08,33.65-8.59,34.13c-.87.06-33,.06-33,.06l-41-.23s.27-9.89,12.26-12,32.07-10.52,39.34-26.38C1753,1065.16,1776.4,1086.24,1776.4,1086.24Z" transform="translate(-0.75 0.03)"/><path class="cls-8" d="M1945.7,538.34s-20.08,142.74-53.34,155.52c-16.41,6.31-88.93,20.61-110.38,22,0,0-5.25-4.27-4-21.62,0,0,76-27.89,86.77-43.06,16.06-22.58-10-92.23,10.18-113.43S1929.07,507.47,1945.7,538.34Z" transform="translate(-0.75 0.03)"/><path class="cls-26" d="M1938.93,839.05a251.07,251.07,0,0,1-19.62,28.07c-21.58,27.25-45.08,49.72-49.17,71a95.44,95.44,0,0,1-3.8,13.59c-1.71,4.86-3.82,10-6.26,15.27-9.16,19.89-22.85,42.19-36.53,62.45-23.64,35-45.87,64.27-45.87,64.27L1736.9,1092c1.64-4.09,19.42-52.46,43.21-111.57L1810,906.25q2-4.93,4-9.8c3-7.54,6-15,8.92-22.17,22.33-55.51,40.13-99.71,40.13-99.71s89.27-33.81,98.54-11.9C1969.13,780.7,1962.91,798.4,1938.93,839.05Z" transform="translate(-0.75 0.03)"/><path class="cls-25" d="M1870.81,990.13s28.36,18.22,25.6,24.14c-.36.79-16,28.86-16,28.86l-20.22,35.71s-8.5-5-4.48-16.54,6.45-33.14-3.85-47.21C1841,1000.28,1870.81,990.13,1870.81,990.13Z" transform="translate(-0.75 0.03)"/><path class="cls-27" d="M1856.93,1022.16s17.73-15.63,20.85-27.1c0,0-73-87.5-88.87-107.11-.72-.9-.54-1.89.42-3,12-13.48,144.83-40.9,162.2-67.91a83.94,83.94,0,0,0,11.22-25.87c3.94-16.49.82-27.88.82-27.88l-132.7-3.84s-110.48,68.8-123,115.71S1856.93,1022.16,1856.93,1022.16Z" transform="translate(-0.75 0.03)"/><path class="cls-28" d="M1789.33,885c12-13.48,144.83-40.9,162.2-67.91a83.94,83.94,0,0,0,11.22-25.87V774.4l-56.4-8.87s-16,49.22-63.36,67.67C1798.62,850.49,1790.22,881.16,1789.33,885Z" transform="translate(-0.75 0.03)"/><path class="cls-24" d="M1867.19,529.34c26.84,6.94,71.34-17.93,71.34-17.93s-17.28-11.61-23.68-37.12c-.33-1.29-.61-2.61-.88-4l-13.79-2.92-20.5,18.37a176.93,176.93,0,0,0,3,20.73c.45,2.29,1,4.75,1.55,7.36A63.19,63.19,0,0,0,1867.19,529.34Z" transform="translate(-0.75 0.03)"/><path class="cls-9" d="M1967,640.61c-3.85,51.72,1.21,130.37-3.15,144-3.77,11.76-46.66,4.77-63.78.85-6.34-1.46-14-3.53-21.94-6-22.12-6.85-46.21-16.63-48.8-23.89a6,6,0,0,1-.23-.83,6.61,6.61,0,0,1,0-3c.86-3.7,4.18-7.71,4.58-16.87.43-10.23.37-22.27.75-35.22a34.19,34.19,0,0,1,.2-4.5v-1.36c.37-14.45,1.12-29.63,2-44.69.56-9.46,1.2-18.83,1.94-27.8,1.93-23.17,4.53-43.77,8-56.8,5.62-21.23,18-35.08,29.3-45.22l8.16-7c9.1,2,19.87.67,29.61-3.95,10.54-5,14.18-8.59,16-7.24C1954,519.84,1971.5,577.39,1967,640.61Z" transform="translate(-0.75 0.03)"/><path class="cls-8" d="M1878.07,779.47c-22.12-6.85-46.21-16.63-48.8-23.89a6,6,0,0,1-.23-.83v-3c.86-3.7,4.18-7.71,4.58-16.87.43-10.23.37-22.27.75-35.22a34.19,34.19,0,0,1,.2-4.5V693.8L1924,579.9S1984.15,705,1878.07,779.47Z" transform="translate(-0.75 0.03)"/><path class="cls-29" d="M1879.68,485.77a176.93,176.93,0,0,0,3,20.73c20-6.47,29.11-24.55,32.14-32.22-.33-1.29-.61-2.61-.88-4l-13.79-2.92Z" transform="translate(-0.75 0.03)"/><path class="cls-24" d="M1877,497.34s43.66-7.29,38.71-34.41S1913,416.6,1885,420.1s-31.6,14.85-32.15,24.3S1865.5,498.53,1877,497.34Z" transform="translate(-0.75 0.03)"/><rect class="cls-30" x="1684.77" y="626.63" width="4.05" height="106.02" transform="translate(-128.21 554.54) rotate(-18)"/><rect class="cls-30" x="1701.09" y="722.94" width="111.25" height="6.66" transform="translate(-15.81 37.6) rotate(-1.22)"/><path class="cls-24" d="M1810.26,733.59s-35.74,9.42-49.15,8.43-24.54-7.36-26.23-10.69-5.23-9.23,3.9-8.14,21.58,3,22,1.28-7.44-1.59-7.44-1.59-2.36-3.44.62-3.56,11.66-2.49,14.89-.87,6.2,7.57,8.56,7.32,29.91-12.41,29.91-12.41Z" transform="translate(-0.75 0.03)"/><path class="cls-9" d="M1936.84,544.19s-4.23,144.08-35.87,160.45c-15.61,8.08-86.11,30.29-107.28,34.08,0,0-5.69-3.66-6.33-21,0,0,72.44-36.1,81.5-52.37,13.47-24.21-20.08-90.57-2.39-113.87S1916.91,515.34,1936.84,544.19Z" transform="translate(-0.75 0.03)"/><path class="cls-31" d="M1914.85,474.28s.5-9.31-5.24-14.64c0,0,2-9.33-1.69-10.87s-4.46,6.31-6.15,5.08-9.23-7.08-12.46-15.69-32.79,1.82-36.24,3.37-14.51-4.14-16.67-8.75c0,0,6.15-4.93,8.92-8.62s22.15-28.6,49.22-21.53,30.76,20,29.22,31.07S1925.94,470.56,1914.85,474.28Z" transform="translate(-0.75 0.03)"/><path class="cls-32" d="M2208.34,593.85s13.86,20.51,21.76,63.63c6.93,37.76,13,51.71,23,59.45s65.7,30.61,65.7,30.61l-4.16,9.76s-81.65-11.12-90.83-24.77-44.13-94.27-41.42-112.84S2208.34,593.85,2208.34,593.85Z" transform="translate(-0.75 0.03)"/><path class="cls-4" d="M2408.28,1044.34c-.73,8,10.36,9.9,23.2,10.54s9,3.27,26.55,6.45,24.65-1.63,25.93-4c1.13-2.11-7-5.41-15.77-9.14l-3.29-1.43c-9.82-4.31-15.32-13.11-23-21.27-7.25-7.73-14.13-32.47-14.13-32.47l-23.91-5.11s6.71,22.27,9,31.78c1.37,5.59-.65,11.84-2.45,16.6A31.59,31.59,0,0,0,2408.28,1044.34Z" transform="translate(-0.75 0.03)"/><path class="cls-33" d="M2431.48,1054.83c12.84.64,9,3.27,26.55,6.45s24.65-1.63,25.93-4c1.13-2.11-7-5.41-15.77-9.14l-.14.15a50.12,50.12,0,0,1-26.65.32c-11.64-3.16-22.9-10.12-30.92-12.37a31.77,31.77,0,0,0-2.2,8C2407.55,1052.25,2418.64,1054.19,2431.48,1054.83Z" transform="translate(-0.75 0.03)"/><path class="cls-25" d="M2170.16,760.72s158.9-12,188.82,6.93,77.89,238.78,77.89,238.78-3,2.38-9.58,3.09c-6.15.67-19.69-3-19.69-3s-69-98.39-73.81-123.18-3.67-46.91-14.73-47.5-148.92,16.76-169.77-20-3.62-73.1-3.62-73.1Z" transform="translate(-0.75 0.03)"/><path class="cls-4" d="M2347.48,1069.81c-.73,8,10.35,9.9,23.19,10.54s9,3.27,26.56,6.45,24.65-1.62,25.92-4c1.14-2.11-7-5.41-15.76-9.14-1.1-.46-2.2-.94-3.3-1.42-9.81-4.32-15.31-13.12-23-21.28-7.24-7.73-14.12-32.47-14.12-32.47l-23.9-5.15s6.72,22.27,9,31.78c1.37,5.59-.65,11.85-2.45,16.6A31.49,31.49,0,0,0,2347.48,1069.81Z" transform="translate(-0.75 0.03)"/><path class="cls-33" d="M2370.67,1080.34c12.85.64,9,3.27,26.56,6.45s24.65-1.62,25.92-4c1.14-2.11-7-5.41-15.76-9.14l-.14.15a50.12,50.12,0,0,1-26.65.32c-11.64-3.16-22.9-10.12-30.92-12.37a31,31,0,0,0-2.2,8C2346.75,1077.77,2357.83,1079.71,2370.67,1080.34Z" transform="translate(-0.75 0.03)"/><path class="cls-34" d="M2139.07,770.57s141.16,6.68,170.31,26.71,68.54,241.64,68.54,241.64-3.05,2.26-9.69,2.72c-6.17.42-19.56-3.72-19.56-3.72s-65.07-101-69-126-1.84-47-12.87-48-149.46,11-168.86-26.57S2139.07,770.57,2139.07,770.57Z" transform="translate(-0.75 0.03)"/><path class="cls-5" d="M2189.34,460c-6.26-4.14-14-5.06-19.52-5.1a9.18,9.18,0,0,1,4.3-1.7c-3.35-.73-11.13,2.12-11.13,2.12-45.86-21.27-57.88,47.54-58,63.71s-1.21,34.71-25.67,47.59c-48.13,25.33-12.43,77.54-12.43,77.54.35.24,32.08,42.25,32.08,42.25-.32-13.1,51.33-82.49,84-101,8.37-10.72,12.41-30.37,12.71-31.92-2.36,15.64-5.64,24.28-8.37,29.09C2215.52,559.91,2205.94,470.91,2189.34,460Z" transform="translate(-0.75 0.03)"/><path class="cls-4" d="M2133.07,570.23a158.07,158.07,0,0,1,26.29,0,84.39,84.39,0,0,1,22.81,5.72c12.44,5.2,11.14,27.23-15,23.15S2131.28,576.76,2133.07,570.23Z" transform="translate(-0.75 0.03)"/><path class="cls-4" d="M2181.07,586.34c.15.08,3.72,19-13.37,18.19-11.22-.49-35.42-14.07-33.28-23.68,1-4.56,9.49-16.41,11.2-43.46l2,.55,34.34,9.21s-1.52,10.9-2.23,21.22C2179.21,577,2179.19,585.23,2181.07,586.34Z" transform="translate(-0.75 0.03)"/><path class="cls-32" d="M2182.07,547.1s-1.52,10.9-2.23,21.22c-19.44-1.85-28.55-20.3-32.11-30.43Z" transform="translate(-0.75 0.03)"/><path class="cls-5" d="M2144.36,533.86s-9.13-16.81-10.66-30.76c-1.1-10,6.35-46.12,42.67-38.42a50,50,0,0,1,20.14,9.19c7.6,5.91,18.32,18.28,3.35,49.27l-4.05,10.54Z" transform="translate(-0.75 0.03)"/><path class="cls-4" d="M2187.9,557.34s-46.13-2.31-44.25-31-2.81-48.34,26.73-48.08,34.53,11.59,36.23,21.33S2200,557.17,2187.9,557.34Z" transform="translate(-0.75 0.03)"/><path class="cls-5" d="M2191.41,478.91s-14.86,32.83-34.55,36.52-27.79-2.09-27.79-2.09a55,55,0,0,0,20.09-31.2S2183,462.25,2191.41,478.91Z" transform="translate(-0.75 0.03)"/><path class="cls-5" d="M2188.07,481.44s8.92,8.14,10.73,15.6,1.84,22.58,6.26,22.36c0,0,11-22.25,1.21-35.91C2195.89,469,2188.07,481.44,2188.07,481.44Z" transform="translate(-0.75 0.03)"/><path class="cls-34" d="M2234.07,763.12c-3.73,4.47-15.39,5.84-27.84,7.89-9.81,1.62-20.1,3.65-27.43,8-16.63,9.76-71,42.76-86.88,41.25-6.17-.58-5-12.36-1.28-28,5.89-24.69,18.21-59,18.21-73.9,0-8.14,2.71-27.4,6.32-49.42q.45-2.65.9-5.37c7.15-42.81,17.06-93.29,17.06-93.29s11,24.11,32.58,24.11S2182.23,576,2182.23,576s19.64,2.31,24.28,7.31,16.42,26.61,18.75,32.5c0,0,.48,7.5-18.09,11.07,0,0,4.52,20.36,5.06,33.92.4,10-6.84,41.4-8.92,60.91-.74,6.91-.84,12.34.29,14.8,1.43,3.15,6.08,6.29,11.36,9.37C2225.44,751.94,2238.48,757.82,2234.07,763.12Z" transform="translate(-0.75 0.03)"/><path class="cls-25" d="M2214.94,745.83c11.92,20.32-32.31,26.42-39.64,30.72-16.62,9.77-67.48,45.17-83.4,43.66-6.17-.58-5-12.36-1.28-28,5.89-24.69,18.21-59,18.21-73.9,0-8.14,2.71-27.4,6.32-49.42l19.17-18.4s20.54,53.08,40.12,61.78a163.15,163.15,0,0,0,28.85,9.39c-.74,6.91-.84,12.34.29,14.8C2205,739.61,2209.66,742.75,2214.94,745.83Z" transform="translate(-0.75 0.03)"/><rect class="cls-7" x="2238.26" y="760.92" width="44.46" height="5.25"/><path class="cls-7" d="M2274.07,765.43c.44-1.74,40.87-65.23,40.87-65.23h90l-45.12,63.52Z" transform="translate(-0.75 0.03)"/><path class="cls-5" d="M2277.81,766.15c.43-1.74,41-66,41-66h86.05l-42.93,66Z" transform="translate(-0.75 0.03)"/><path class="cls-7" d="M2353.66,733.39a7.2,7.2,0,0,1-6.26,4.65c-2.58,0-3.94-2.08-3.06-4.65a7.18,7.18,0,0,1,6.27-4.66C2353.18,728.73,2354.54,730.81,2353.66,733.39Z" transform="translate(-0.75 0.03)"/><path class="cls-4" d="M2252.21,738.34c-2.53-1.08-22,2.47-27.57,3.51-17.65-3.46-75.66-15-78.49-18.68-3.33-4.29-10.6-134.85-18.93-137,0,0-16.39-10-32.24,8.93s11.26,153.83,34.74,160.77c26.08,7.7,101.42-1.23,101.42-1.23h0c6.19,2.12,17,3.31,22.75,5.22,7.58,2.53,14.32.42,16-2.53S2255.16,739.59,2252.21,738.34Z" transform="translate(-0.75 0.03)"/><path class="cls-34" d="M2133.07,570.23s-33.66,3-43.43,14.1S2077,625.4,2077,625.4s29.64,23.93,65.35,14.64Z" transform="translate(-0.75 0.03)"/><rect class="cls-35" y="1119.96" width="2866.32" height="7.6" rx="3.25"/><polygon class="cls-36" points="1465.22 702.1 898.11 702.1 833.88 469.98 828.96 452.19 824.76 437.01 814.9 401.41 1373.85 401.41 1384.66 437.01 1389.27 452.19 1394.69 469.98 1465.22 702.1"/><path class="cls-4" d="M1166.4,512.06s3.14-12.45,8.38-13.1,13.14-4,14.79.2S1177,525,1171.39,519.63,1166.4,512.06,1166.4,512.06Z" transform="translate(-0.75 0.03)"/><path class="cls-25" d="M1110.34,928.15s5.91,6.67,8.07,14.41a2.31,2.31,0,0,1-1.31,3,2.25,2.25,0,0,1-1,.15h-25.71a5.25,5.25,0,0,1-5-4.75c-.06-4.71.6-11.83,4.57-16.14C1096.36,917.91,1110.34,928.15,1110.34,928.15Z" transform="translate(-0.75 0.03)"/><path class="cls-25" d="M1149.19,921.34s7.86,23.84,12.57,24.18h52.78a14.27,14.27,0,0,0-11.31-8.66c-8.9-1.48-24.72-7.45-32.88-18.69C1161.76,906.34,1149.19,921.34,1149.19,921.34Z" transform="translate(-0.75 0.03)"/><path class="cls-37" d="M1097.42,774.05c4.58,13.25,7.51,23.7,7.48,28.66-.12,22.17,43.69,122.28,43.69,122.28,14.14,6,30.31-.06,30.31-.06-4.8-13.87-31.47-138-45.63-213.75-6-31.8-10-54-10-54l-77.38-8.74S1081.54,728.06,1097.42,774.05Z" transform="translate(-0.75 0.03)"/><path class="cls-37" d="M1045.9,648.4s35.64,79.66,51.52,125.65l35.85-62.87c-6-31.8-10-54-10-54Z" transform="translate(-0.75 0.03)"/><path class="cls-37" d="M1087.26,665.39s21.28,221.19,26.23,264c0,0-13.16,4-29.34-2.18,0,0-29.42-102.79-32.75-133.75s-36.59-126.68-31-135.58S1087.26,665.39,1087.26,665.39Z" transform="translate(-0.75 0.03)"/><path class="cls-4" d="M1032.81,476.77s8.18,19.66,8.48,25.53-18.38,9.06-27.85,4.21-8-9.17-8-9.17-4.32-20-3.6-21.59S1032.81,476.77,1032.81,476.77Z" transform="translate(-0.75 0.03)"/><path class="cls-38" d="M1164.19,509.77s-33.43,41.57-34.81,46.92c-19.2-22.37-48.73-50.42-50.07-51.52-3.78-3.07-10.57-4.94-17.44-6.07a150.11,150.11,0,0,0-21.16-1.76,1.29,1.29,0,0,0-.48,0c.89,3.32-2.71,9.46-10.64,10-9.4.61-22.65-4.48-24.13-10-.07-.27-22,1.11-18.18,42.13a15.22,15.22,0,0,0,.2,1.77C989,555,993.29,573,1002.13,596.75c3.17,8.51,13.63,71.7,16.74,71.76a53.35,53.35,0,0,0,8.68,3.09c3.11.89,7.19,1.89,12.2,2.82,10.65,2,25.67,3.76,45.84,3.76,36.88,0,46.23-10.5,46.23-10.5,2,0-20.51-50.83-32.29-94.49,12.24,7.13,25.24,13.94,26.63,14.78,6.17,3.75,10.5,5.3,13.52,5.49h.41a5.82,5.82,0,0,0,4-1.19c2.78-1.46,6.57-4.68,10.41-11.76,5.07-9.33,11.09-28.21,16.27-40.81,2.86-7,5.07-14.59,8-20.88C1178.76,518.82,1171.63,511.19,1164.19,509.77Z" transform="translate(-0.75 0.03)"/><path class="cls-39" d="M1044.3,612.15c7.36,30.58-6.65,50.09-16.75,59.43a53.35,53.35,0,0,1-8.68-3.09c-3.11-.06-13.57-63.25-16.74-71.76C993.29,573,989,555,987.48,541.22c.8-.94,1.27-1.44,1.27-1.44S1033.37,566.82,1044.3,612.15Z" transform="translate(-0.75 0.03)"/><path class="cls-40" d="M1033.71,479S1029,489.66,1021,489.76s-19-10.61-19-10.61Z" transform="translate(-0.75 0.03)"/><path class="cls-4" d="M1034.3,478.45c-1.65,1.65-5.73,3.93-9.16,5.44a12.91,12.91,0,0,1-9,.19c-4.83-1.52-12.16-3.9-14.13-4.93-4.67-2.43-5.73-7.35-7.76-14.19-2.42-8.1-4.94-14.46-5.29-19.13-.42-5.59,2.27-8.77,12-9.63,17.78-1.58,26.58,3,28.54,9.08.52,1.64,1,3.2,1.46,4.68C1036.72,469,1037.07,475.74,1034.3,478.45Z" transform="translate(-0.75 0.03)"/><path class="cls-37" d="M1030.14,447.53s-4.16-4.39-9.3-2.67-4.43,6.51-14.21,5.74-13.29-5.29-14.4-3,1.47,15.65,1.47,15.65-31-43.89,8-43.89c0,0,39.56-2.43,32.19,42.19Z" transform="translate(-0.75 0.03)"/><path class="cls-4" d="M1112.16,489.1Z" transform="translate(-0.75 0.03)"/><path class="cls-41" d="M1116.38,426.39c.13-.73.24-1.21.24-1.21A3.11,3.11,0,0,0,1116.38,426.39Z" transform="translate(-0.75 0.03)"/><polygon class="cls-37" points="1177.69 560.5 1171.3 559.53 1189.24 457.88 1189.24 457.88 1177.69 560.5"/><path class="cls-4" d="M1169.53,508.34s5.9,5.86,6.89,2.65,8.47-6.89,9-8.39-8.61-2.16-10-2.2S1168.57,506.28,1169.53,508.34Z" transform="translate(-0.75 0.03)"/><path class="cls-34" d="M1018.89,506.07c.51.14,7.41-1.73,16.8-.6,0,0,.7,8.49-1.73,9.18s-7.54.11-8.61,0S1018.89,506.07,1018.89,506.07Z" transform="translate(-0.75 0.03)"/><path class="cls-34" d="M1025.35,514.65s28.44,119.44,36,127,13.51,10,13.51,10,6-7.22,5.87-10.67S1034,514.63,1034,514.63Z" transform="translate(-0.75 0.03)"/><path class="cls-4" d="M1065.19,631.21s19.33,6.26,25.15,6.49,12.66-9.71,10.39-12.64c-.66-.84-9.1,3-11.5,1.73-3.65-2-8.33-.48-11.26-.13s-14.18-6-14.18-6Z" transform="translate(-0.75 0.03)"/><path class="cls-38" d="M1072,620.64c-31.43-22.2-53.49-33.38-60.4-36.68,1.92-16.41,1.06-42.52-6.1-86.65,0,0-30.49,3.38-33.75,14-4.7,15.36,6.36,58.12,15.52,92.33l.35.21a11.69,11.69,0,0,0,2.94,3.36c13,10.43,81.71,30.45,81.71,30.45C1077.22,630.47,1072,620.64,1072,620.64Z" transform="translate(-0.75 0.03)"/><polygon class="cls-12" points="1085.25 623.73 1033.69 608.39 1032.06 615.77 1087.29 631.32 1085.25 623.73"/><polygon class="cls-13" points="1111.33 603.84 1085.25 623.73 1087.29 631.32 1117.3 610.84 1111.33 603.84"/><polygon class="cls-37" points="1087.87 633.5 1029.04 615.55 1029.23 614.03 1087.29 631.32 1087.87 633.5"/><polygon class="cls-37" points="1087.87 633.5 1121.18 610.36 1119.83 608.99 1087.29 631.32 1087.87 633.5"/><path class="cls-34" d="M1018.89,506.07s-13.48-14-14.58-13.08-2.49,4-1.84,4.89,18.06,10.69,18.06,10.69Z" transform="translate(-0.75 0.03)"/><path class="cls-34" d="M1035.69,505.47s2.7-14,3.14-13.42,4.8,4.39,5,5.36-5.42,8.84-8,9.44S1035.69,505.47,1035.69,505.47Z" transform="translate(-0.75 0.03)"/></svg>