<?xml version="1.0" encoding="utf-8"?>
<!-- Generator: Adobe Illustrator 23.0.2, SVG Export Plug-In . SVG Version: 6.00 Build 0)  -->
<svg version="1.1" xmlns="http://www.w3.org/2000/svg" xmlns:xlink="http://www.w3.org/1999/xlink" x="0px" y="0px"
	 viewBox="0 0 3018.9 1440" style="enable-background:new 0 0 3018.9 1440;" xml:space="preserve">
<style type="text/css">
	.st0{fill:#FFFFFF;}
	.st1{fill:#ED985F;}
	.st2{fill:#233862;}
	.st3{fill:#FFB27D;}
	.st4{fill:#B5453C;}
	.st5{fill:#DD6D22;}
	.st6{fill:#9E332E;}
	.st7{fill:#ED7D2B;}
	.st8{fill:#F99746;}
	.st9{fill:#ADCBF9;}
	.st10{fill:#FCECDB;}
	.st11{fill:#F4D2B8;}
	.st12{fill:#86D1CD;}
	.st13{fill:#D86713;}
	.st14{fill:#EE9849;}
	.st15{fill:#F1A34F;}
	.st16{fill:#E78B37;}
	.st17{fill:#699DEE;}
	.st18{fill:#E9F3FE;}
	.st19{fill:#AFCDFB;}
	.st20{opacity:0.6;fill:#AFCDFB;enable-background:new    ;}
	.st21{fill:#9E3732;}
	.st22{fill:#E49963;}
	.st23{fill:#163560;}
	.st24{fill:#599DAD;}
	.st25{fill:#6BB7BF;}
	.st26{fill:#5AA9AD;}
	.st27{fill:#D68D5D;}
	.st28{fill:#4A75CB;}
	.st29{fill:#2B478B;}
	.st30{fill:#F4A269;}
	.st31{fill:#C65447;}
	.st32{fill:#1C468A;}
	.st33{fill:#2E3552;}
	.st34{fill:none;}
	.st35{fill:#2C3A64;}
	.st36{fill:#BC3F3F;}
	.st37{fill:#A02E2E;}
	.st38{fill:#E8945B;}
	.st39{fill:#D35C2B;}
	.st40{fill:#FFFCBB;}
	.st41{fill:#FCE900;}
	.st42{opacity:0.5;fill:#FFFFFF;}
	.st43{fill:#87825D;}
	.st44{fill:none;stroke:#87825D;stroke-width:8;stroke-linecap:round;}
	.st45{fill:none;stroke:#87825D;stroke-width:16;stroke-miterlimit:10;}
	.st46{fill:none;stroke:#87825D;stroke-width:7;stroke-miterlimit:10;}
	.st47{fill:none;stroke:#87825D;stroke-width:8;stroke-miterlimit:10;}
</style>
<g id="Слой_2">
	<title>5514</title>
	<path class="st0" d="M2534.8,1279.7c0,0,297.9-311.5,50.3-648.9c-219.6-299.3-475.7-278.8-663.5-157.3
		c-80,51.7-369.6,286.7-565.9-17.8C1088,40.4,218.8,11.9,388,650.8C469.9,960,60.2,971.2,228.9,1280.3L2534.8,1279.7z"/>
	<g id="girl_2">
		<path class="st1" d="M553,860.5c0,0-83.6,36.4-98.8,35.8s-108.7-28.5-108.7-28.5l2.4,16.1c0,0,72.2,41.5,97.4,43.9
			c24.8,2.3,109.8-22.3,118-27.5S576.8,865.7,553,860.5z"/>
		<path class="st2" d="M565.5,726.5c0,0,30.8-5.8,46.2,5.4c27.8,20.3,29.3,90.4,39.7,100.8s35.6,6,37.8,60s-10,58.5,4.6,82.6
			s-6.2,48.2-6.2,48.2s8.5-13.3,4.9-22.9c0,0-3.5,21.2-17,26.2c-13.5,5-15.5,8.6-17.6,15.9c0,0-114.9-58.9-115-100.6
			s-22.6-83.1-11.6-101.2c0,0-4.9,7.7-5.5,16.3c0,0-6.6-12.7,4.9-24.5s-13.5-36.3-9.8-64.6C523.5,748.6,537.2,727.3,565.5,726.5z"/>
		<path class="st3" d="M542.8,900.2c8.5,5.8,18.1,9.8,28.1,12c43.3,10,59.9-26.6,66.2-51.7c-4.5-2.5-9.5-4-14.7-4.5
			c-3.1-0.4-6.4-0.6-9.2-0.8c-4.9-3.7-12.1-19-13.7-42.7l-2,0.5l-34.1,9.4c0,0,1.6,10.9,2.3,21.1c0.6,8,0.7,15.7-0.8,17.6
			c-2.7,0.6-4.3,1-4.3,1l0,0C553.5,874.2,547.5,887,542.8,900.2z"/>
		<path class="st1" d="M563.4,822.4c0,0,1.6,10.8,2.3,21.1c19.3-1.9,28.3-20.3,31.8-30.5L563.4,822.4z"/>
		<path class="st3" d="M557.6,832.6c0,0,45.9-2.5,43.9-31.1s2.5-48.1-26.8-47.7s-34.3,11.7-36,21.4S545.6,832.5,557.6,832.6z"/>
		<path class="st2" d="M538.9,759.2c6.5-9.1,12-7.6,15.1-5.2c24.1-15.6,41.7,3.6,41.7,3.6c2.9,12.4,10,23.3,20.2,31
			c0,0-8,5.8-27.6,2.2c-6-1.1-11.5-4.9-16.4-9.7c5.7,7.9,12.4,15.1,20,21.2c-23.8-9-35.3-40.3-36.5-43.7c-2.6,2.7-7.8,8.6-9,14
			c-1.8,7.4-9.4,19.1-13.8,18.9C532.6,791.5,529.2,772.8,538.9,759.2z"/>
		<path class="st4" d="M650.2,993.5c4.1-21.2,17.7-105.9,4.1-133.1c-4.8-9.8-23.9-10.7-44.8-9.8c-6.5,4.2-31.3,20.1-41.5,18.1
			l-0.6-0.1c-4.8-1.2-6.6-4.6-2.6-7.5c-7.8-0.5-15.6-0.1-23.2,1.4c-7.3,1.4-26.8,11.5-26.8,11.5s9.9,17.8,24.4,24
			c-2.5,22.1,1.2,31.9,24.2,83c19.4,43.2-2.6,82.1-2.6,82.1s114.1,91.8,114.8,45C676,1072.9,644.9,1020.6,650.2,993.5z"/>
		<path class="st5" d="M555.1,1162.8c-6.2-0.7-11.8-4.1-15.3-9.3l-1.7-2.7c-13-19.7-18-79.9-47.3-144.1
			c-7.2-15.6-32.7-18.4-39.7-36.1c0,0-17.1-57.3,32.8-58.9s133.9,159.3,135.2,176.2C620.4,1104.3,652.2,1173.8,555.1,1162.8z"/>
		<path class="st6" d="M356.4,1161.5h71.1c0,0,2.7-11.3-2-19.1c-4.1-6.8-2.5-10.7,0.5-16.4c-3.8,1.6-7.9,2.4-12,2.3
			c-3.5-0.2-7.3-1.8-10.6-3.7c-3.1,3.5-16.2,18.3-20.3,21.3C378.6,1149.2,357.9,1148,356.4,1161.5z"/>
		<path class="st6" d="M642.7,882.6c0,0,9.3,84.2-50.8,101.9s-77.1-77.5-28.6-84.3C611.8,893.3,642.7,882.6,642.7,882.6z"/>
		<path class="st7" d="M449.5,928.3c-4.3,32.1-21,133.5-50.5,182.9c-9.5,15.9,24,24.9,24.1,24.8c4.5-1.2,12-8.3,15.4-11.4
			c24-21.6,72.6-82.7,72.6-131.7c0-23.9,0.4-69.5-17-81.1C483.5,904.6,451.2,915.5,449.5,928.3z"/>
		<path class="st8" d="M597.5,1161.5c0,0-2.6-3.7-7.2-10.6c-5.5-8.3-11.5-24.6-18.9-45.5c-7.7-21.9-16.9-48.9-28.3-77
			c-3.5-8.7-7.3-17.5-11.3-26.2c-7.1-15.6-26.7-13.5-33.7-31.1c0,0-27.2-61.2,22.8-62.9s144.9,163.8,150.4,179.8
			C677.3,1105.5,706.5,1178.3,597.5,1161.5z"/>
		<path class="st4" d="M408.7,1161.5h71.1c0,0,2.7-11.3-2-19.1c-4.1-6.8-2.5-10.7,0.5-16.4c-3.8,1.6-7.9,2.4-12,2.3
			c-3.5-0.2-7.3-1.8-10.6-3.7c-3.1,3.5-16.2,18.3-20.3,21.3C430.8,1149.2,410.1,1148,408.7,1161.5z"/>
		<path class="st7" d="M571.4,1105.4c-7.7-21.9-16.9-48.9-28.3-77c3-21.3,9.4-39.9,20.3-47.4C563.4,980.9,589.7,1062.4,571.4,1105.4
			z"/>
		<path class="st8" d="M491,926c-4.3,32.1-10.3,135.8-39.8,185.2c-9.5,15.9,24,24.9,24.1,24.8c4.5-1.2,12-8.3,15.4-11.4
			c23.9-21.6,72.6-82.7,72.6-131.7c0-23.9-28-67.6-45.4-79.2C507.2,906.5,492.7,913.3,491,926z"/>
		<path class="st6" d="M337.1,826.3l72.9-7.7c2.1-0.2,4.1,1,4.9,3l26.1,68.5c0.9,2.4-0.3,5.1-2.7,6.1c-0.5,0.2-1,0.3-1.5,0.3
			l-72.3,2.9c-2,0.1-3.8-1.1-4.5-2.9l-26.7-63.7c-1-2.4,0.1-5.1,2.5-6.2C336.2,826.5,336.6,826.4,337.1,826.3z"/>
		<path class="st4" d="M330.7,827l72.9-7.7c2.1-0.2,4.1,1,4.9,3l26.1,68.5c0.9,2.4-0.3,5.1-2.7,6.1c0,0,0,0,0,0
			c-0.5,0.2-1,0.3-1.5,0.3L358,900c-2,0.1-3.8-1.1-4.5-2.9l-26.6-63.7c-1-2.4,0.1-5.1,2.5-6.1c0,0,0,0,0,0
			C329.8,827.1,330.3,827,330.7,827z"/>
		<path class="st6" d="M371.1,858.9c-0.9-2.5,0.4-4.4,2.8-4.4c2.7,0.2,5,1.9,6,4.4c0.9,2.4-0.4,4.4-2.8,4.4
			C374.4,863.2,372.1,861.5,371.1,858.9z"/>
		<path class="st6" d="M332.9,833.5c-0.4-0.7-0.1-1.6,0.6-2c0,0,0,0,0,0c0.2-0.1,0.5-0.2,0.8-0.2c1.3,0.1,2.5,0.9,3,2.2
			c0.4,0.7,0.1,1.6-0.6,2c-0.2,0.1-0.5,0.2-0.8,0.2C334.6,835.6,333.4,834.7,332.9,833.5z"/>
		<path class="st3" d="M637.1,860.5c0,0-100.9,37.2-116.1,36.4c-9.8-0.5-91.3-29.1-91.3-29.1s-6-9.3-12.6-11.2
			c0,0-11.6-5.3-14.9-6.3s-2.6,0-1.6,3.2c0.5,1.6,2.4,3.2,4,4.5c-5.6,1.5-11.1,3.6-13.6,4.1c-4.3,0.8-16.5,4.8-12.9,10.8
			s20.5,7.3,27.8,6s16.5,2.9,16.5,2.9s79.3,51,101.1,50.7c43-0.5,115.7-26.9,123.9-32.1S660.9,865.7,637.1,860.5z"/>
		<path class="st3" d="M338.2,861.7c0,0,7.3-11.6,9.7-12c7.3-1.4,7.3,8.2,5.7,14.3c-1.6,6.6-7.3,12.9-8.8,12.4
			S336.5,867.8,338.2,861.7z"/>
		<path class="st3" d="M338,864c0,0-2.3,13,10,19.7L338,864z"/>
		<path class="st0" d="M549,816.2c0,0,4.3-1.7,16.5-0.7c0,0-0.6,4.8-9.6,5.2C550.8,820.9,549,816.2,549,816.2z"/>
		<path class="st4" d="M585.1,878.8c0,0,9,28.6,40,35.1c0,0,51.2-15.8,25.7-50.7C650.8,863.2,625.6,844.5,585.1,878.8z"/>
	</g>
	<path class="st9" d="M560.6,508.3c0-2.9,0.1-5.8,0.1-8.7c0.8-21.4,4.5-42.7,10.9-63.1c-5.4,0.2-10.6,0.5-15.6,0.8
		c-5.1,17.4-8.3,35.3-9.5,53.4c-0.4,5.4-0.6,10.8-0.6,16.2v1.4c0,5.5,0.2,10.9,0.5,16.3c4.9,2.3,10,4.5,15.3,6.7
		c-0.5-5.1-0.9-10.3-1-15.5C560.7,513.3,560.6,510.8,560.6,508.3z M1031.7,409.9C977.3,281.4,829,221.1,700.3,275.3
		c-3.7,1.6-7.4,3.3-11,5c-6,2.9-11.9,6-17.5,9.3c-18.9,11-36.4,24.4-51.8,39.9c-3.3,3.2-6.4,6.6-9.5,10c-3.8,4.2-7.5,8.7-11,13.1
		c-5.6,7.2-10.8,14.7-15.7,22.4c-2.7,4.3-5.2,8.7-7.6,13.1c-3.8,7-7.2,14.2-10.3,21.6c-2.4,5.6-4.5,11.2-6.4,16.9
		c-1.2,3.5-2.3,6.9-3.3,10.5c-5.1,17.4-8.3,35.3-9.5,53.4c-0.4,5.4-0.6,10.8-0.6,16.2v1.4c0,5.5,0.2,10.9,0.5,16.3
		c0.3,4.4,0.7,8.8,1.2,13.3c2.7,23.7,8.8,46.9,18.2,68.8c54.4,128.7,202.7,188.9,331.4,134.5c59.8-25.3,107.6-72.6,133.5-132.1
		c0.3-0.8,0.7-1.6,1-2.4c1.4-3.3,2.8-6.7,4-10C1058.3,536.2,1056.9,469.4,1031.7,409.9L1031.7,409.9z M1018.4,600.7
		c-0.1,0.1-0.1,0.2-0.1,0.3c-1.6,3.7-3.3,7.4-5.1,11.1C955.7,730.5,813.1,780,694.7,722.5c-51.9-25.2-92.9-68.3-115.4-121.5
		c-7.7-18.2-13-37.2-15.9-56.7c-0.7-4.3-1.2-8.6-1.6-13c-0.5-5.1-0.9-10.3-1-15.5c-0.1-2.5-0.1-4.9-0.1-7.5c0-2.9,0.1-5.8,0.1-8.7
		c0.8-21.4,4.5-42.7,10.9-63.2c1.1-3.5,2.2-6.9,3.5-10.3s2.6-7.1,4.1-10.5c2.1-4.9,4.3-9.7,6.7-14.4c2.3-4.5,4.6-8.9,7.1-13.2
		c7-11.9,15-23.3,24-33.8c3.7-4.4,7.6-8.6,11.6-12.7l1.7-1.7c18-18,38.7-33,61.4-44.4c4.7-2.4,9.4-4.6,14.3-6.6
		c1.3-0.6,2.6-1.1,3.9-1.6c122.2-49,260.9,10.4,309.9,132.6C1043.2,478,1042.6,542.9,1018.4,600.7L1018.4,600.7z"/>
	<path class="st9" d="M1078.8,559.3l-19.6-0.5c6.3,8.1,7.7,15.7,3.8,22c-3.9,6.3-13.3,11.8-27.3,15.9c-5.7,1.7-11.5,3-17.3,4
		c-17.1,3.1-38.5,4.9-63.5,5.1c-63.2,0.8-141.6-7.8-220.8-24.1c-53.3-10.9-102.6-24.5-143.9-39.4c-6.3-2.3-12.4-4.6-18.2-6.9
		c-3.5-1.3-6.9-2.8-10.2-4.2c-5.3-2.2-10.4-4.4-15.3-6.7c-3.5-1.5-6.8-3.2-10.1-4.8c-45.5-22.2-66.3-43.7-57-58.9
		c7.5-12.3,34.9-20.7,76.7-23.8c5-0.3,10.2-0.6,15.6-0.8c1.1-3.5,2.2-6.9,3.5-10.3c-5.5,0.1-10.7,0.4-15.8,0.6
		c-52.8,3.1-81,12.4-91.3,29.2c-11.9,19.6,4.4,45.9,56.5,71.4c7.2,3.5,14.9,7,23,10.5c5.1,2.1,10.3,4.2,15.7,6.4l7.5,2.9
		c6.2,2.3,12.5,4.6,18.9,6.9c40.6,14.1,87.8,26.8,138.5,37.2c70.9,14.5,141.4,23.1,201.7,24.5c8.9,0.3,17.5,0.3,25.8,0.2
		c19.2-0.1,38.4-1.4,57.4-3.8c6.2-0.8,12.1-1.9,17.5-3c25.7-5.3,42.7-13.7,49.4-24.7C1084.8,576.8,1084.2,568.3,1078.8,559.3z"/>
	<path class="st9" d="M970.7,553c-0.3,0.5-0.5,0.9-0.8,1.4c-7.7,12.3-25,18.6-49.3,18.6c-13.2-0.2-26.4-1.6-39.4-4.4
		c-47.8-9.7-104.3-34-159.1-68.6c-53.9-33.9-99.6-73.6-129-111.9c-0.5-0.7-1-1.3-1.5-2c-2.8-3.7-5.4-7.4-7.8-11
		c-21.5-31.9-27.9-58.9-17.6-75.2c7.8-12.3,25-18.6,49.3-18.6c13.2,0.2,26.4,1.6,39.4,4.4c5.5,1.1,11.2,2.4,16.9,3.9
		c6.5,1.7,13.2,3.7,20,5.9c4.7-2.4,9.5-4.6,14.4-6.6c1.3-0.6,2.6-1.1,3.9-1.6c-7-2.5-13.9-4.8-20.7-6.9c-10.9-3.3-21.5-6-31.7-8.1
		c-51.6-10.5-88.2-3.2-103.1,20.4c-14.2,22.5-6.5,56.3,21.7,95.7c1.4,2,2.9,4,4.5,6.1c1.7,2.3,3.5,4.6,5.3,6.9
		c30.5,38.1,75.9,77,128.8,110.4C771,547,829.2,572,878.6,582.1c13.8,3,27.9,4.5,42.1,4.7c29.5,0,50.6-8.5,61-25
		c1.7-2.7,3.1-5.6,4.2-8.7L970.7,553z"/>
	<path class="st9" d="M709.5,740.1c-2.9,0-5.8-0.5-8.6-1.5c-43.4-15.7-23.3-144.1,17.6-256.8C756.4,377.5,817.5,272,861.1,272
		c2.9,0,5.8,0.5,8.6,1.5c24.7,9,26.2,53.2,23.1,88.7c-4.1,47.5-18.6,107.2-40.7,168.1C814.3,634.5,753.2,740.1,709.5,740.1z
		 M861.1,285.4c-27.5,0-84.9,76.9-130,201c-21.7,59.9-35.9,118.4-39.9,164.8c-4.3,49.8,4.6,71.4,14.3,74.9c1.3,0.5,2.6,0.7,4,0.7
		c27.4,0,84.9-76.9,130-201c21.7-59.9,35.9-118.4,39.9-164.7c4.3-49.8-4.6-71.4-14.3-74.9C863.8,285.6,862.5,285.4,861.1,285.4z"/>
	<path class="st9" d="M968.3,462.4c-48.3,0-92.5-4.6-131.9-13.7c-47.1-11-87.7-28.4-120.5-51.9c-56.4-40.4-70.3-84.4-70.9-86.3
		l12.8-3.9c0.1,0.4,13.5,42.2,66.8,79.9c49.5,35.1,144.4,73.9,315.7,59.3l1.1,13.4C1016.2,461.3,991.8,462.4,968.3,462.4z"/>
	<path class="st9" d="M920.8,725.5c-93.7-69.8-186.2-101-247.3-114.9c-66.1-15-110.3-13.6-110.7-13.6l-0.5-13.4
		c1.9-0.1,46.4-1.5,114.2,13.9c62.4,14.2,156.8,46,252.4,117.2L920.8,725.5z"/>
	<path class="st8" d="M2700.2,1222.9c0,29.2-23.7,52.9-52.9,52.9h-430.7v-102.5h433.9c27.4,0,49.6,22.1,49.6,49.5
		C2700.2,1222.8,2700.2,1222.8,2700.2,1222.9z"/>
	<path class="st10" d="M2296.6,1223.9c0,13.7-5.4,26.8-15,36.5l-0.2,0.2c-9.7,9.7-22.9,15.2-36.6,15.2h-489.4v-102.5h490.5
		C2273.9,1173.2,2296.6,1195.9,2296.6,1223.9z"/>
	<path class="st7" d="M2337.3,1268.1c0,4.2-3.4,7.7-7.6,7.7H1738c-4.2,0-7.7-3.4-7.7-7.7s3.4-7.7,7.7-7.7c0,0,0,0,0,0h591.7
		C2333.9,1260.4,2337.3,1263.8,2337.3,1268.1L2337.3,1268.1z"/>
	<path class="st7" d="M2337.3,1180.9c0,4.2-3.4,7.7-7.6,7.7H1738c-4.2,0-7.7-3.4-7.7-7.7s3.4-7.7,7.7-7.7h591.7
		C2333.9,1173.2,2337.3,1176.7,2337.3,1180.9z"/>
	<polygon class="st11" points="1755.4,1224.5 1821,1226.2 1755.4,1227.2 	"/>
	<polygon class="st11" points="1755.4,1240.6 1911.5,1242.3 1755.4,1243.3 	"/>
	<path class="st7" d="M2658.6,1173.8L2517,1275.7h-300.3v-102.5h433.9C2653.3,1173.2,2656,1173.4,2658.6,1173.8z"/>
	<path class="st12" d="M668.5,1155.2H968c27.4,0,49.6,22.2,49.6,49.6v18.1c0,29.2-23.6,52.8-52.8,52.8H668.5V1155.2z"/>
	<path class="st10" d="M335.6,1155.2H678c26.6,0,48.2,21.6,48.2,48.2v23.1c0,27.2-22.1,49.3-49.3,49.3c0,0,0,0,0,0H335.6V1155.2z"/>
	<path class="st12" d="M325.2,1257.7h422.8c4.2,0,7.7,3.4,7.7,7.7v2.7c0,4.2-3.4,7.7-7.7,7.7H325.2c-4.2,0-7.7-3.4-7.7-7.7v-2.7
		C317.5,1261.1,320.9,1257.7,325.2,1257.7z"/>
	<path class="st12" d="M325.2,1155.2h422.8c4.2,0,7.7,3.4,7.7,7.7v2.7c0,4.2-3.4,7.7-7.7,7.7H325.2c-4.2,0-7.7-3.4-7.7-7.7v-2.7
		C317.5,1158.6,320.9,1155.2,325.2,1155.2z"/>
	<polygon class="st11" points="335.6,1215.5 383,1217.5 335.6,1218.7 	"/>
	<polygon class="st11" points="335.6,1234.4 448.3,1236.4 335.6,1237.6 	"/>
	<path class="st13" d="M1131.7,721.1l-44,522.9c0,0-4.6,31.7,19,31.8c38.8,0.1,192.9,0,192.9,0s-29.2-6.6-28.8-21.4
		c0.4-17.5,51.4-538.1,51.4-538.1L1131.7,721.1z"/>
	<path class="st14" d="M1312.2,1266.2c-7.6,0-154.9,0.5-192.6,0c-16.5-0.2-19.3-14.6-19.5-24c0-2.6,0.1-5.2,0.5-7.8l1.2-13.6
		l2.9-34.6l2.6-30.6l3.3-39.3l2.8-33.2l31.2-371.5l190.5-5c0,0-21.5,217.9-36.7,376.5c-1.7,17.7-3.3,34.6-4.8,50.4
		c-0.5,5.1-0.9,10-1.4,14.8c-1.4,15-2.7,28.8-3.8,41c-0.6,6.4-1.1,12.4-1.6,17.8c-1.9,21.4-3.1,35-3.1,37.7c0,1.4,0.1,2.8,0.4,4.2
		C1287.1,1265.7,1309.3,1266.2,1312.2,1266.2z"/>
	<polygon class="st15" points="669,436.6 776.1,866.8 790.8,925.7 840.7,1126.1 1767.5,1126.1 1583.7,436.6 	"/>
	<polygon class="st14" points="669,436.6 654.2,441.5 821,1141.1 840.7,1126.1 	"/>
	<polygon class="st13" points="821,1141.1 1742.1,1141.1 1767.5,1126.1 840.7,1126.1 	"/>
	<rect x="1144.4" y="1266.4" class="st15" width="199.4" height="9.5"/>
	<polygon class="st15" points="1722.6,999.1 1572.2,445.7 667.5,445.7 667.5,436.6 1583.7,436.6 1733.5,997.8 	"/>
	<polygon class="st13" points="1293.2,1141.1 1292.1,1148.3 1104.6,1186.2 1107.2,1155.6 1108.4,1141.1 	"/>
	<path class="st16" d="M1312.2,1266.2c-7.6,0-154.9,0.5-192.6,0c-16.5-0.2-19.3-14.6-19.5-24l186.7-35.1c-1.9,21.4-3.1,35-3.1,37.7
		c0,1.4,0.1,2.8,0.4,4.2C1287.1,1265.7,1309.3,1266.2,1312.2,1266.2z"/>
	<polygon class="st16" points="1247.8,986.5 840.7,1126.1 790.8,925.7 	"/>
	<polygon class="st17" points="669,436.6 1583.7,436.6 1732.1,990.8 802.3,990.8 	"/>
	<path class="st13" d="M1328.7,1060.8c-2.6-13.6-15.8-24.6-29.4-24.6s-22.5,11-19.8,24.6s15.8,24.6,29.4,24.6
		S1331.3,1074.5,1328.7,1060.8z"/>
	<polygon class="st18" points="1688.9,966.7 832.5,966.7 735.6,580.4 728.1,550.8 721.8,525.5 706.9,466.2 1550.9,466.2 
		1567.3,525.5 1574.2,550.8 1582.4,580.4 	"/>
	<polygon class="st19" points="1567.3,525.5 721.8,525.5 706.9,466.2 1550.9,466.2 	"/>
	<path class="st18" d="M741.8,493c-1-4.1,1.5-7.4,5.6-7.4c4.4,0.2,8.1,3.2,9.3,7.4c1,4.1-1.5,7.4-5.6,7.4
		C746.7,500.2,743,497.2,741.8,493z"/>
	<path class="st18" d="M766.4,493c-1-4.1,1.5-7.4,5.6-7.4c4.4,0.2,8.1,3.2,9.3,7.4c1,4.1-1.5,7.4-5.6,7.4
		C771.3,500.2,767.6,497.2,766.4,493z"/>
	<path class="st18" d="M792.9,493c-1-4.1,1.5-7.4,5.6-7.4c4.4,0.2,8.1,3.2,9.3,7.4c1,4.1-1.5,7.4-5.6,7.4
		C797.8,500.2,794.1,497.2,792.9,493z"/>
	<path class="st17" d="M851,907.7c0-17.1,14.3-31,32-31s32,13.9,32,31s-14.3,31-32,31S851,924.8,851,907.7z"/>
	<path class="st18" d="M880.4,889.5l18.4,15.9c1.4,1.2,1.6,3.4,0.4,4.8c-0.1,0.2-0.3,0.3-0.4,0.4l-18,15.2c-1.5,1.3-3.8,1.2-5.1-0.3
		c-0.5-0.6-0.9-1.4-0.9-2.2l-0.3-31.1c0.1-2,1.7-3.6,3.7-3.5C879,888.6,879.8,888.9,880.4,889.5L880.4,889.5z"/>
	<path class="st19" d="M1603.7,911.3c0,3.2-2.6,5.8-5.8,5.8H945.5c-3.2-0.1-5.7-2.9-5.6-6.1c0.1-3,2.6-5.5,5.6-5.6h652.4
		C1601,905.5,1603.7,908.1,1603.7,911.3z"/>
	<path class="st17" d="M1018.1,905.5v11.7h-72.6c-3.2-0.1-5.7-2.9-5.6-6.1c0.1-3,2.6-5.5,5.6-5.6H1018.1z"/>
	<polygon class="st19" points="1523.1,857.5 956,857.5 891.7,625.4 886.8,607.6 882.6,592.4 872.8,556.8 1431.7,556.8 1442.5,592.4 
		1447.1,607.6 1452.5,625.4 	"/>
	<polygon class="st18" points="1436.4,685.6 1249.9,685.6 1228.8,609.3 1227.2,603.4 1225.8,598.5 1222.5,586.8 1406.3,586.8 
		1409.9,598.5 1411.4,603.4 1413.2,609.3 	"/>
	<polygon class="st20" points="1326.6,666.7 1262,666.7 1254.7,640.2 1254.1,638.2 1253.6,636.5 1252.5,632.4 1316.2,632.4 
		1317.4,636.5 1318,638.2 1318.6,640.2 	"/>
	<polygon class="st20" points="1408.9,666.7 1344.3,666.7 1337,640.2 1336.4,638.2 1335.9,636.5 1334.8,632.4 1398.5,632.4 
		1399.8,636.5 1400.3,638.2 1400.9,640.2 	"/>
	<path class="st19" d="M1362.6,601.3h-118.2c-0.9,0-1.7-0.8-1.7-1.7l0,0c0-0.9,0.8-1.7,1.7-1.7l0,0h118.2c0.9,0,1.7,0.8,1.7,1.7
		c0,0,0,0,0,0l0,0C1364.3,600.5,1363.5,601.3,1362.6,601.3z"/>
	<path class="st19" d="M1367,610.4h-118.2c-0.9,0-1.7-0.8-1.7-1.7l0,0c0-0.9,0.8-1.7,1.7-1.7l0,0H1367c0.9,0,1.7,0.8,1.7,1.7l0,0
		C1368.7,609.6,1367.9,610.4,1367,610.4z"/>
	<path class="st19" d="M1387.4,623.6h-133c-1,0-1.9-0.8-1.9-1.9l0,0c0-1,0.9-1.9,1.9-1.9l0,0h133c1,0,1.9,0.9,1.9,1.9l0,0
		C1389.3,622.7,1388.5,623.6,1387.4,623.6L1387.4,623.6z"/>
	<polygon class="st18" points="1471.2,805 1284.7,805 1263.6,728.6 1262,722.8 1260.6,717.8 1257.4,706.1 1441.2,706.1 
		1444.7,717.8 1446.2,722.8 1448,728.6 	"/>
	<polygon class="st20" points="1361.5,786 1296.8,786 1289.5,759.6 1288.9,757.6 1288.5,755.8 1287.3,751.8 1351.1,751.8 
		1352.3,755.8 1352.8,757.6 1353.4,759.6 	"/>
	<polygon class="st20" points="1443.8,786 1379.1,786 1371.8,759.6 1371.2,757.6 1370.8,755.8 1369.6,751.8 1433.4,751.8 
		1434.6,755.8 1435.1,757.6 1435.7,759.6 	"/>
	<path class="st19" d="M1397.5,720.6h-118.2c-0.9,0-1.7-0.8-1.7-1.7l0,0c0-0.9,0.8-1.7,1.7-1.7l0,0h118.2c0.9,0,1.7,0.8,1.7,1.7v0
		l0,0C1399.1,719.9,1398.4,720.6,1397.5,720.6z"/>
	<path class="st19" d="M1401.8,729.7h-118.2c-0.9,0-1.7-0.8-1.7-1.7l0,0c0-0.9,0.8-1.7,1.7-1.7l0,0h118.2c0.9,0,1.7,0.8,1.7,1.7l0,0
		C1403.5,729,1402.8,729.7,1401.8,729.7z"/>
	<path class="st19" d="M1405,738.8h-118.2c-0.9,0-1.7-0.8-1.7-1.7l0,0c0-0.9,0.8-1.7,1.7-1.7H1405c0.9,0,1.7,0.8,1.7,1.7l0,0
		C1406.7,738,1406,738.8,1405,738.8L1405,738.8z"/>
	<path class="st8" d="M484.2,1211.1c0,0-10.3,5-13.7,13.1c-0.6,1.4-1,3-1.1,4.6c-0.6,10.8,0,35.2,0,35.2l-30.4-12.2l-30.3,12.2
		v-33.1c-0.1-6.3,2.6-12.3,7.4-16.3c2.3-2.1,5.3-3.3,8.4-3.4L484.2,1211.1z"/>
	<path class="st7" d="M484.2,1211.1c0,0-10.3,5-13.7,13.1l-61,0.5c1.8-7.1,7.7-12.5,15-13.6L484.2,1211.1z"/>
	<path class="st4" d="M2332.6,1174.1h-364.5c-36.9,0-66.8-29.9-66.8-66.8l0,0v-26.5c0-34.6,28.1-62.7,62.7-62.7h368.6L2332.6,1174.1
		L2332.6,1174.1z"/>
	<path class="st10" d="M2743.9,1174.1h-420.3c-34.4,0-62.3-27.9-62.3-62.3c0,0,0,0,0,0l0,0v-32.7c0-33.7,27.3-61,60.9-61h421.7
		L2743.9,1174.1L2743.9,1174.1L2743.9,1174.1z"/>
	<path class="st4" d="M2234.7,1150.8h521.9c5.3,0,9.7,4.3,9.7,9.7v4c0,5.3-4.3,9.7-9.7,9.7h-521.9c-5.3,0-9.7-4.3-9.7-9.7v-4
		C2225,1155.1,2229.3,1150.8,2234.7,1150.8z"/>
	<path class="st4" d="M2234.7,1018.1h521.9c5.3,0,9.7,4.3,9.7,9.7v4c0,5.3-4.3,9.7-9.7,9.7h-521.9c-5.3,0-9.7-4.3-9.7-9.7v-4
		C2225,1022.5,2229.3,1018.1,2234.7,1018.1z"/>
	<polygon class="st11" points="2743.9,1096.1 2685.4,1098.7 2743.9,1100.3 	"/>
	<polygon class="st11" points="2743.9,1060.2 2604.7,1062.9 2743.9,1064.4 	"/>
	<path class="st4" d="M2606.2,1062.3c0,0,9.2,4.9,12.2,13.1c0.6,1.5,0.9,3,1,4.6c0.5,10.8,0,35.3,0,35.3l27.1-12.2l27.1,12.2v-33.1
		c0-6.3-2.3-12.3-6.6-16.3c-2-2-4.7-3.2-7.5-3.4H2606.2z"/>
	<path class="st21" d="M2606.2,1062.3c0,0,9.2,4.9,12.2,13.1l54.4,0.5c0,0-2.1-11.6-13.4-13.6H2606.2z"/>
	<path class="st22" d="M1855.4,843.8c0,0-19.4,11-24.8,11s-26.7-4.1-32.7-1.1s-16.7,15.2-18.7,19.2c-3.6,7.2,14.6,4,23.2-2.1
		c1.2-0.9,2.8-1.2,4.3-0.9c4.5,1,13.7,2.7,18.2,1c6-2.2,37.7-4.7,37.7-4.7L1855.4,843.8z"/>
	<path class="st23" d="M1833.5,1241.7c0,0-2.1,33.7-8.6,34.1c-0.9,0.1-33,0.1-33,0.1l-41-0.2c0,0,0.3-9.9,12.3-12
		s32.1-10.5,39.3-26.4C1810.1,1220.6,1833.5,1241.7,1833.5,1241.7z"/>
	<path class="st7" d="M2002.8,693.8c0,0-20.1,142.7-53.3,155.5c-16.4,6.3-88.9,20.6-110.4,22c0,0-5.3-4.3-4-21.6
		c0,0,76-27.9,86.8-43.1c16.1-22.6-10-92.2,10.2-113.4S1986.2,662.9,2002.8,693.8z"/>
	<path class="st24" d="M1996,994.5c-5.9,9.8-12.4,19.2-19.6,28.1c-21.6,27.3-45.1,49.7-49.2,71c-0.9,4.6-2.2,9.2-3.8,13.6
		c-1.7,4.9-3.8,10-6.3,15.3c-9.2,19.9-22.8,42.2-36.5,62.5c-23.6,35-45.9,64.3-45.9,64.3l-40.8-1.7c1.6-4.1,19.4-52.5,43.2-111.6
		l29.9-74.2c1.3-3.3,2.7-6.6,4-9.8c3-7.5,6-15,8.9-22.2c22.3-55.5,40.1-99.7,40.1-99.7s89.3-33.8,98.5-11.9
		C2026.2,936.2,2020,953.9,1996,994.5z"/>
	<path class="st23" d="M1927.9,1145.6c0,0,28.4,18.2,25.6,24.1c-0.4,0.8-16,28.9-16,28.9l-20.2,35.7c0,0-8.5-5-4.5-16.5
		s6.4-33.1-3.8-47.2C1898.1,1155.7,1927.9,1145.6,1927.9,1145.6z"/>
	<path class="st25" d="M1914,1177.6c0,0,17.7-15.6,20.8-27.1c0,0-73-87.5-88.9-107.1c-0.7-0.9-0.5-1.9,0.4-3
		c12-13.5,144.8-40.9,162.2-67.9c5.2-7.9,9-16.7,11.2-25.9c3.9-16.5,0.8-27.9,0.8-27.9l-132.7-3.8c0,0-110.5,68.8-123,115.7
		C1752.5,1077.5,1914,1177.6,1914,1177.6z"/>
	<path class="st26" d="M1846.4,1040.5c12-13.5,144.8-40.9,162.2-67.9c5.2-7.9,9-16.7,11.2-25.9v-16.8l-56.4-8.9
		c0,0-16,49.2-63.4,67.7C1855.7,1005.9,1847.3,1036.6,1846.4,1040.5z"/>
	<path class="st22" d="M1924.3,684.8c26.8,6.9,71.3-17.9,71.3-17.9s-17.3-11.6-23.7-37.1c-0.3-1.3-0.6-2.6-0.9-4l-13.8-2.9
		l-20.5,18.4c0.6,7,1.6,13.9,3,20.7c0.4,2.3,1,4.8,1.6,7.4C1934.8,673.4,1929,678.6,1924.3,684.8z"/>
	<path class="st8" d="M2024.1,796.1c-3.8,51.7,1.2,130.4-3.2,144c-3.8,11.8-46.7,4.8-63.8,0.8c-6.3-1.5-14-3.5-21.9-6
		c-22.1-6.8-46.2-16.6-48.8-23.9c-0.1-0.3-0.2-0.5-0.2-0.8c-0.2-1-0.2-2,0-3c0.9-3.7,4.2-7.7,4.6-16.9c0.4-10.2,0.4-22.3,0.8-35.2
		c0-1.5,0-3,0.2-4.5v-1.4c0.4-14.5,1.1-29.6,2-44.7c0.6-9.5,1.2-18.8,1.9-27.8c1.9-23.2,4.5-43.8,8-56.8c5.6-21.2,18-35.1,29.3-45.2
		l8.2-7c9.1,2,19.9,0.7,29.6-4c10.5-5,14.2-8.6,16-7.2C2011.1,675.3,2028.6,732.8,2024.1,796.1z"/>
	<path class="st7" d="M1935.2,934.9c-22.1-6.8-46.2-16.6-48.8-23.9c-0.1-0.3-0.2-0.5-0.2-0.8v-3c0.9-3.7,4.2-7.7,4.6-16.9
		c0.4-10.2,0.4-22.3,0.8-35.2c0-1.5,0-3,0.2-4.5v-1.4l89.4-113.9C1981.1,735.4,2041.3,860.5,1935.2,934.9z"/>
	<path class="st27" d="M1936.8,641.2c0.6,7,1.6,13.9,3,20.7c20-6.5,29.1-24.5,32.1-32.2c-0.3-1.3-0.6-2.6-0.9-4l-13.8-2.9
		L1936.8,641.2z"/>
	<path class="st22" d="M1934.1,652.8c0,0,43.7-7.3,38.7-34.4s-2.7-46.3-30.7-42.8s-31.6,14.8-32.2,24.3
		C1909.4,609.3,1922.6,654,1934.1,652.8z"/>
	
		<rect x="1741.9" y="782.1" transform="matrix(0.9511 -0.309 0.309 0.9511 -172.7062 579.7688)" class="st28" width="4.1" height="106"/>
	
		<rect x="1758.2" y="878.4" transform="matrix(0.9998 -2.129141e-02 2.129141e-02 0.9998 -18.3621 38.8188)" class="st28" width="111.3" height="6.7"/>
	<path class="st22" d="M1867.4,889c0,0-35.7,9.4-49.2,8.4s-24.5-7.4-26.2-10.7s-5.2-9.2,3.9-8.1s21.6,3,22,1.3s-7.4-1.6-7.4-1.6
		s-2.4-3.4,0.6-3.6s11.7-2.5,14.9-0.9s6.2,7.6,8.6,7.3s29.9-12.4,29.9-12.4L1867.4,889z"/>
	<path class="st8" d="M1993.9,699.6c0,0-4.2,144.1-35.9,160.5c-15.6,8.1-86.1,30.3-107.3,34.1c0,0-5.7-3.7-6.3-21
		c0,0,72.4-36.1,81.5-52.4c13.5-24.2-20.1-90.6-2.4-113.9S1974,670.8,1993.9,699.6z"/>
	<path class="st29" d="M1972,629.7c0,0,0.5-9.3-5.2-14.6c0,0,2-9.3-1.7-10.9c-3.7-1.5-4.5,6.3-6.2,5.1c-1.7-1.2-9.2-7.1-12.5-15.7
		c-3.2-8.6-32.8,1.8-36.2,3.4s-14.5-4.1-16.7-8.8c0,0,6.2-4.9,8.9-8.6s22.2-28.6,49.2-21.5s30.8,20,29.2,31.1S1983,626,1972,629.7z"
		/>
	<path class="st30" d="M2265.4,749.3c0,0,13.9,20.5,21.8,63.6c6.9,37.8,13,51.7,23,59.5s65.7,30.6,65.7,30.6l-4.2,9.8
		c0,0-81.6-11.1-90.8-24.8s-44.1-94.3-41.4-112.8S2265.4,749.3,2265.4,749.3z"/>
	<path class="st3" d="M2465.4,1199.8c-0.7,8,10.4,9.9,23.2,10.5s9,3.3,26.6,6.4s24.6-1.6,25.9-4c1.1-2.1-7-5.4-15.8-9.1l-3.3-1.4
		c-9.8-4.3-15.3-13.1-23-21.3c-7.3-7.7-14.1-32.5-14.1-32.5l-23.9-5.1c0,0,6.7,22.3,9,31.8c1.4,5.6-0.6,11.8-2.4,16.6
		C2466.5,1194.3,2465.7,1197,2465.4,1199.8z"/>
	<path class="st31" d="M2488.6,1210.3c12.8,0.6,9,3.3,26.6,6.4s24.6-1.6,25.9-4c1.1-2.1-7-5.4-15.8-9.1l-0.1,0.2
		c-8.7,2.5-17.9,2.6-26.6,0.3c-11.6-3.2-22.9-10.1-30.9-12.4c-1.1,2.6-1.8,5.2-2.2,8C2464.7,1207.7,2475.7,1209.6,2488.6,1210.3z"/>
	<path class="st23" d="M2227.3,916.2c0,0,158.9-12,188.8,6.9s77.9,238.8,77.9,238.8s-3,2.4-9.6,3.1c-6.1,0.7-19.7-3-19.7-3
		s-69-98.4-73.8-123.2c-4.8-24.8-3.7-46.9-14.7-47.5s-148.9,16.8-169.8-20s-3.6-73.1-3.6-73.1L2227.3,916.2z"/>
	<path class="st3" d="M2404.6,1225.3c-0.7,8,10.4,9.9,23.2,10.5s9,3.3,26.6,6.4s24.6-1.6,25.9-4c1.1-2.1-7-5.4-15.8-9.1
		c-1.1-0.5-2.2-0.9-3.3-1.4c-9.8-4.3-15.3-13.1-23-21.3c-7.2-7.7-14.1-32.5-14.1-32.5l-23.9-5.2c0,0,6.7,22.3,9,31.8
		c1.4,5.6-0.6,11.8-2.4,16.6C2405.7,1219.8,2404.9,1222.5,2404.6,1225.3z"/>
	<path class="st31" d="M2427.8,1235.8c12.9,0.6,9,3.3,26.6,6.4s24.6-1.6,25.9-4c1.1-2.1-7-5.4-15.8-9.1l-0.1,0.2
		c-8.7,2.5-17.9,2.6-26.6,0.3c-11.6-3.2-22.9-10.1-30.9-12.4c-1.1,2.6-1.8,5.2-2.2,8C2403.9,1233.2,2414.9,1235.2,2427.8,1235.8z"/>
	<path class="st32" d="M2196.2,926c0,0,141.2,6.7,170.3,26.7s68.5,241.6,68.5,241.6s-3.1,2.3-9.7,2.7c-6.2,0.4-19.6-3.7-19.6-3.7
		s-65.1-101-69-126s-1.8-47-12.9-48s-149.5,11-168.9-26.6C2135.6,955.2,2196.2,926,2196.2,926z"/>
	<path class="st4" d="M2246.4,615.5c-6.3-4.1-14-5.1-19.5-5.1c1.3-0.9,2.7-1.5,4.3-1.7c-3.4-0.7-11.1,2.1-11.1,2.1
		c-45.9-21.3-57.9,47.5-58,63.7s-1.2,34.7-25.7,47.6c-48.1,25.3-12.4,77.5-12.4,77.5c0.4,0.2,32.1,42.3,32.1,42.3
		c-0.3-13.1,51.3-82.5,84-101c8.4-10.7,12.4-30.4,12.7-31.9c-2.4,15.6-5.6,24.3-8.4,29.1C2272.6,715.4,2263,626.4,2246.4,615.5z"/>
	<path class="st3" d="M2190.2,725.7c8.7-0.7,17.5-0.7,26.3,0c7.8,0.8,15.5,2.8,22.8,5.7c12.4,5.2,11.1,27.2-15,23.2
		S2188.4,732.2,2190.2,725.7z"/>
	<path class="st3" d="M2238.2,741.8c0.1,0.1,3.7,19-13.4,18.2c-11.2-0.5-35.4-14.1-33.3-23.7c1-4.6,9.5-16.4,11.2-43.5l2,0.5
		l34.3,9.2c0,0-1.5,10.9-2.2,21.2C2236.3,732.5,2236.3,740.7,2238.2,741.8z"/>
	<path class="st30" d="M2239.2,702.6c0,0-1.5,10.9-2.2,21.2c-19.4-1.8-28.6-20.3-32.1-30.4L2239.2,702.6z"/>
	<path class="st4" d="M2201.5,689.3c0,0-9.1-16.8-10.7-30.8c-1.1-10,6.4-46.1,42.7-38.4c7.3,1.5,14.2,4.7,20.1,9.2
		c7.6,5.9,18.3,18.3,3.4,49.3l-4.1,10.5L2201.5,689.3z"/>
	<path class="st3" d="M2245,712.8c0,0-46.1-2.3-44.3-31s-2.8-48.3,26.7-48.1c29.5,0.3,34.5,11.6,36.2,21.3S2257.1,712.6,2245,712.8z
		"/>
	<path class="st4" d="M2248.5,634.4c0,0-14.9,32.8-34.6,36.5s-27.8-2.1-27.8-2.1c10.1-7.8,17.2-18.8,20.1-31.2
		C2206.3,637.6,2240.1,617.7,2248.5,634.4z"/>
	<path class="st4" d="M2245.2,636.9c0,0,8.9,8.1,10.7,15.6c1.8,7.5,1.8,22.6,6.3,22.4c0,0,11-22.3,1.2-35.9
		C2253,624.5,2245.2,636.9,2245.2,636.9z"/>
	<path class="st32" d="M2291.2,918.6c-3.7,4.5-15.4,5.8-27.8,7.9c-9.8,1.6-20.1,3.7-27.4,8c-16.6,9.8-71,42.8-86.9,41.3
		c-6.2-0.6-5-12.4-1.3-28c5.9-24.7,18.2-59,18.2-73.9c0-8.1,2.7-27.4,6.3-49.4c0.3-1.8,0.6-3.6,0.9-5.4
		c7.1-42.8,17.1-93.3,17.1-93.3s11,24.1,32.6,24.1s16.5-18.4,16.5-18.4s19.6,2.3,24.3,7.3s16.4,26.6,18.8,32.5
		c0,0,0.5,7.5-18.1,11.1c0,0,4.5,20.4,5.1,33.9c0.4,10-6.8,41.4-8.9,60.9c-0.7,6.9-0.8,12.3,0.3,14.8c1.4,3.2,6.1,6.3,11.4,9.4
		C2282.5,907.4,2295.6,913.3,2291.2,918.6z"/>
	<path class="st23" d="M2272,901.3c11.9,20.3-32.3,26.4-39.6,30.7c-16.6,9.8-67.5,45.2-83.4,43.7c-6.2-0.6-5-12.4-1.3-28
		c5.9-24.7,18.2-59,18.2-73.9c0-8.1,2.7-27.4,6.3-49.4l19.2-18.4c0,0,20.5,53.1,40.1,61.8c9.3,4,19,7.2,28.9,9.4
		c-0.7,6.9-0.8,12.3,0.3,14.8C2262.1,895.1,2266.8,898.2,2272,901.3z"/>
	<rect x="2296.1" y="916.3" class="st6" width="44.5" height="5.3"/>
	<path class="st6" d="M2331.2,920.9c0.4-1.7,40.9-65.2,40.9-65.2h90l-45.1,63.5L2331.2,920.9z"/>
	<path class="st4" d="M2334.9,921.6c0.4-1.7,41-66,41-66h86.1l-42.9,66H2334.9z"/>
	<path class="st6" d="M2410.8,888.8c-1,2.6-3.4,4.5-6.3,4.7c-2.6,0-3.9-2.1-3.1-4.7c1-2.7,3.4-4.5,6.3-4.7
		C2410.3,884.2,2411.6,886.3,2410.8,888.8z"/>
	<path class="st3" d="M2309.3,893.8c-2.5-1.1-22,2.5-27.6,3.5c-17.6-3.5-75.7-15-78.5-18.7c-3.3-4.3-10.6-134.8-18.9-137
		c0,0-16.4-10-32.2,8.9s11.3,153.8,34.7,160.8c26.1,7.7,101.4-1.2,101.4-1.2l0,0c6.2,2.1,17,3.3,22.8,5.2c7.6,2.5,14.3,0.4,16-2.5
		S2312.3,895,2309.3,893.8z"/>
	<path class="st32" d="M2190.2,725.7c0,0-33.7,3-43.4,14.1s-12.6,41.1-12.6,41.1s29.6,23.9,65.4,14.6L2190.2,725.7z"/>
	<path class="st33" d="M61.1,1275.4h2859.8c1.8,0,3.3,1.5,3.3,3.3v1.1c0,1.8-1.5,3.3-3.3,3.3H61.1c-1.8,0-3.3-1.5-3.3-3.3v-1.1
		C57.9,1276.8,59.3,1275.4,61.1,1275.4z"/>
	<polygon class="st34" points="1523.1,857.5 956,857.5 891.7,625.4 886.8,607.6 882.6,592.4 872.8,556.8 1431.7,556.8 1442.5,592.4 
		1447.1,607.6 1452.5,625.4 	"/>
	<path class="st3" d="M1223.5,667.5c0,0,3.1-12.5,8.4-13.1c5.2-0.7,13.1-4,14.8,0.2s-12.6,25.8-18.2,20.5S1223.5,667.5,1223.5,667.5
		z"/>
	<path class="st23" d="M1167.4,1083.6c0,0,5.9,6.7,8.1,14.4c0.5,1.2-0.1,2.5-1.3,3c0,0,0,0,0,0c-0.3,0.1-0.7,0.2-1,0.2h-25.7
		c-2.6-0.1-4.8-2.1-5-4.8c-0.1-4.7,0.6-11.8,4.6-16.1C1153.5,1073.4,1167.4,1083.6,1167.4,1083.6z"/>
	<path class="st23" d="M1206.3,1076.8c0,0,7.9,23.8,12.6,24.2h52.8c-2-4.7-6.3-8-11.3-8.7c-8.9-1.5-24.7-7.4-32.9-18.7
		C1218.9,1061.8,1206.3,1076.8,1206.3,1076.8z"/>
	<path class="st35" d="M1154.5,929.5c4.6,13.3,7.5,23.7,7.5,28.7c-0.1,22.2,43.7,122.3,43.7,122.3c14.1,6,30.3-0.1,30.3-0.1
		c-4.8-13.9-31.5-138-45.6-213.8c-6-31.8-10-54-10-54l-77.4-8.7C1103,803.9,1138.6,883.5,1154.5,929.5z"/>
	<path class="st35" d="M1103,803.9c0,0,35.6,79.7,51.5,125.7l35.8-62.9c-6-31.8-10-54-10-54L1103,803.9z"/>
	<path class="st35" d="M1144.4,820.8c0,0,21.3,221.2,26.2,264c0,0-13.2,4-29.3-2.2c0,0-29.4-102.8-32.8-133.8s-36.6-126.7-31-135.6
		C1083.1,804.4,1144.4,820.8,1144.4,820.8z"/>
	<path class="st3" d="M1089.9,632.2c0,0,8.2,19.7,8.5,25.5s-18.4,9.1-27.8,4.2c-9.5-4.9-8-9.2-8-9.2s-4.3-20-3.6-21.6
		C1059.7,629.6,1089.9,632.2,1089.9,632.2z"/>
	<path class="st36" d="M1221.3,665.2c0,0-33.4,41.6-34.8,46.9c-19.2-22.4-48.7-50.4-50.1-51.5c-3.8-3.1-10.6-4.9-17.4-6.1
		c-7-1.1-14.1-1.7-21.2-1.8c-0.2,0-0.3,0-0.5,0c0.9,3.3-2.7,9.5-10.6,10c-9.4,0.6-22.7-4.5-24.1-10c-0.1-0.3-22,1.1-18.2,42.1
		c0,0.6,0.1,1.2,0.2,1.8c1.5,13.8,5.8,31.8,14.7,55.5c3.2,8.5,13.6,71.7,16.7,71.8c2.8,1.3,5.7,2.3,8.7,3.1
		c3.1,0.9,7.2,1.9,12.2,2.8c10.7,2,25.7,3.8,45.8,3.8c36.9,0,46.2-10.5,46.2-10.5c2,0-20.5-50.8-32.3-94.5
		c12.2,7.1,25.2,13.9,26.6,14.8c6.2,3.8,10.5,5.3,13.5,5.5h0.4c1.4,0.1,2.9-0.3,4-1.2c2.8-1.5,6.6-4.7,10.4-11.8
		c5.1-9.3,11.1-28.2,16.3-40.8c2.9-7,5.1-14.6,8-20.9C1235.9,674.3,1228.7,666.6,1221.3,665.2z"/>
	<path class="st37" d="M1101.4,767.6c7.4,30.6-6.7,50.1-16.8,59.4c-3-0.8-5.9-1.8-8.7-3.1c-3.1-0.1-13.6-63.3-16.7-71.8
		c-8.8-23.7-13.1-41.7-14.7-55.5c0.8-0.9,1.3-1.4,1.3-1.4S1090.5,722.3,1101.4,767.6z"/>
	<path class="st38" d="M1090.8,634.5c0,0-4.7,10.7-12.7,10.8c-8,0.1-19-10.6-19-10.6L1090.8,634.5z"/>
	<path class="st3" d="M1091.4,633.9c-1.7,1.7-5.7,3.9-9.2,5.4c-2.9,1.1-6.1,1.2-9,0.2c-4.8-1.5-12.2-3.9-14.1-4.9
		c-4.7-2.4-5.7-7.3-7.8-14.2c-2.4-8.1-4.9-14.5-5.3-19.1c-0.4-5.6,2.3-8.8,12-9.6c17.8-1.6,26.6,3,28.5,9.1c0.5,1.6,1,3.2,1.5,4.7
		C1093.8,624.5,1094.2,631.2,1091.4,633.9z"/>
	<path class="st35" d="M1087.2,603c0,0-4.2-4.4-9.3-2.7c-5.1,1.7-4.4,6.5-14.2,5.7s-13.3-5.3-14.4-3c-1.1,2.3,1.5,15.7,1.5,15.7
		s-31-43.9,8-43.9c0,0,39.6-2.4,32.2,42.2L1087.2,603z"/>
	<path class="st3" d="M1169.3,644.6"/>
	<path class="st39" d="M1173.5,581.8c0.1-0.7,0.2-1.2,0.2-1.2C1173.6,581,1173.5,581.4,1173.5,581.8z"/>
	<polygon class="st35" points="1235.5,715.9 1229.2,715 1247.1,613.3 1247.1,613.3 	"/>
	<path class="st3" d="M1226.6,663.8c0,0,5.9,5.9,6.9,2.6s8.5-6.9,9-8.4s-8.6-2.2-10-2.2C1231.1,655.8,1225.7,661.7,1226.6,663.8z"/>
	<path class="st32" d="M1076,661.5c0.5,0.1,7.4-1.7,16.8-0.6c0,0,0.7,8.5-1.7,9.2s-7.5,0.1-8.6,0S1076,661.5,1076,661.5z"/>
	<path class="st32" d="M1082.5,670.1c0,0,28.4,119.4,36,127s13.5,10,13.5,10s6-7.2,5.9-10.7s-46.7-126.4-46.7-126.4L1082.5,670.1z"
		/>
	<path class="st3" d="M1122.3,786.7c0,0,19.3,6.3,25.2,6.5s12.7-9.7,10.4-12.6c-0.7-0.8-9.1,3-11.5,1.7c-3.7-2-8.3-0.5-11.3-0.1
		s-14.2-6-14.2-6L1122.3,786.7z"/>
	<path class="st36" d="M1129.1,776.1c-31.4-22.2-53.5-33.4-60.4-36.7c1.9-16.4,1.1-42.5-6.1-86.6c0,0-30.5,3.4-33.8,14
		c-4.7,15.4,6.4,58.1,15.5,92.3l0.3,0.2c0.8,1.3,1.8,2.4,2.9,3.4c13,10.4,81.7,30.5,81.7,30.5
		C1134.3,785.9,1129.1,776.1,1129.1,776.1z"/>
	<polygon class="st10" points="1143.1,779.2 1091.5,763.8 1089.9,771.2 1145.1,786.7 	"/>
	<polygon class="st11" points="1169.2,759.3 1143.1,779.2 1145.1,786.7 1175.2,766.3 	"/>
	<polygon class="st35" points="1145.7,788.9 1086.9,771 1087.1,769.5 1145.1,786.7 	"/>
	<polygon class="st35" points="1145.7,788.9 1179,765.8 1177.7,764.4 1145.1,786.7 	"/>
	<path class="st32" d="M1076,661.5c0,0-13.5-14-14.6-13.1c-1.1,0.9-2.5,4-1.8,4.9c0.6,0.9,18.1,10.7,18.1,10.7L1076,661.5z"/>
	<path class="st32" d="M1092.8,660.9c0,0,2.7-14,3.1-13.4c0.4,0.6,4.8,4.4,5,5.4s-5.4,8.8-8,9.4
		C1090.4,662.9,1092.8,660.9,1092.8,660.9z"/>
	<circle class="st40" cx="2219.6" cy="193.9" r="3.3"/>
	<circle class="st40" cx="2219.6" cy="219.4" r="3.3"/>
	<circle class="st40" cx="2249.9" cy="193.9" r="3.3"/>
	<circle class="st40" cx="2249.9" cy="219.4" r="3.3"/>
	<circle class="st40" cx="2280.1" cy="193.9" r="3.3"/>
	<circle class="st40" cx="2280.1" cy="219.4" r="3.3"/>
	<circle class="st40" cx="2310.3" cy="193.9" r="3.3"/>
	<circle class="st40" cx="2310.3" cy="219.4" r="3.3"/>
	<circle class="st40" cx="2156.9" cy="193.9" r="3.3"/>
	<circle class="st40" cx="2156.9" cy="219.4" r="3.3"/>
	<circle class="st40" cx="2189.2" cy="193.9" r="3.3"/>
	<circle class="st40" cx="2189.2" cy="219.4" r="3.3"/>
	<circle class="st40" cx="2219.6" cy="242.1" r="3.3"/>
	<circle class="st40" cx="2219.6" cy="267.5" r="3.3"/>
	<circle class="st40" cx="2249.9" cy="242.1" r="3.3"/>
	<circle class="st40" cx="2249.9" cy="267.5" r="3.3"/>
	<circle class="st40" cx="2280.1" cy="242.1" r="3.3"/>
	<circle class="st40" cx="2280.1" cy="267.5" r="3.3"/>
	<circle class="st40" cx="2310.3" cy="242.1" r="3.3"/>
	<circle class="st40" cx="2310.3" cy="267.5" r="3.3"/>
	<circle class="st40" cx="2156.9" cy="242.1" r="3.3"/>
	<circle class="st40" cx="2156.9" cy="267.5" r="3.3"/>
	<circle class="st40" cx="2189.2" cy="242.1" r="3.3"/>
	<circle class="st40" cx="2189.2" cy="267.5" r="3.3"/>
	<circle class="st40" cx="2877.1" cy="790.2" r="3.3"/>
	<circle class="st40" cx="2877.1" cy="815.7" r="3.3"/>
	<circle class="st40" cx="2814.4" cy="790.2" r="3.3"/>
	<circle class="st40" cx="2814.4" cy="815.7" r="3.3"/>
	<circle class="st40" cx="2846.7" cy="790.2" r="3.3"/>
	<circle class="st40" cx="2846.7" cy="815.7" r="3.3"/>
	<circle class="st40" cx="2877.1" cy="838.4" r="3.3"/>
	<circle class="st40" cx="2877.1" cy="863.8" r="3.3"/>
	<circle class="st40" cx="2814.4" cy="838.4" r="3.3"/>
	<circle class="st40" cx="2814.4" cy="863.8" r="3.3"/>
	<circle class="st40" cx="2846.7" cy="838.4" r="3.3"/>
	<circle class="st40" cx="2846.7" cy="863.8" r="3.3"/>
	<circle class="st40" cx="2877.7" cy="887.3" r="3.3"/>
	<circle class="st40" cx="2877.7" cy="912.8" r="3.3"/>
	<circle class="st40" cx="2815" cy="887.3" r="3.3"/>
	<circle class="st40" cx="2815" cy="912.8" r="3.3"/>
	<circle class="st40" cx="2847.2" cy="887.3" r="3.3"/>
	<circle class="st40" cx="2847.2" cy="912.8" r="3.3"/>
	<circle class="st40" cx="2877.7" cy="935.4" r="3.3"/>
	<circle class="st40" cx="2877.7" cy="960.9" r="3.3"/>
	<circle class="st40" cx="2815" cy="935.4" r="3.3"/>
	<circle class="st40" cx="2815" cy="960.9" r="3.3"/>
	<circle class="st40" cx="2847.2" cy="935.4" r="3.3"/>
	<circle class="st40" cx="2847.2" cy="960.9" r="3.3"/>
	<path class="st40" d="M124,567.5c-2.6,0-4.5,3-2.4,5.8c2.7,2.1,5.8,0.2,5.8-2.4C127.3,568.9,125.8,567.5,124,567.5"/>
	<circle class="st40" cx="124" cy="596.2" r="3.3"/>
	<path class="st40" d="M154.2,567.5c-2.6,0-4.5,3-2.4,5.8c2.7,2.1,5.8,0.2,5.8-2.4C157.5,568.9,156,567.5,154.2,567.5"/>
	<circle class="st40" cx="154.2" cy="596.2" r="3.3"/>
	<path class="st40" d="M184.4,567.5c-2.6,0-4.5,3-2.4,5.8c2.7,2.1,5.8,0.2,5.8-2.4C187.8,568.9,186.3,567.5,184.4,567.5"/>
	<circle class="st40" cx="184.4" cy="596.2" r="3.3"/>
	<circle class="st40" cx="1862.7" cy="490.6" r="3.3"/>
	<circle class="st40" cx="1862.7" cy="516.1" r="3.3"/>
	<circle class="st40" cx="1892.9" cy="490.6" r="3.3"/>
	<circle class="st40" cx="1892.9" cy="516.1" r="3.3"/>
	<circle class="st40" cx="1800" cy="490.6" r="3.3"/>
	<circle class="st40" cx="1800" cy="516.1" r="3.3"/>
	<circle class="st40" cx="1832.2" cy="490.6" r="3.3"/>
	<circle class="st40" cx="1832.2" cy="516.1" r="3.3"/>
	<circle class="st0" cx="1789.8" cy="359.2" r="26.6"/>
	<circle class="st41" cx="1789.8" cy="357.8" r="17.4"/>
	<circle class="st0" cx="108.5" cy="999.1" r="29.5"/>
	<circle class="st41" cx="108.5" cy="999.1" r="17.4"/>
	<circle class="st0" cx="1235.9" cy="219.4" r="7.5"/>
	<circle class="st41" cx="1788.9" cy="359.2" r="17.4"/>
	<circle class="st0" cx="1779.7" cy="352.1" r="5.7"/>
	<circle class="st0" cx="1604.5" cy="245.5" r="11"/>
	<circle class="st0" cx="1995.5" cy="328.2" r="8.1"/>
	<circle class="st42" cx="2881" cy="226.9" r="23.7"/>
	<circle class="st40" cx="1903.3" cy="1335" r="3.3"/>
	<circle class="st40" cx="1903.3" cy="1360.5" r="3.3"/>
	<circle class="st40" cx="1933.5" cy="1335" r="3.3"/>
	<circle class="st40" cx="1933.5" cy="1360.5" r="3.3"/>
	<circle class="st40" cx="1963.8" cy="1335" r="3.3"/>
	<circle class="st40" cx="1963.8" cy="1360.5" r="3.3"/>
	<circle class="st40" cx="1994" cy="1335" r="3.3"/>
	<circle class="st40" cx="1994" cy="1360.5" r="3.3"/>
	<circle class="st40" cx="1840.6" cy="1335" r="3.3"/>
	<circle class="st40" cx="1840.6" cy="1360.5" r="3.3"/>
	<circle class="st40" cx="1872.9" cy="1335" r="3.3"/>
	<circle class="st40" cx="1872.9" cy="1360.5" r="3.3"/>
	<circle class="st40" cx="1903.3" cy="1383.2" r="3.3"/>
	<circle class="st40" cx="1903.3" cy="1408.6" r="3.3"/>
	<circle class="st40" cx="1933.5" cy="1383.2" r="3.3"/>
	<circle class="st40" cx="1933.5" cy="1408.6" r="3.3"/>
	<circle class="st40" cx="1963.8" cy="1383.2" r="3.3"/>
	<circle class="st40" cx="1963.8" cy="1408.6" r="3.3"/>
	<circle class="st40" cx="1994" cy="1383.2" r="3.3"/>
	<circle class="st40" cx="1994" cy="1408.6" r="3.3"/>
	<circle class="st40" cx="1840.6" cy="1383.2" r="3.3"/>
	<circle class="st40" cx="1840.6" cy="1408.6" r="3.3"/>
	<circle class="st40" cx="1872.9" cy="1383.2" r="3.3"/>
	<circle class="st40" cx="1872.9" cy="1408.6" r="3.3"/>
	<circle class="st42" cx="271.2" cy="375.1" r="29.5"/>
	<circle class="st40" cx="320.8" cy="1402.1" r="3.3"/>
	<circle class="st40" cx="351.1" cy="1402.1" r="3.3"/>
	<circle class="st40" cx="381.3" cy="1402.1" r="3.3"/>
	<circle class="st40" cx="320.8" cy="1429.1" r="3.3"/>
	<circle class="st40" cx="351.1" cy="1429.1" r="3.3"/>
	<circle class="st40" cx="381.3" cy="1429.1" r="3.3"/>
	<circle class="st0" cx="648.7" cy="1370.6" r="9.2"/>
	<circle class="st42" cx="1789.1" cy="1408.3" r="16.7"/>
	<circle class="st0" cx="2924.6" cy="1127.6" r="17.2"/>
	<circle class="st0" cx="2872.6" cy="575.8" r="8.4"/>
	<g>
		<path class="st43" d="M2439.6,676v-7.7c-3.9-1.4-6.4-1.8-7.7-4.8v0c-1.3-3,0.2-5.1,2-8.8l-5.4-5.4c-3.7,1.8-5.8,3.3-8.8,2h0
			c-3-1.3-3.4-3.8-4.8-7.7h-7.7c-1.4,3.9-1.8,6.4-4.8,7.7h0c-3,1.3-5.1-0.2-8.8-2l-5.4,5.4c1.8,3.7,3.3,5.8,2,8.8
			c-1.3,3-3.8,3.4-7.7,4.8v7.7c3.9,1.4,6.4,1.8,7.7,4.8c1.3,3.1-0.3,5.2-2,8.8l5.4,5.4c3.7-1.8,5.8-3.3,8.8-2h0
			c3,1.3,3.4,3.8,4.8,7.7h7.7c1.4-3.9,1.8-6.4,4.8-7.7h0c3-1.2,5,0.2,8.8,2l5.4-5.4c-1.8-3.7-3.3-5.8-2-8.8
			C2433.2,677.7,2435.7,677.3,2439.6,676z M2411,681.6c-5.3,0-9.5-4.3-9.5-9.5c0-5.3,4.3-9.5,9.5-9.5c5.3,0,9.5,4.3,9.5,9.5
			C2420.6,677.4,2416.3,681.6,2411,681.6z"/>
	</g>
	<g>
		<path class="st44" d="M1717.1,574.7c7.2-7.3,7-19-0.2-26.2c-7.3-7.2-19-7-26.2,0.2s-7,19,0.2,26.2c7.2,7.1,18.7,7.1,25.9,0
			l20.5,20.5 M1726.4,581.3l13.3,13.3l-3.1,3.1l-13.3-13.3"/>
	</g>
	<g>
		<g>
			<path class="st43" d="M403.2,668c4.2,0,7.6-3.4,7.6-7.6v-23c0-4.2-3.4-7.6-7.6-7.6h-42.1c-4.2,0-7.6,3.4-7.6,7.6v23
				c0,4.2,3.4,7.6,7.6,7.6h5.5v7.9c0,1,0.6,1.8,1.5,2.2c0.3,0.1,0.6,0.2,0.9,0.2c0.6,0,1.2-0.2,1.7-0.7l9.6-9.6H403.2L403.2,668z"/>
			<path class="st43" d="M418.5,649.7h-3.8v10.7c0,6.3-5.1,11.4-11.4,11.4H382l-4.5,4.5c0.5,3.1,3.3,5.5,6.5,5.5h18.5l7.8,7.8
				c0.5,0.5,1.1,0.7,1.7,0.7c0.3,0,0.6-0.1,0.9-0.2c0.9-0.4,1.5-1.2,1.5-2.2v-6.1h4.1c3.7,0,6.6-3,6.6-6.6v-18.8
				C425.1,652.7,422.1,649.7,418.5,649.7z"/>
		</g>
		<g>
		</g>
		<g>
		</g>
		<g>
		</g>
		<g>
		</g>
		<g>
		</g>
		<g>
		</g>
		<g>
		</g>
		<g>
		</g>
		<g>
		</g>
		<g>
		</g>
		<g>
		</g>
		<g>
		</g>
		<g>
		</g>
		<g>
		</g>
		<g>
		</g>
	</g>
</g>
<g id="Camada_2">
	<line class="st45" x1="145.2" y1="256.7" x2="151.3" y2="260.9"/>
	<line class="st45" x1="114.5" y1="235.4" x2="154.9" y2="263.5"/>
	<line class="st45" x1="119" y1="269.9" x2="147.1" y2="229.4"/>
	<line class="st46" x1="2684.9" y1="450.5" x2="2687.1" y2="456"/>
	<line class="st46" x1="2673.8" y1="423" x2="2688.5" y2="459.3"/>
	<line class="st46" x1="2661.1" y1="447.7" x2="2698.7" y2="433.5"/>
	<line class="st47" x1="1050.4" y1="1429.4" x2="1051.1" y2="1436.8"/>
	<line class="st47" x1="1047" y1="1392.7" x2="1051.5" y2="1441.1"/>
	<line class="st47" x1="1023.8" y1="1418.1" x2="1072.2" y2="1413.6"/>
</g>
</svg>
