<svg id="Camada_2" data-name="Camada 2" xmlns="http://www.w3.org/2000/svg" viewBox="0 0 2624.3 1250.9"><defs><style>.cls-1,.cls-2,.cls-3,.cls-9{fill:none;stroke:#87825d;}.cls-1,.cls-2,.cls-3{stroke-miterlimit:10;}.cls-1{stroke-width:16px;}.cls-2{stroke-width:7px;}.cls-3,.cls-9{stroke-width:8px;}.cls-4{fill:#fffcbb;}.cls-5,.cls-7{fill:#fff;}.cls-6{fill:#fce900;}.cls-7{opacity:0.5;}.cls-8{fill:#87825d;}.cls-9{stroke-linecap:round;}</style></defs><title>bg</title><line class="cls-1" x1="215.1" y1="157.1" x2="221.2" y2="161.3"/><line class="cls-1" x1="184.4" y1="135.8" x2="224.9" y2="163.9"/><line class="cls-1" x1="189" y1="170.3" x2="217" y2="129.8"/><line class="cls-2" x1="2367.4" y1="259.9" x2="2369.6" y2="265.4"/><line class="cls-2" x1="2356.2" y1="232.4" x2="2371" y2="268.7"/><line class="cls-2" x1="2343.6" y1="257.1" x2="2381.2" y2="242.9"/><line class="cls-3" x1="732.9" y1="1238.8" x2="733.6" y2="1246.1"/><line class="cls-3" x1="729.5" y1="1202.1" x2="734" y2="1250.5"/><line class="cls-3" x1="706.3" y1="1227.5" x2="754.7" y2="1223"/><circle class="cls-4" cx="1902.1" cy="3.3" r="3.3"/><circle class="cls-4" cx="1902.1" cy="28.8" r="3.3"/><circle class="cls-4" cx="1932.3" cy="3.3" r="3.3"/><circle class="cls-4" cx="1932.3" cy="28.8" r="3.3"/><circle class="cls-4" cx="1962.6" cy="3.3" r="3.3"/><circle class="cls-4" cx="1962.6" cy="28.8" r="3.3"/><circle class="cls-4" cx="1992.8" cy="3.3" r="3.3"/><circle class="cls-4" cx="1992.8" cy="28.8" r="3.3"/><circle class="cls-4" cx="1839.4" cy="3.3" r="3.3"/><circle class="cls-4" cx="1839.4" cy="28.8" r="3.3"/><circle class="cls-4" cx="1871.6" cy="3.3" r="3.3"/><circle class="cls-4" cx="1871.6" cy="28.8" r="3.3"/><circle class="cls-4" cx="1902.1" cy="51.5" r="3.3"/><circle class="cls-4" cx="1902.1" cy="76.9" r="3.3"/><circle class="cls-4" cx="1932.3" cy="51.5" r="3.3"/><circle class="cls-4" cx="1932.3" cy="76.9" r="3.3"/><circle class="cls-4" cx="1962.6" cy="51.5" r="3.3"/><circle class="cls-4" cx="1962.6" cy="76.9" r="3.3"/><circle class="cls-4" cx="1992.8" cy="51.5" r="3.3"/><circle class="cls-4" cx="1992.8" cy="76.9" r="3.3"/><circle class="cls-4" cx="1839.4" cy="51.5" r="3.3"/><circle class="cls-4" cx="1839.4" cy="76.9" r="3.3"/><circle class="cls-4" cx="1871.6" cy="51.5" r="3.3"/><circle class="cls-4" cx="1871.6" cy="76.9" r="3.3"/><circle class="cls-4" cx="2559.6" cy="599.6" r="3.3"/><circle class="cls-4" cx="2559.6" cy="625.1" r="3.3"/><circle class="cls-4" cx="2496.9" cy="599.6" r="3.3"/><circle class="cls-4" cx="2496.9" cy="625.1" r="3.3"/><circle class="cls-4" cx="2529.1" cy="599.6" r="3.3"/><circle class="cls-4" cx="2529.1" cy="625.1" r="3.3"/><circle class="cls-4" cx="2559.6" cy="647.8" r="3.3"/><circle class="cls-4" cx="2559.6" cy="673.2" r="3.3"/><circle class="cls-4" cx="2496.9" cy="647.8" r="3.3"/><circle class="cls-4" cx="2496.9" cy="673.2" r="3.3"/><circle class="cls-4" cx="2529.1" cy="647.8" r="3.3"/><circle class="cls-4" cx="2529.1" cy="673.2" r="3.3"/><circle class="cls-4" cx="2560.2" cy="696.7" r="3.3"/><circle class="cls-4" cx="2560.2" cy="722.2" r="3.3"/><circle class="cls-4" cx="2497.5" cy="696.7" r="3.3"/><circle class="cls-4" cx="2497.5" cy="722.2" r="3.3"/><circle class="cls-4" cx="2529.7" cy="696.7" r="3.3"/><circle class="cls-4" cx="2529.7" cy="722.2" r="3.3"/><circle class="cls-4" cx="2560.2" cy="744.8" r="3.3"/><circle class="cls-4" cx="2560.2" cy="770.3" r="3.3"/><circle class="cls-4" cx="2497.5" cy="744.8" r="3.3"/><circle class="cls-4" cx="2497.5" cy="770.3" r="3.3"/><circle class="cls-4" cx="2529.7" cy="744.8" r="3.3"/><circle class="cls-4" cx="2529.7" cy="770.3" r="3.3"/><path class="cls-4" d="M398.4,588.9c-2.6,0-4.5,3.1-2.4,5.8s5.7.2,5.7-2.4a3.4,3.4,0,0,0-3.3-3.4" transform="translate(-204.5 -121.1)"/><circle class="cls-4" cx="193.9" cy="496.6" r="3.3"/><path class="cls-4" d="M428.6,588.9c-2.6,0-4.5,3.1-2.4,5.8s5.8.2,5.8-2.4a3.4,3.4,0,0,0-3.4-3.4" transform="translate(-204.5 -121.1)"/><circle class="cls-4" cx="224.2" cy="496.6" r="3.3"/><path class="cls-4" d="M458.9,588.9a3.5,3.5,0,0,0-2.5,5.8c2.8,2.1,5.8.2,5.8-2.4a3.4,3.4,0,0,0-3.3-3.4" transform="translate(-204.5 -121.1)"/><circle class="cls-4" cx="254.4" cy="496.6" r="3.3"/><circle class="cls-4" cx="1545.2" cy="300" r="3.3"/><circle class="cls-4" cx="1545.2" cy="325.5" r="3.3"/><circle class="cls-4" cx="1575.4" cy="300" r="3.3"/><circle class="cls-4" cx="1575.4" cy="325.5" r="3.3"/><circle class="cls-4" cx="1482.5" cy="300" r="3.3"/><circle class="cls-4" cx="1482.5" cy="325.5" r="3.3"/><circle class="cls-4" cx="1514.7" cy="300" r="3.3"/><circle class="cls-4" cx="1514.7" cy="325.5" r="3.3"/><circle class="cls-5" cx="1472.3" cy="168.6" r="26.6"/><circle class="cls-6" cx="1472.3" cy="167.1" r="17.4"/><circle class="cls-5" cx="178.4" cy="899.5" r="29.5"/><circle class="cls-6" cx="178.4" cy="899.5" r="17.4"/><circle class="cls-5" cx="918.4" cy="28.8" r="7.5"/><circle class="cls-6" cx="1471.4" cy="168.6" r="17.4"/><circle class="cls-5" cx="1462.1" cy="161.5" r="5.7"/><circle class="cls-5" cx="1287" cy="54.9" r="11"/><circle class="cls-5" cx="1678" cy="137.6" r="8.1"/><circle class="cls-7" cx="2563.5" cy="36.3" r="23.7"/><circle class="cls-4" cx="1585.8" cy="1144.4" r="3.3"/><circle class="cls-4" cx="1585.8" cy="1169.9" r="3.3"/><circle class="cls-4" cx="1616" cy="1144.4" r="3.3"/><circle class="cls-4" cx="1616" cy="1169.9" r="3.3"/><circle class="cls-4" cx="1646.3" cy="1144.4" r="3.3"/><circle class="cls-4" cx="1646.3" cy="1169.9" r="3.3"/><circle class="cls-4" cx="1676.5" cy="1144.4" r="3.3"/><circle class="cls-4" cx="1676.5" cy="1169.9" r="3.3"/><circle class="cls-4" cx="1523.1" cy="1144.4" r="3.3"/><circle class="cls-4" cx="1523.1" cy="1169.9" r="3.3"/><circle class="cls-4" cx="1555.3" cy="1144.4" r="3.3"/><circle class="cls-4" cx="1555.3" cy="1169.9" r="3.3"/><circle class="cls-4" cx="1585.8" cy="1192.6" r="3.3"/><circle class="cls-4" cx="1585.8" cy="1218" r="3.3"/><circle class="cls-4" cx="1616" cy="1192.6" r="3.3"/><circle class="cls-4" cx="1616" cy="1218" r="3.3"/><circle class="cls-4" cx="1646.3" cy="1192.6" r="3.3"/><circle class="cls-4" cx="1646.3" cy="1218" r="3.3"/><circle class="cls-4" cx="1676.5" cy="1192.6" r="3.3"/><circle class="cls-4" cx="1676.5" cy="1218" r="3.3"/><circle class="cls-4" cx="1523.1" cy="1192.6" r="3.3"/><circle class="cls-4" cx="1523.1" cy="1218" r="3.3"/><circle class="cls-4" cx="1555.3" cy="1192.6" r="3.3"/><circle class="cls-4" cx="1555.3" cy="1218" r="3.3"/><circle class="cls-7" cx="341.2" cy="275.5" r="29.5"/><circle class="cls-4" cx="3.3" cy="1211.5" r="3.3"/><circle class="cls-4" cx="33.6" cy="1211.5" r="3.3"/><circle class="cls-4" cx="63.8" cy="1211.5" r="3.3"/><circle class="cls-4" cx="3.3" cy="1238.5" r="3.3"/><circle class="cls-4" cx="33.6" cy="1238.5" r="3.3"/><circle class="cls-4" cx="63.8" cy="1238.5" r="3.3"/><circle class="cls-5" cx="331.2" cy="1180" r="9.2"/><circle class="cls-7" cx="1471.6" cy="1217.7" r="16.7"/><circle class="cls-5" cx="2607.1" cy="937" r="17.2"/><circle class="cls-5" cx="2555.1" cy="385.2" r="8.4"/><path class="cls-8" d="M2326.6,606.5v-7.7c-4-1.4-6.5-1.8-7.7-4.8h0c-1.3-3.1.2-5.1,2-8.9l-5.4-5.4c-3.7,1.8-5.8,3.3-8.8,2h0c-3.1-1.2-3.5-3.7-4.9-7.6h-7.6c-1.4,3.9-1.8,6.4-4.8,7.6h0c-3.1,1.3-5.1-.2-8.9-2l-5.4,5.4c1.8,3.8,3.3,5.8,2,8.9s-3.8,3.4-7.7,4.8v7.7c3.9,1.3,6.5,1.7,7.7,4.8s-.3,5.1-2,8.8l5.4,5.4c3.7-1.7,5.8-3.2,8.9-2h0c3,1.3,3.4,3.8,4.8,7.7h7.6c1.4-3.9,1.8-6.4,4.9-7.7h0c3-1.2,5,.2,8.8,2l5.4-5.4c-1.8-3.7-3.3-5.8-2-8.8S2322.7,607.8,2326.6,606.5Zm-28.6,5.6a9.5,9.5,0,1,1,9.5-9.5A9.4,9.4,0,0,1,2298,612.1Z" transform="translate(-204.5 -121.1)"/><path class="cls-9" d="M2467.7,1226a18.5,18.5,0,1,0-26.4-25.9,18.5,18.5,0,0,0,26.1,26.1l20.6,20.6m-11-14.2,13.3,13.3-3.2,3.2-13.3-13.3" transform="translate(-204.5 -121.1)"/><path class="cls-8" d="M677.7,689.5a7.6,7.6,0,0,0,7.5-7.6v-23a7.6,7.6,0,0,0-7.5-7.6H635.6a7.6,7.6,0,0,0-7.6,7.6v23a7.6,7.6,0,0,0,7.6,7.6h5.5v7.9a2.3,2.3,0,0,0,1.5,2.2,1.5,1.5,0,0,0,.9.2,2.3,2.3,0,0,0,1.7-.7l9.6-9.6Z" transform="translate(-204.5 -121.1)"/><path class="cls-8" d="M692.9,671.2h-3.8v10.7a11.5,11.5,0,0,1-11.4,11.4H656.4l-4.4,4.5a6.6,6.6,0,0,0,6.5,5.5H677l7.7,7.7a2.3,2.3,0,0,0,1.7.7h.9a2.5,2.5,0,0,0,1.5-2.2v-6.1h4.1a6.7,6.7,0,0,0,6.7-6.7V677.8A6.7,6.7,0,0,0,692.9,671.2Z" transform="translate(-204.5 -121.1)"/></svg>