<?xml version="1.0" encoding="utf-8"?>
<!-- Generator: Adobe Illustrator 23.0.2, SVG Export Plug-In . SVG Version: 6.00 Build 0)  -->
<svg version="1.1" id="Camada_1" xmlns="http://www.w3.org/2000/svg" xmlns:xlink="http://www.w3.org/1999/xlink" x="0px" y="0px"
	 viewBox="0 0 2895 1284.6" style="enable-background:new 0 0 2895 1284.6;" xml:space="preserve">
<style type="text/css">
	.st0{fill:#FFFFFF;}
	.st1{fill:#ED985F;}
	.st2{fill:#233862;}
	.st3{fill:#FFB27D;}
	.st4{fill:#B5453C;}
	.st5{fill:#DD6D22;}
	.st6{fill:#9E332E;}
	.st7{fill:#ED7D2B;}
	.st8{fill:#F99746;}
	.st9{fill:#ADCBF9;}
	.st10{fill:#FCECDB;}
	.st11{fill:#F4D2B8;}
	.st12{fill:#86D1CD;}
	.st13{fill:#D86713;}
	.st14{fill:#EE9849;}
	.st15{fill:#F1A34F;}
	.st16{fill:#E78B37;}
	.st17{fill:#699DEE;}
	.st18{fill:#E9F3FE;}
	.st19{fill:#AFCDFB;}
	.st20{opacity:0.6;fill:#AFCDFB;enable-background:new    ;}
	.st21{fill:#9E3732;}
	.st22{fill:#E49963;}
	.st23{fill:#163560;}
	.st24{fill:#599DAD;}
	.st25{fill:#6BB7BF;}
	.st26{fill:#5AA9AD;}
	.st27{fill:#D68D5D;}
	.st28{fill:#4A75CB;}
	.st29{fill:#2B478B;}
	.st30{fill:#F4A269;}
	.st31{fill:#C65447;}
	.st32{fill:#1C468A;}
	.st33{fill:#2E3552;}
	.st34{fill:none;}
	.st35{fill:#2C3A64;}
	.st36{fill:#BC3F3F;}
	.st37{fill:#A02E2E;}
	.st38{fill:#E8945B;}
	.st39{fill:#D35C2B;}
	.st40{fill:#FFFCBB;}
	.st41{fill:#FCE900;}
	.st42{opacity:0.5;fill:#FFFFFF;enable-background:new    ;}
	.st43{fill:#87825D;}
	.st44{fill:none;stroke:#87825D;stroke-width:8;stroke-linecap:round;}
	.st45{fill:none;stroke:#87825D;stroke-width:16;stroke-miterlimit:10;}
	.st46{fill:none;stroke:#87825D;stroke-width:7;stroke-miterlimit:10;}
	.st47{fill:none;stroke:#87825D;stroke-width:8;stroke-miterlimit:10;}
</style>
<g id="Слой_2">
	<title>5514</title>
	<path class="st0" d="M2488,1124.3c0,0,297.9-311.5,50.3-648.9c-219.6-299.3-475.7-278.8-663.5-157.3
		c-80,51.7-369.6,286.7-565.9-17.8C1041.2-115,172-143.5,341.2,495.4c81.9,309.2-327.8,320.4-159.1,629.5L2488,1124.3z"/>
	<g id="girl_2">
		<path class="st1" d="M506.2,705.1c0,0-83.6,36.4-98.8,35.8s-108.7-28.5-108.7-28.5l2.4,16.1c0,0,72.2,41.5,97.4,43.9
			c24.8,2.3,109.8-22.3,118-27.5S530,710.3,506.2,705.1z"/>
		<path class="st2" d="M518.7,571.1c0,0,30.8-5.8,46.2,5.4c27.8,20.3,29.3,90.4,39.7,100.8s35.6,6,37.8,60s-10,58.5,4.6,82.6
			s-6.2,48.2-6.2,48.2s8.5-13.3,4.9-22.9c0,0-3.5,21.2-17,26.2c-13.5,5-15.5,8.6-17.6,15.9c0,0-114.9-58.9-115-100.6
			s-22.6-83.1-11.6-101.2c0,0-4.9,7.7-5.5,16.3c0,0-6.6-12.7,4.9-24.5s-13.5-36.3-9.8-64.6C476.7,593.2,490.4,571.9,518.7,571.1z"/>
		<path class="st3" d="M496,744.8c8.5,5.8,18.1,9.8,28.1,12c43.3,10,59.9-26.6,66.2-51.7c-4.5-2.5-9.5-4-14.7-4.5
			c-3.1-0.4-6.4-0.6-9.2-0.8c-4.9-3.7-12.1-19-13.7-42.7l-2,0.5l-34.1,9.4c0,0,1.6,10.9,2.3,21.1c0.6,8,0.7,15.7-0.8,17.6
			c-2.7,0.6-4.3,1-4.3,1l0,0C506.7,718.8,500.7,731.6,496,744.8z"/>
		<path class="st1" d="M516.6,667c0,0,1.6,10.8,2.3,21.1c19.3-1.9,28.3-20.3,31.8-30.5L516.6,667z"/>
		<path class="st3" d="M510.8,677.2c0,0,45.9-2.5,43.9-31.1s2.5-48.1-26.8-47.7s-34.3,11.7-36,21.4S498.8,677.1,510.8,677.2z"/>
		<path class="st2" d="M492.1,603.8c6.5-9.1,12-7.6,15.1-5.2c24.1-15.6,41.7,3.6,41.7,3.6c2.9,12.4,10,23.3,20.2,31
			c0,0-8,5.8-27.6,2.2c-6-1.1-11.5-4.9-16.4-9.7c5.7,7.9,12.4,15.1,20,21.2c-23.8-9-35.3-40.3-36.5-43.7c-2.6,2.7-7.8,8.6-9,14
			c-1.8,7.4-9.4,19.1-13.8,18.9C485.8,636.1,482.4,617.4,492.1,603.8z"/>
		<path class="st4" d="M603.4,838.1c4.1-21.2,17.7-105.9,4.1-133.1c-4.8-9.8-23.9-10.7-44.8-9.8c-6.5,4.2-31.3,20.1-41.5,18.1
			l-0.6-0.1c-4.8-1.2-6.6-4.6-2.6-7.5c-7.8-0.5-15.6-0.1-23.2,1.4c-7.3,1.4-26.8,11.5-26.8,11.5s9.9,17.8,24.4,24
			c-2.5,22.1,1.2,31.9,24.2,83c19.4,43.2-2.6,82.1-2.6,82.1s114.1,91.8,114.8,45C629.2,917.5,598.1,865.2,603.4,838.1z"/>
		<path class="st5" d="M508.3,1007.4c-6.2-0.7-11.8-4.1-15.3-9.3l-1.7-2.7c-13-19.7-18-79.9-47.3-144.1
			c-7.2-15.6-32.7-18.4-39.7-36.1c0,0-17.1-57.3,32.8-58.9S571,915.6,572.3,932.5C573.6,948.9,605.4,1018.4,508.3,1007.4z"/>
		<path class="st6" d="M309.6,1006.1h71.1c0,0,2.7-11.3-2-19.1c-4.1-6.8-2.5-10.7,0.5-16.4c-3.8,1.6-7.9,2.4-12,2.3
			c-3.5-0.2-7.3-1.8-10.6-3.7c-3.1,3.5-16.2,18.3-20.3,21.3C331.8,993.8,311.1,992.6,309.6,1006.1z"/>
		<path class="st6" d="M595.9,727.2c0,0,9.3,84.2-50.8,101.9s-77.1-77.5-28.6-84.3C565,737.9,595.9,727.2,595.9,727.2z"/>
		<path class="st7" d="M402.7,772.9c-4.3,32.1-21,133.5-50.5,182.9c-9.5,15.9,24,24.9,24.1,24.8c4.5-1.2,12-8.3,15.4-11.4
			c24-21.6,72.6-82.7,72.6-131.7c0-23.9,0.4-69.5-17-81.1C436.7,749.2,404.4,760.1,402.7,772.9z"/>
		<path class="st8" d="M550.7,1006.1c0,0-2.6-3.7-7.2-10.6c-5.5-8.3-11.5-24.6-18.9-45.5c-7.7-21.9-16.9-48.9-28.3-77
			c-3.5-8.7-7.3-17.5-11.3-26.2c-7.1-15.6-26.7-13.5-33.7-31.1c0,0-27.2-61.2,22.8-62.9S619,916.6,624.5,932.6
			C630.5,950.1,659.7,1022.9,550.7,1006.1z"/>
		<path class="st4" d="M361.9,1006.1H433c0,0,2.7-11.3-2-19.1c-4.1-6.8-2.5-10.7,0.5-16.4c-3.8,1.6-7.9,2.4-12,2.3
			c-3.5-0.2-7.3-1.8-10.6-3.7c-3.1,3.5-16.2,18.3-20.3,21.3C384,993.8,363.3,992.6,361.9,1006.1z"/>
		<path class="st7" d="M524.6,950c-7.7-21.9-16.9-48.9-28.3-77c3-21.3,9.4-39.9,20.3-47.4C516.6,825.5,542.9,907,524.6,950z"/>
		<path class="st8" d="M444.2,770.6c-4.3,32.1-10.3,135.8-39.8,185.2c-9.5,15.9,24,24.9,24.1,24.8c4.5-1.2,12-8.3,15.4-11.4
			c23.9-21.6,72.6-82.7,72.6-131.7c0-23.9-28-67.6-45.4-79.2C460.4,751.1,445.9,757.9,444.2,770.6z"/>
		<path class="st6" d="M290.3,670.9l72.9-7.7c2.1-0.2,4.1,1,4.9,3l26.1,68.5c0.9,2.4-0.3,5.1-2.7,6.1c-0.5,0.2-1,0.3-1.5,0.3
			l-72.3,2.9c-2,0.1-3.8-1.1-4.5-2.9l-26.7-63.7c-1-2.4,0.1-5.1,2.5-6.2C289.4,671.1,289.8,671,290.3,670.9z"/>
		<path class="st4" d="M283.9,671.6l72.9-7.7c2.1-0.2,4.1,1,4.9,3l26.1,68.5c0.9,2.4-0.3,5.1-2.7,6.1l0,0c-0.5,0.2-1,0.3-1.5,0.3
			l-72.4,2.8c-2,0.1-3.8-1.1-4.5-2.9L280.1,678c-1-2.4,0.1-5.1,2.5-6.1l0,0C283,671.7,283.5,671.6,283.9,671.6z"/>
		<path class="st6" d="M324.3,703.5c-0.9-2.5,0.4-4.4,2.8-4.4c2.7,0.2,5,1.9,6,4.4c0.9,2.4-0.4,4.4-2.8,4.4
			C327.6,707.8,325.3,706.1,324.3,703.5z"/>
		<path class="st6" d="M286.1,678.1c-0.4-0.7-0.1-1.6,0.6-2l0,0c0.2-0.1,0.5-0.2,0.8-0.2c1.3,0.1,2.5,0.9,3,2.2
			c0.4,0.7,0.1,1.6-0.6,2c-0.2,0.1-0.5,0.2-0.8,0.2C287.8,680.2,286.6,679.3,286.1,678.1z"/>
		<path class="st3" d="M590.3,705.1c0,0-100.9,37.2-116.1,36.4c-9.8-0.5-91.3-29.1-91.3-29.1s-6-9.3-12.6-11.2
			c0,0-11.6-5.3-14.9-6.3s-2.6,0-1.6,3.2c0.5,1.6,2.4,3.2,4,4.5c-5.6,1.5-11.1,3.6-13.6,4.1c-4.3,0.8-16.5,4.8-12.9,10.8
			s20.5,7.3,27.8,6s16.5,2.9,16.5,2.9s79.3,51,101.1,50.7c43-0.5,115.7-26.9,123.9-32.1S614.1,710.3,590.3,705.1z"/>
		<path class="st3" d="M291.4,706.3c0,0,7.3-11.6,9.7-12c7.3-1.4,7.3,8.2,5.7,14.3c-1.6,6.6-7.3,12.9-8.8,12.4
			S289.7,712.4,291.4,706.3z"/>
		<path class="st3" d="M291.2,708.6c0,0-2.3,13,10,19.7L291.2,708.6z"/>
		<path class="st0" d="M502.2,660.8c0,0,4.3-1.7,16.5-0.7c0,0-0.6,4.8-9.6,5.2C504,665.5,502.2,660.8,502.2,660.8z"/>
		<path class="st4" d="M538.3,723.4c0,0,9,28.6,40,35.1c0,0,51.2-15.8,25.7-50.7C604,707.8,578.8,689.1,538.3,723.4z"/>
	</g>
	<path class="st9" d="M513.8,352.9c0-2.9,0.1-5.8,0.1-8.7c0.8-21.4,4.5-42.7,10.9-63.1c-5.4,0.2-10.6,0.5-15.6,0.8
		c-5.1,17.4-8.3,35.3-9.5,53.4c-0.4,5.4-0.6,10.8-0.6,16.2v1.4c0,5.5,0.2,10.9,0.5,16.3c4.9,2.3,10,4.5,15.3,6.7
		c-0.5-5.1-0.9-10.3-1-15.5C513.9,357.9,513.8,355.4,513.8,352.9z M984.9,254.5C930.5,126,782.2,65.7,653.5,119.9
		c-3.7,1.6-7.4,3.3-11,5c-6,2.9-11.9,6-17.5,9.3c-18.9,11-36.4,24.4-51.8,39.9c-3.3,3.2-6.4,6.6-9.5,10c-3.8,4.2-7.5,8.7-11,13.1
		c-5.6,7.2-10.8,14.7-15.7,22.4c-2.7,4.3-5.2,8.7-7.6,13.1c-3.8,7-7.2,14.2-10.3,21.6c-2.4,5.6-4.5,11.2-6.4,16.9
		c-1.2,3.5-2.3,6.9-3.3,10.5c-5.1,17.4-8.3,35.3-9.5,53.4c-0.4,5.4-0.6,10.8-0.6,16.2v1.4c0,5.5,0.2,10.9,0.5,16.3
		c0.3,4.4,0.7,8.8,1.2,13.3c2.7,23.7,8.8,46.9,18.2,68.8C573.6,579.8,721.9,640,850.6,585.6c59.8-25.3,107.6-72.6,133.5-132.1
		c0.3-0.8,0.7-1.6,1-2.4c1.4-3.3,2.8-6.7,4-10C1011.5,380.8,1010.1,314,984.9,254.5L984.9,254.5z M971.6,445.3
		c-0.1,0.1-0.1,0.2-0.1,0.3c-1.6,3.7-3.3,7.4-5.1,11.1c-57.5,118.4-200.1,167.9-318.5,110.4C596,541.9,555,498.8,532.5,445.6
		c-7.7-18.2-13-37.2-15.9-56.7c-0.7-4.3-1.2-8.6-1.6-13c-0.5-5.1-0.9-10.3-1-15.5c-0.1-2.5-0.1-4.9-0.1-7.5c0-2.9,0.1-5.8,0.1-8.7
		c0.8-21.4,4.5-42.7,10.9-63.2c1.1-3.5,2.2-6.9,3.5-10.3s2.6-7.1,4.1-10.5c2.1-4.9,4.3-9.7,6.7-14.4c2.3-4.5,4.6-8.9,7.1-13.2
		c7-11.9,15-23.3,24-33.8c3.7-4.4,7.6-8.6,11.6-12.7l1.7-1.7c18-18,38.7-33,61.4-44.4c4.7-2.4,9.4-4.6,14.3-6.6
		c1.3-0.6,2.6-1.1,3.9-1.6c122.2-49,260.9,10.4,309.9,132.6C996.4,322.6,995.8,387.5,971.6,445.3L971.6,445.3z"/>
	<path class="st9" d="M1032,403.9l-19.6-0.5c6.3,8.1,7.7,15.7,3.8,22c-3.9,6.3-13.3,11.8-27.3,15.9c-5.7,1.7-11.5,3-17.3,4
		c-17.1,3.1-38.5,4.9-63.5,5.1c-63.2,0.8-141.6-7.8-220.8-24.1c-53.3-10.9-102.6-24.5-143.9-39.4c-6.3-2.3-12.4-4.6-18.2-6.9
		c-3.5-1.3-6.9-2.8-10.2-4.2c-5.3-2.2-10.4-4.4-15.3-6.7c-3.5-1.5-6.8-3.2-10.1-4.8c-45.5-22.2-66.3-43.7-57-58.9
		c7.5-12.3,34.9-20.7,76.7-23.8c5-0.3,10.2-0.6,15.6-0.8c1.1-3.5,2.2-6.9,3.5-10.3c-5.5,0.1-10.7,0.4-15.8,0.6
		c-52.8,3.1-81,12.4-91.3,29.2c-11.9,19.6,4.4,45.9,56.5,71.4c7.2,3.5,14.9,7,23,10.5c5.1,2.1,10.3,4.2,15.7,6.4l7.5,2.9
		c6.2,2.3,12.5,4.6,18.9,6.9c40.6,14.1,87.8,26.8,138.5,37.2c70.9,14.5,141.4,23.1,201.7,24.5c8.9,0.3,17.5,0.3,25.8,0.2
		c19.2-0.1,38.4-1.4,57.4-3.8c6.2-0.8,12.1-1.9,17.5-3c25.7-5.3,42.7-13.7,49.4-24.7C1038,421.4,1037.4,412.9,1032,403.9z"/>
	<path class="st9" d="M923.9,397.6c-0.3,0.5-0.5,0.9-0.8,1.4c-7.7,12.3-25,18.6-49.3,18.6c-13.2-0.2-26.4-1.6-39.4-4.4
		c-47.8-9.7-104.3-34-159.1-68.6c-53.9-33.9-99.6-73.6-129-111.9c-0.5-0.7-1-1.3-1.5-2c-2.8-3.7-5.4-7.4-7.8-11
		c-21.5-31.9-27.9-58.9-17.6-75.2c7.8-12.3,25-18.6,49.3-18.6c13.2,0.2,26.4,1.6,39.4,4.4c5.5,1.1,11.2,2.4,16.9,3.9
		c6.5,1.7,13.2,3.7,20,5.9c4.7-2.4,9.5-4.6,14.4-6.6c1.3-0.6,2.6-1.1,3.9-1.6c-7-2.5-13.9-4.8-20.7-6.9c-10.9-3.3-21.5-6-31.7-8.1
		c-51.6-10.5-88.2-3.2-103.1,20.4c-14.2,22.5-6.5,56.3,21.7,95.7c1.4,2,2.9,4,4.5,6.1c1.7,2.3,3.5,4.6,5.3,6.9
		c30.5,38.1,75.9,77,128.8,110.4c56.1,35.2,114.3,60.2,163.7,70.3c13.8,3,27.9,4.5,42.1,4.7c29.5,0,50.6-8.5,61-25
		c1.7-2.7,3.1-5.6,4.2-8.7L923.9,397.6z"/>
	<path class="st9" d="M662.7,584.7c-2.9,0-5.8-0.5-8.6-1.5c-43.4-15.7-23.3-144.1,17.6-256.8c37.9-104.3,99-209.8,142.6-209.8
		c2.9,0,5.8,0.5,8.6,1.5c24.7,9,26.2,53.2,23.1,88.7c-4.1,47.5-18.6,107.2-40.7,168.1C767.5,479.1,706.4,584.7,662.7,584.7z
		 M814.3,130c-27.5,0-84.9,76.9-130,201c-21.7,59.9-35.9,118.4-39.9,164.8c-4.3,49.8,4.6,71.4,14.3,74.9c1.3,0.5,2.6,0.7,4,0.7
		c27.4,0,84.9-76.9,130-201c21.7-59.9,35.9-118.4,39.9-164.7c4.3-49.8-4.6-71.4-14.3-74.9C817,130.2,815.7,130,814.3,130z"/>
	<path class="st9" d="M921.5,307c-48.3,0-92.5-4.6-131.9-13.7c-47.1-11-87.7-28.4-120.5-51.9c-56.4-40.4-70.3-84.4-70.9-86.3
		l12.8-3.9c0.1,0.4,13.5,42.2,66.8,79.9c49.5,35.1,144.4,73.9,315.7,59.3l1.1,13.4C969.4,305.9,945,307,921.5,307z"/>
	<path class="st9" d="M874,570.1c-93.7-69.8-186.2-101-247.3-114.9c-66.1-15-110.3-13.6-110.7-13.6l-0.5-13.4
		c1.9-0.1,46.4-1.5,114.2,13.9c62.4,14.2,156.8,46,252.4,117.2L874,570.1z"/>
	<path class="st8" d="M2653.4,1067.5c0,29.2-23.7,52.9-52.9,52.9h-430.7v-102.5h433.9C2631.1,1017.9,2653.3,1040,2653.4,1067.5
		C2653.4,1067.4,2653.4,1067.4,2653.4,1067.5z"/>
	<path class="st10" d="M2249.8,1068.5c0,13.7-5.4,26.8-15,36.5l-0.2,0.2c-9.7,9.7-22.9,15.2-36.6,15.2h-489.4v-102.5h490.5
		C2227.1,1017.8,2249.8,1040.5,2249.8,1068.5z"/>
	<path class="st7" d="M2290.5,1112.7c0,4.2-3.4,7.7-7.6,7.7h-591.7c-4.2,0-7.7-3.4-7.7-7.7s3.4-7.7,7.7-7.7l0,0h591.7
		C2287.1,1105,2290.5,1108.4,2290.5,1112.7L2290.5,1112.7z"/>
	<path class="st7" d="M2290.5,1025.5c0,4.2-3.4,7.7-7.6,7.7h-591.7c-4.2,0-7.7-3.4-7.7-7.7s3.4-7.7,7.7-7.7h591.7
		C2287.1,1017.8,2290.5,1021.3,2290.5,1025.5z"/>
	<polygon class="st11" points="1708.6,1069.1 1774.2,1070.8 1708.6,1071.8 	"/>
	<polygon class="st11" points="1708.6,1085.2 1864.7,1086.9 1708.6,1087.9 	"/>
	<path class="st7" d="M2611.8,1018.4l-141.6,101.9h-300.3v-102.5h433.9C2606.5,1017.8,2609.2,1018,2611.8,1018.4z"/>
	<path class="st12" d="M621.7,999.8h299.5c27.4,0,49.6,22.2,49.6,49.6v18.1c0,29.2-23.6,52.8-52.8,52.8H621.7V999.8z"/>
	<path class="st10" d="M288.8,999.8h342.4c26.6,0,48.2,21.6,48.2,48.2v23.1c0,27.2-22.1,49.3-49.3,49.3l0,0H288.8V999.8z"/>
	<path class="st12" d="M278.4,1102.3h422.8c4.2,0,7.7,3.4,7.7,7.7v2.7c0,4.2-3.4,7.7-7.7,7.7H278.4c-4.2,0-7.7-3.4-7.7-7.7v-2.7
		C270.7,1105.7,274.1,1102.3,278.4,1102.3z"/>
	<path class="st12" d="M278.4,999.8h422.8c4.2,0,7.7,3.4,7.7,7.7v2.7c0,4.2-3.4,7.7-7.7,7.7H278.4c-4.2,0-7.7-3.4-7.7-7.7v-2.7
		C270.7,1003.2,274.1,999.8,278.4,999.8z"/>
	<polygon class="st11" points="288.8,1060.1 336.2,1062.1 288.8,1063.3 	"/>
	<polygon class="st11" points="288.8,1079 401.5,1081 288.8,1082.2 	"/>
	<path class="st13" d="M1084.9,565.7l-44,522.9c0,0-4.6,31.7,19,31.8c38.8,0.1,192.9,0,192.9,0s-29.2-6.6-28.8-21.4
		c0.4-17.5,51.4-538.1,51.4-538.1L1084.9,565.7z"/>
	<path class="st14" d="M1265.4,1110.8c-7.6,0-154.9,0.5-192.6,0c-16.5-0.2-19.3-14.6-19.5-24c0-2.6,0.1-5.2,0.5-7.8l1.2-13.6
		l2.9-34.6l2.6-30.6l3.3-39.3l2.8-33.2l31.2-371.5l190.5-5c0,0-21.5,217.9-36.7,376.5c-1.7,17.7-3.3,34.6-4.8,50.4
		c-0.5,5.1-0.9,10-1.4,14.8c-1.4,15-2.7,28.8-3.8,41c-0.6,6.4-1.1,12.4-1.6,17.8c-1.9,21.4-3.1,35-3.1,37.7c0,1.4,0.1,2.8,0.4,4.2
		C1240.3,1110.3,1262.5,1110.8,1265.4,1110.8z"/>
	<polygon class="st15" points="622.2,281.2 729.3,711.4 744,770.3 793.9,970.7 1720.7,970.7 1536.9,281.2 	"/>
	<polygon class="st14" points="622.2,281.2 607.4,286.1 774.2,985.7 793.9,970.7 	"/>
	<polygon class="st13" points="774.2,985.7 1695.3,985.7 1720.7,970.7 793.9,970.7 	"/>
	<rect x="1097.6" y="1111" class="st15" width="199.4" height="9.5"/>
	<polygon class="st15" points="1675.8,843.7 1525.4,290.3 620.7,290.3 620.7,281.2 1536.9,281.2 1686.7,842.4 	"/>
	<polygon class="st13" points="1246.4,985.7 1245.3,992.9 1057.8,1030.8 1060.4,1000.2 1061.6,985.7 	"/>
	<path class="st16" d="M1265.4,1110.8c-7.6,0-154.9,0.5-192.6,0c-16.5-0.2-19.3-14.6-19.5-24l186.7-35.1c-1.9,21.4-3.1,35-3.1,37.7
		c0,1.4,0.1,2.8,0.4,4.2C1240.3,1110.3,1262.5,1110.8,1265.4,1110.8z"/>
	<polygon class="st16" points="1201,831.1 793.9,970.7 744,770.3 	"/>
	<polygon class="st17" points="622.2,281.2 1536.9,281.2 1685.3,835.4 755.5,835.4 	"/>
	<path class="st13" d="M1281.9,905.4c-2.6-13.6-15.8-24.6-29.4-24.6s-22.5,11-19.8,24.6s15.8,24.6,29.4,24.6
		S1284.5,919.1,1281.9,905.4z"/>
	<polygon class="st18" points="1642.1,811.3 785.7,811.3 688.8,425 681.3,395.4 675,370.1 660.1,310.8 1504.1,310.8 1520.5,370.1 
		1527.4,395.4 1535.6,425 	"/>
	<polygon class="st19" points="1520.5,370.1 675,370.1 660.1,310.8 1504.1,310.8 	"/>
	<path class="st18" d="M695,337.6c-1-4.1,1.5-7.4,5.6-7.4c4.4,0.2,8.1,3.2,9.3,7.4c1,4.1-1.5,7.4-5.6,7.4
		C699.9,344.8,696.2,341.8,695,337.6z"/>
	<path class="st18" d="M719.6,337.6c-1-4.1,1.5-7.4,5.6-7.4c4.4,0.2,8.1,3.2,9.3,7.4c1,4.1-1.5,7.4-5.6,7.4
		C724.5,344.8,720.8,341.8,719.6,337.6z"/>
	<path class="st18" d="M746.1,337.6c-1-4.1,1.5-7.4,5.6-7.4c4.4,0.2,8.1,3.2,9.3,7.4c1,4.1-1.5,7.4-5.6,7.4
		C751,344.8,747.3,341.8,746.1,337.6z"/>
	<path class="st17" d="M804.2,752.3c0-17.1,14.3-31,32-31s32,13.9,32,31s-14.3,31-32,31S804.2,769.4,804.2,752.3z"/>
	<path class="st18" d="M833.6,734.1L852,750c1.4,1.2,1.6,3.4,0.4,4.8c-0.1,0.2-0.3,0.3-0.4,0.4l-18,15.2c-1.5,1.3-3.8,1.2-5.1-0.3
		c-0.5-0.6-0.9-1.4-0.9-2.2l-0.3-31.1c0.1-2,1.7-3.6,3.7-3.5C832.2,733.2,833,733.5,833.6,734.1L833.6,734.1z"/>
	<path class="st19" d="M1556.9,755.9c0,3.2-2.6,5.8-5.8,5.8H898.7c-3.2-0.1-5.7-2.9-5.6-6.1c0.1-3,2.6-5.5,5.6-5.6h652.4
		C1554.2,750.1,1556.9,752.7,1556.9,755.9z"/>
	<path class="st17" d="M971.3,750.1v11.7h-72.6c-3.2-0.1-5.7-2.9-5.6-6.1c0.1-3,2.6-5.5,5.6-5.6L971.3,750.1L971.3,750.1z"/>
	<polygon class="st19" points="1476.3,702.1 909.2,702.1 844.9,470 840,452.2 835.8,437 826,401.4 1384.9,401.4 1395.7,437 
		1400.3,452.2 1405.7,470 	"/>
	<polygon class="st18" points="1389.6,530.2 1203.1,530.2 1182,453.9 1180.4,448 1179,443.1 1175.7,431.4 1359.5,431.4 
		1363.1,443.1 1364.6,448 1366.4,453.9 	"/>
	<polygon class="st20" points="1279.8,511.3 1215.2,511.3 1207.9,484.8 1207.3,482.8 1206.8,481.1 1205.7,477 1269.4,477 
		1270.6,481.1 1271.2,482.8 1271.8,484.8 	"/>
	<polygon class="st20" points="1362.1,511.3 1297.5,511.3 1290.2,484.8 1289.6,482.8 1289.1,481.1 1288,477 1351.7,477 1353,481.1 
		1353.5,482.8 1354.1,484.8 	"/>
	<path class="st19" d="M1315.8,445.9h-118.2c-0.9,0-1.7-0.8-1.7-1.7l0,0c0-0.9,0.8-1.7,1.7-1.7l0,0h118.2c0.9,0,1.7,0.8,1.7,1.7l0,0
		l0,0C1317.5,445.1,1316.7,445.9,1315.8,445.9z"/>
	<path class="st19" d="M1320.2,455H1202c-0.9,0-1.7-0.8-1.7-1.7l0,0c0-0.9,0.8-1.7,1.7-1.7l0,0h118.2c0.9,0,1.7,0.8,1.7,1.7l0,0
		C1321.9,454.2,1321.1,455,1320.2,455z"/>
	<path class="st19" d="M1340.6,468.2h-133c-1,0-1.9-0.8-1.9-1.9l0,0c0-1,0.9-1.9,1.9-1.9l0,0h133c1,0,1.9,0.9,1.9,1.9l0,0
		C1342.5,467.3,1341.7,468.2,1340.6,468.2L1340.6,468.2z"/>
	<polygon class="st18" points="1424.4,649.6 1237.9,649.6 1216.8,573.2 1215.2,567.4 1213.8,562.4 1210.6,550.7 1394.4,550.7 
		1397.9,562.4 1399.4,567.4 1401.2,573.2 	"/>
	<polygon class="st20" points="1314.7,630.6 1250,630.6 1242.7,604.2 1242.1,602.2 1241.7,600.4 1240.5,596.4 1304.3,596.4 
		1305.5,600.4 1306,602.2 1306.6,604.2 	"/>
	<polygon class="st20" points="1397,630.6 1332.3,630.6 1325,604.2 1324.4,602.2 1324,600.4 1322.8,596.4 1386.6,596.4 
		1387.8,600.4 1388.3,602.2 1388.9,604.2 	"/>
	<path class="st19" d="M1350.7,565.2h-118.2c-0.9,0-1.7-0.8-1.7-1.7l0,0c0-0.9,0.8-1.7,1.7-1.7l0,0h118.2c0.9,0,1.7,0.8,1.7,1.7l0,0
		l0,0C1352.3,564.5,1351.6,565.2,1350.7,565.2z"/>
	<path class="st19" d="M1355,574.3h-118.2c-0.9,0-1.7-0.8-1.7-1.7l0,0c0-0.9,0.8-1.7,1.7-1.7l0,0H1355c0.9,0,1.7,0.8,1.7,1.7l0,0
		C1356.7,573.6,1356,574.3,1355,574.3z"/>
	<path class="st19" d="M1358.2,583.4H1240c-0.9,0-1.7-0.8-1.7-1.7l0,0c0-0.9,0.8-1.7,1.7-1.7h118.2c0.9,0,1.7,0.8,1.7,1.7l0,0
		C1359.9,582.6,1359.2,583.4,1358.2,583.4L1358.2,583.4z"/>
	<path class="st8" d="M437.4,1055.7c0,0-10.3,5-13.7,13.1c-0.6,1.4-1,3-1.1,4.6c-0.6,10.8,0,35.2,0,35.2l-30.4-12.2l-30.3,12.2
		v-33.1c-0.1-6.3,2.6-12.3,7.4-16.3c2.3-2.1,5.3-3.3,8.4-3.4L437.4,1055.7z"/>
	<path class="st7" d="M437.4,1055.7c0,0-10.3,5-13.7,13.1l-61,0.5c1.8-7.1,7.7-12.5,15-13.6H437.4z"/>
	<path class="st4" d="M2285.8,1018.7h-364.5c-36.9,0-66.8-29.9-66.8-66.8l0,0v-26.5c0-34.6,28.1-62.7,62.7-62.7h368.6V1018.7
		L2285.8,1018.7z"/>
	<path class="st10" d="M2697.1,1018.7h-420.3c-34.4,0-62.3-27.9-62.3-62.3l0,0l0,0v-32.7c0-33.7,27.3-61,60.9-61h421.7
		L2697.1,1018.7L2697.1,1018.7L2697.1,1018.7z"/>
	<path class="st4" d="M2187.9,995.4h521.9c5.3,0,9.7,4.3,9.7,9.7v4c0,5.3-4.3,9.7-9.7,9.7h-521.9c-5.3,0-9.7-4.3-9.7-9.7v-4
		C2178.2,999.7,2182.5,995.4,2187.9,995.4z"/>
	<path class="st4" d="M2187.9,862.7h521.9c5.3,0,9.7,4.3,9.7,9.7v4c0,5.3-4.3,9.7-9.7,9.7h-521.9c-5.3,0-9.7-4.3-9.7-9.7v-4
		C2178.2,867.1,2182.5,862.7,2187.9,862.7z"/>
	<polygon class="st11" points="2697.1,940.7 2638.6,943.3 2697.1,944.9 	"/>
	<polygon class="st11" points="2697.1,904.8 2557.9,907.5 2697.1,909 	"/>
	<path class="st4" d="M2559.4,906.9c0,0,9.2,4.9,12.2,13.1c0.6,1.5,0.9,3,1,4.6c0.5,10.8,0,35.3,0,35.3l27.1-12.2l27.1,12.2v-33.1
		c0-6.3-2.3-12.3-6.6-16.3c-2-2-4.7-3.2-7.5-3.4h-53.3V906.9z"/>
	<path class="st21" d="M2559.4,906.9c0,0,9.2,4.9,12.2,13.1l54.4,0.5c0,0-2.1-11.6-13.4-13.6H2559.4z"/>
	<path class="st22" d="M1808.6,688.4c0,0-19.4,11-24.8,11s-26.7-4.1-32.7-1.1s-16.7,15.2-18.7,19.2c-3.6,7.2,14.6,4,23.2-2.1
		c1.2-0.9,2.8-1.2,4.3-0.9c4.5,1,13.7,2.7,18.2,1c6-2.2,37.7-4.7,37.7-4.7L1808.6,688.4z"/>
	<path class="st23" d="M1786.7,1086.3c0,0-2.1,33.7-8.6,34.1c-0.9,0.1-33,0.1-33,0.1l-41-0.2c0,0,0.3-9.9,12.3-12
		s32.1-10.5,39.3-26.4C1763.3,1065.2,1786.7,1086.3,1786.7,1086.3z"/>
	<path class="st7" d="M1956,538.4c0,0-20.1,142.7-53.3,155.5c-16.4,6.3-88.9,20.6-110.4,22c0,0-5.3-4.3-4-21.6
		c0,0,76-27.9,86.8-43.1c16.1-22.6-10-92.2,10.2-113.4S1939.4,507.5,1956,538.4z"/>
	<path class="st24" d="M1949.2,839.1c-5.9,9.8-12.4,19.2-19.6,28.1c-21.6,27.3-45.1,49.7-49.2,71c-0.9,4.6-2.2,9.2-3.8,13.6
		c-1.7,4.9-3.8,10-6.3,15.3c-9.2,19.9-22.8,42.2-36.5,62.5c-23.6,35-45.9,64.3-45.9,64.3l-40.8-1.7c1.6-4.1,19.4-52.5,43.2-111.6
		l29.9-74.2c1.3-3.3,2.7-6.6,4-9.8c3-7.5,6-15,8.9-22.2c22.3-55.5,40.1-99.7,40.1-99.7s89.3-33.8,98.5-11.9
		C1979.4,780.8,1973.2,798.5,1949.2,839.1z"/>
	<path class="st23" d="M1881.1,990.2c0,0,28.4,18.2,25.6,24.1c-0.4,0.8-16,28.9-16,28.9l-20.2,35.7c0,0-8.5-5-4.5-16.5
		s6.4-33.1-3.8-47.2C1851.3,1000.3,1881.1,990.2,1881.1,990.2z"/>
	<path class="st25" d="M1867.2,1022.2c0,0,17.7-15.6,20.8-27.1c0,0-73-87.5-88.9-107.1c-0.7-0.9-0.5-1.9,0.4-3
		c12-13.5,144.8-40.9,162.2-67.9c5.2-7.9,9-16.7,11.2-25.9c3.9-16.5,0.8-27.9,0.8-27.9l-132.7-3.8c0,0-110.5,68.8-123,115.7
		C1705.7,922.1,1867.2,1022.2,1867.2,1022.2z"/>
	<path class="st26" d="M1799.6,885.1c12-13.5,144.8-40.9,162.2-67.9c5.2-7.9,9-16.7,11.2-25.9v-16.8l-56.4-8.9
		c0,0-16,49.2-63.4,67.7C1808.9,850.5,1800.5,881.2,1799.6,885.1z"/>
	<path class="st22" d="M1877.5,529.4c26.8,6.9,71.3-17.9,71.3-17.9s-17.3-11.6-23.7-37.1c-0.3-1.3-0.6-2.6-0.9-4l-13.8-2.9
		l-20.5,18.4c0.6,7,1.6,13.9,3,20.7c0.4,2.3,1,4.8,1.6,7.4C1888,518,1882.2,523.2,1877.5,529.4z"/>
	<path class="st8" d="M1977.3,640.7c-3.8,51.7,1.2,130.4-3.2,144c-3.8,11.8-46.7,4.8-63.8,0.8c-6.3-1.5-14-3.5-21.9-6
		c-22.1-6.8-46.2-16.6-48.8-23.9c-0.1-0.3-0.2-0.5-0.2-0.8c-0.2-1-0.2-2,0-3c0.9-3.7,4.2-7.7,4.6-16.9c0.4-10.2,0.4-22.3,0.8-35.2
		c0-1.5,0-3,0.2-4.5v-1.4c0.4-14.5,1.1-29.6,2-44.7c0.6-9.5,1.2-18.8,1.9-27.8c1.9-23.2,4.5-43.8,8-56.8c5.6-21.2,18-35.1,29.3-45.2
		l8.2-7c9.1,2,19.9,0.7,29.6-4c10.5-5,14.2-8.6,16-7.2C1964.3,519.9,1981.8,577.4,1977.3,640.7z"/>
	<path class="st7" d="M1888.4,779.5c-22.1-6.8-46.2-16.6-48.8-23.9c-0.1-0.3-0.2-0.5-0.2-0.8v-3c0.9-3.7,4.2-7.7,4.6-16.9
		c0.4-10.2,0.4-22.3,0.8-35.2c0-1.5,0-3,0.2-4.5v-1.4l89.4-113.9C1934.3,580,1994.5,705.1,1888.4,779.5z"/>
	<path class="st27" d="M1890,485.8c0.6,7,1.6,13.9,3,20.7c20-6.5,29.1-24.5,32.1-32.2c-0.3-1.3-0.6-2.6-0.9-4l-13.8-2.9L1890,485.8z
		"/>
	<path class="st22" d="M1887.3,497.4c0,0,43.7-7.3,38.7-34.4s-2.7-46.3-30.7-42.8s-31.6,14.8-32.2,24.3
		C1862.6,453.9,1875.8,498.6,1887.3,497.4z"/>
	
		<rect x="1695.2" y="626.7" transform="matrix(0.9511 -0.309 0.309 0.9511 -126.9718 557.6804)" class="st28" width="4.1" height="106"/>
	
		<rect x="1711.4" y="723" transform="matrix(0.9998 -2.129084e-02 2.129084e-02 0.9998 -15.0637 37.7877)" class="st28" width="111.3" height="6.7"/>
	<path class="st22" d="M1820.6,733.6c0,0-35.7,9.4-49.2,8.4s-24.5-7.4-26.2-10.7s-5.2-9.2,3.9-8.1s21.6,3,22,1.3s-7.4-1.6-7.4-1.6
		s-2.4-3.4,0.6-3.6s11.7-2.5,14.9-0.9s6.2,7.6,8.6,7.3s29.9-12.4,29.9-12.4L1820.6,733.6z"/>
	<path class="st8" d="M1947.1,544.2c0,0-4.2,144.1-35.9,160.5c-15.6,8.1-86.1,30.3-107.3,34.1c0,0-5.7-3.7-6.3-21
		c0,0,72.4-36.1,81.5-52.4c13.5-24.2-20.1-90.6-2.4-113.9S1927.2,515.4,1947.1,544.2z"/>
	<path class="st29" d="M1925.2,474.3c0,0,0.5-9.3-5.2-14.6c0,0,2-9.3-1.7-10.9c-3.7-1.5-4.5,6.3-6.2,5.1s-9.2-7.1-12.5-15.7
		c-3.2-8.6-32.8,1.8-36.2,3.4s-14.5-4.1-16.7-8.8c0,0,6.2-4.9,8.9-8.6s22.2-28.6,49.2-21.5s30.8,20,29.2,31.1
		S1936.2,470.6,1925.2,474.3z"/>
	<path class="st30" d="M2218.6,593.9c0,0,13.9,20.5,21.8,63.6c6.9,37.8,13,51.7,23,59.5s65.7,30.6,65.7,30.6l-4.2,9.8
		c0,0-81.6-11.1-90.8-24.8s-44.1-94.3-41.4-112.8S2218.6,593.9,2218.6,593.9z"/>
	<path class="st3" d="M2418.6,1044.4c-0.7,8,10.4,9.9,23.2,10.5s9,3.3,26.6,6.4s24.6-1.6,25.9-4c1.1-2.1-7-5.4-15.8-9.1l-3.3-1.4
		c-9.8-4.3-15.3-13.1-23-21.3c-7.3-7.7-14.1-32.5-14.1-32.5l-23.9-5.1c0,0,6.7,22.3,9,31.8c1.4,5.6-0.6,11.8-2.4,16.6
		C2419.7,1038.9,2418.9,1041.6,2418.6,1044.4z"/>
	<path class="st31" d="M2441.8,1054.9c12.8,0.6,9,3.3,26.6,6.4s24.6-1.6,25.9-4c1.1-2.1-7-5.4-15.8-9.1l-0.1,0.2
		c-8.7,2.5-17.9,2.6-26.6,0.3c-11.6-3.2-22.9-10.1-30.9-12.4c-1.1,2.6-1.8,5.2-2.2,8C2417.9,1052.3,2428.9,1054.2,2441.8,1054.9z"/>
	<path class="st23" d="M2180.5,760.8c0,0,158.9-12,188.8,6.9s77.9,238.8,77.9,238.8s-3,2.4-9.6,3.1c-6.1,0.7-19.7-3-19.7-3
		s-69-98.4-73.8-123.2c-4.8-24.8-3.7-46.9-14.7-47.5s-148.9,16.8-169.8-20s-3.6-73.1-3.6-73.1L2180.5,760.8z"/>
	<path class="st3" d="M2357.8,1069.9c-0.7,8,10.4,9.9,23.2,10.5s9,3.3,26.6,6.4s24.6-1.6,25.9-4c1.1-2.1-7-5.4-15.8-9.1
		c-1.1-0.5-2.2-0.9-3.3-1.4c-9.8-4.3-15.3-13.1-23-21.3c-7.2-7.7-14.1-32.5-14.1-32.5l-23.9-5.2c0,0,6.7,22.3,9,31.8
		c1.4,5.6-0.6,11.8-2.4,16.6C2358.9,1064.4,2358.1,1067.1,2357.8,1069.9z"/>
	<path class="st31" d="M2381,1080.4c12.9,0.6,9,3.3,26.6,6.4s24.6-1.6,25.9-4c1.1-2.1-7-5.4-15.8-9.1l-0.1,0.2
		c-8.7,2.5-17.9,2.6-26.6,0.3c-11.6-3.2-22.9-10.1-30.9-12.4c-1.1,2.6-1.8,5.2-2.2,8C2357.1,1077.8,2368.1,1079.8,2381,1080.4z"/>
	<path class="st32" d="M2149.4,770.6c0,0,141.2,6.7,170.3,26.7s68.5,241.6,68.5,241.6s-3.1,2.3-9.7,2.7c-6.2,0.4-19.6-3.7-19.6-3.7
		s-65.1-101-69-126s-1.8-47-12.9-48s-149.5,11-168.9-26.6C2088.8,799.8,2149.4,770.6,2149.4,770.6z"/>
	<path class="st4" d="M2199.6,460.1c-6.3-4.1-14-5.1-19.5-5.1c1.3-0.9,2.7-1.5,4.3-1.7c-3.4-0.7-11.1,2.1-11.1,2.1
		c-45.9-21.3-57.9,47.5-58,63.7c-0.1,16.2-1.2,34.7-25.7,47.6c-48.1,25.3-12.4,77.5-12.4,77.5c0.4,0.2,32.1,42.3,32.1,42.3
		c-0.3-13.1,51.3-82.5,84-101c8.4-10.7,12.4-30.4,12.7-31.9c-2.4,15.6-5.6,24.3-8.4,29.1C2225.8,560,2216.2,471,2199.6,460.1z"/>
	<path class="st3" d="M2143.4,570.3c8.7-0.7,17.5-0.7,26.3,0c7.8,0.8,15.5,2.8,22.8,5.7c12.4,5.2,11.1,27.2-15,23.2
		S2141.6,576.8,2143.4,570.3z"/>
	<path class="st3" d="M2191.4,586.4c0.1,0.1,3.7,19-13.4,18.2c-11.2-0.5-35.4-14.1-33.3-23.7c1-4.6,9.5-16.4,11.2-43.5l2,0.5
		l34.3,9.2c0,0-1.5,10.9-2.2,21.2C2189.5,577.1,2189.5,585.3,2191.4,586.4z"/>
	<path class="st30" d="M2192.4,547.2c0,0-1.5,10.9-2.2,21.2c-19.4-1.8-28.6-20.3-32.1-30.4L2192.4,547.2z"/>
	<path class="st4" d="M2154.7,533.9c0,0-9.1-16.8-10.7-30.8c-1.1-10,6.4-46.1,42.7-38.4c7.3,1.5,14.2,4.7,20.1,9.2
		c7.6,5.9,18.3,18.3,3.4,49.3l-4.1,10.5L2154.7,533.9z"/>
	<path class="st3" d="M2198.2,557.4c0,0-46.1-2.3-44.3-31c1.8-28.7-2.8-48.3,26.7-48.1c29.5,0.3,34.5,11.6,36.2,21.3
		S2210.3,557.2,2198.2,557.4z"/>
	<path class="st4" d="M2201.7,479c0,0-14.9,32.8-34.6,36.5c-19.7,3.7-27.8-2.1-27.8-2.1c10.1-7.8,17.2-18.8,20.1-31.2
		C2159.5,482.2,2193.3,462.3,2201.7,479z"/>
	<path class="st4" d="M2198.4,481.5c0,0,8.9,8.1,10.7,15.6s1.8,22.6,6.3,22.4c0,0,11-22.3,1.2-35.9
		C2206.2,469.1,2198.4,481.5,2198.4,481.5z"/>
	<path class="st32" d="M2244.4,763.2c-3.7,4.5-15.4,5.8-27.8,7.9c-9.8,1.6-20.1,3.7-27.4,8c-16.6,9.8-71,42.8-86.9,41.3
		c-6.2-0.6-5-12.4-1.3-28c5.9-24.7,18.2-59,18.2-73.9c0-8.1,2.7-27.4,6.3-49.4c0.3-1.8,0.6-3.6,0.9-5.4
		c7.1-42.8,17.1-93.3,17.1-93.3s11,24.1,32.6,24.1s16.5-18.4,16.5-18.4s19.6,2.3,24.3,7.3s16.4,26.6,18.8,32.5
		c0,0,0.5,7.5-18.1,11.1c0,0,4.5,20.4,5.1,33.9c0.4,10-6.8,41.4-8.9,60.9c-0.7,6.9-0.8,12.3,0.3,14.8c1.4,3.2,6.1,6.3,11.4,9.4
		C2235.7,752,2248.8,757.9,2244.4,763.2z"/>
	<path class="st23" d="M2225.2,745.9c11.9,20.3-32.3,26.4-39.6,30.7c-16.6,9.8-67.5,45.2-83.4,43.7c-6.2-0.6-5-12.4-1.3-28
		c5.9-24.7,18.2-59,18.2-73.9c0-8.1,2.7-27.4,6.3-49.4l19.2-18.4c0,0,20.5,53.1,40.1,61.8c9.3,4,19,7.2,28.9,9.4
		c-0.7,6.9-0.8,12.3,0.3,14.8C2215.3,739.7,2220,742.8,2225.2,745.9z"/>
	<rect x="2249.3" y="760.9" class="st6" width="44.5" height="5.3"/>
	<path class="st6" d="M2284.4,765.5c0.4-1.7,40.9-65.2,40.9-65.2h90l-45.1,63.5L2284.4,765.5z"/>
	<path class="st4" d="M2288.1,766.2c0.4-1.7,41-66,41-66h86.1l-42.9,66H2288.1z"/>
	<path class="st6" d="M2364,733.4c-1,2.6-3.4,4.5-6.3,4.7c-2.6,0-3.9-2.1-3.1-4.7c1-2.7,3.4-4.5,6.3-4.7
		C2363.5,728.8,2364.8,730.9,2364,733.4z"/>
	<path class="st3" d="M2262.5,738.4c-2.5-1.1-22,2.5-27.6,3.5c-17.6-3.5-75.7-15-78.5-18.7c-3.3-4.3-10.6-134.8-18.9-137
		c0,0-16.4-10-32.2,8.9s11.3,153.8,34.7,160.8c26.1,7.7,101.4-1.2,101.4-1.2l0,0c6.2,2.1,17,3.3,22.8,5.2c7.6,2.5,14.3,0.4,16-2.5
		S2265.5,739.6,2262.5,738.4z"/>
	<path class="st32" d="M2143.4,570.3c0,0-33.7,3-43.4,14.1s-12.6,41.1-12.6,41.1s29.6,23.9,65.4,14.6L2143.4,570.3z"/>
	<path class="st33" d="M14.3,1120h2859.8c1.8,0,3.3,1.5,3.3,3.3v1.1c0,1.8-1.5,3.3-3.3,3.3H14.3c-1.8,0-3.3-1.5-3.3-3.3v-1.1
		C11.1,1121.4,12.5,1120,14.3,1120z"/>
	<polygon class="st34" points="1476.3,702.1 909.2,702.1 844.9,470 840,452.2 835.8,437 826,401.4 1384.9,401.4 1395.7,437 
		1400.3,452.2 1405.7,470 	"/>
	<path class="st3" d="M1176.7,512.1c0,0,3.1-12.5,8.4-13.1c5.2-0.7,13.1-4,14.8,0.2s-12.6,25.8-18.2,20.5S1176.7,512.1,1176.7,512.1
		z"/>
	<path class="st23" d="M1120.6,928.2c0,0,5.9,6.7,8.1,14.4c0.5,1.2-0.1,2.5-1.3,3l0,0c-0.3,0.1-0.7,0.2-1,0.2h-25.7
		c-2.6-0.1-4.8-2.1-5-4.8c-0.1-4.7,0.6-11.8,4.6-16.1C1106.7,918,1120.6,928.2,1120.6,928.2z"/>
	<path class="st23" d="M1159.5,921.4c0,0,7.9,23.8,12.6,24.2h52.8c-2-4.7-6.3-8-11.3-8.7c-8.9-1.5-24.7-7.4-32.9-18.7
		C1172.1,906.4,1159.5,921.4,1159.5,921.4z"/>
	<path class="st35" d="M1107.7,774.1c4.6,13.3,7.5,23.7,7.5,28.7c-0.1,22.2,43.7,122.3,43.7,122.3c14.1,6,30.3-0.1,30.3-0.1
		c-4.8-13.9-31.5-138-45.6-213.8c-6-31.8-10-54-10-54l-77.4-8.7C1056.2,648.5,1091.8,728.1,1107.7,774.1z"/>
	<path class="st35" d="M1056.2,648.5c0,0,35.6,79.7,51.5,125.7l35.8-62.9c-6-31.8-10-54-10-54L1056.2,648.5z"/>
	<path class="st35" d="M1097.6,665.4c0,0,21.3,221.2,26.2,264c0,0-13.2,4-29.3-2.2c0,0-29.4-102.8-32.8-133.8s-36.6-126.7-31-135.6
		C1036.3,649,1097.6,665.4,1097.6,665.4z"/>
	<path class="st3" d="M1043.1,476.8c0,0,8.2,19.7,8.5,25.5s-18.4,9.1-27.8,4.2c-9.5-4.9-8-9.2-8-9.2s-4.3-20-3.6-21.6
		C1012.9,474.2,1043.1,476.8,1043.1,476.8z"/>
	<path class="st36" d="M1174.5,509.8c0,0-33.4,41.6-34.8,46.9c-19.2-22.4-48.7-50.4-50.1-51.5c-3.8-3.1-10.6-4.9-17.4-6.1
		c-7-1.1-14.1-1.7-21.2-1.8c-0.2,0-0.3,0-0.5,0c0.9,3.3-2.7,9.5-10.6,10c-9.4,0.6-22.7-4.5-24.1-10c-0.1-0.3-22,1.1-18.2,42.1
		c0,0.6,0.1,1.2,0.2,1.8c1.5,13.8,5.8,31.8,14.7,55.5c3.2,8.5,13.6,71.7,16.7,71.8c2.8,1.3,5.7,2.3,8.7,3.1
		c3.1,0.9,7.2,1.9,12.2,2.8c10.7,2,25.7,3.8,45.8,3.8c36.9,0,46.2-10.5,46.2-10.5c2,0-20.5-50.8-32.3-94.5
		c12.2,7.1,25.2,13.9,26.6,14.8c6.2,3.8,10.5,5.3,13.5,5.5h0.4c1.4,0.1,2.9-0.3,4-1.2c2.8-1.5,6.6-4.7,10.4-11.8
		c5.1-9.3,11.1-28.2,16.3-40.8c2.9-7,5.1-14.6,8-20.9C1189.1,518.9,1181.9,511.2,1174.5,509.8z"/>
	<path class="st37" d="M1054.6,612.2c7.4,30.6-6.7,50.1-16.8,59.4c-3-0.8-5.9-1.8-8.7-3.1c-3.1-0.1-13.6-63.3-16.7-71.8
		c-8.8-23.7-13.1-41.7-14.7-55.5c0.8-0.9,1.3-1.4,1.3-1.4S1043.7,566.9,1054.6,612.2z"/>
	<path class="st38" d="M1044,479.1c0,0-4.7,10.7-12.7,10.8c-8,0.1-19-10.6-19-10.6L1044,479.1z"/>
	<path class="st3" d="M1044.6,478.5c-1.7,1.7-5.7,3.9-9.2,5.4c-2.9,1.1-6.1,1.2-9,0.2c-4.8-1.5-12.2-3.9-14.1-4.9
		c-4.7-2.4-5.7-7.3-7.8-14.2c-2.4-8.1-4.9-14.5-5.3-19.1c-0.4-5.6,2.3-8.8,12-9.6c17.8-1.6,26.6,3,28.5,9.1c0.5,1.6,1,3.2,1.5,4.7
		C1047,469.1,1047.4,475.8,1044.6,478.5z"/>
	<path class="st35" d="M1040.4,447.6c0,0-4.2-4.4-9.3-2.7c-5.1,1.7-4.4,6.5-14.2,5.7c-9.8-0.8-13.3-5.3-14.4-3s1.5,15.7,1.5,15.7
		s-31-43.9,8-43.9c0,0,39.6-2.4,32.2,42.2L1040.4,447.6z"/>
	<path class="st3" d="M1122.5,489.2"/>
	<path class="st39" d="M1126.7,426.4c0.1-0.7,0.2-1.2,0.2-1.2C1126.8,425.6,1126.7,426,1126.7,426.4z"/>
	<polygon class="st35" points="1188.7,560.5 1182.4,559.6 1200.3,457.9 1200.3,457.9 	"/>
	<path class="st3" d="M1179.8,508.4c0,0,5.9,5.9,6.9,2.6c1-3.3,8.5-6.9,9-8.4s-8.6-2.2-10-2.2
		C1184.3,500.4,1178.9,506.3,1179.8,508.4z"/>
	<path class="st32" d="M1029.2,506.1c0.5,0.1,7.4-1.7,16.8-0.6c0,0,0.7,8.5-1.7,9.2s-7.5,0.1-8.6,0S1029.2,506.1,1029.2,506.1z"/>
	<path class="st32" d="M1035.7,514.7c0,0,28.4,119.4,36,127s13.5,10,13.5,10s6-7.2,5.9-10.7s-46.7-126.4-46.7-126.4L1035.7,514.7z"
		/>
	<path class="st3" d="M1075.5,631.3c0,0,19.3,6.3,25.2,6.5s12.7-9.7,10.4-12.6c-0.7-0.8-9.1,3-11.5,1.7c-3.7-2-8.3-0.5-11.3-0.1
		s-14.2-6-14.2-6L1075.5,631.3z"/>
	<path class="st36" d="M1082.3,620.7c-31.4-22.2-53.5-33.4-60.4-36.7c1.9-16.4,1.1-42.5-6.1-86.6c0,0-30.5,3.4-33.8,14
		c-4.7,15.4,6.4,58.1,15.5,92.3l0.3,0.2c0.8,1.3,1.8,2.4,2.9,3.4c13,10.4,81.7,30.5,81.7,30.5
		C1087.5,630.5,1082.3,620.7,1082.3,620.7z"/>
	<polygon class="st10" points="1096.3,623.8 1044.7,608.4 1043.1,615.8 1098.3,631.3 	"/>
	<polygon class="st11" points="1122.4,603.9 1096.3,623.8 1098.3,631.3 1128.4,610.9 	"/>
	<polygon class="st35" points="1098.9,633.5 1040.1,615.6 1040.3,614.1 1098.3,631.3 	"/>
	<polygon class="st35" points="1098.9,633.5 1132.2,610.4 1130.9,609 1098.3,631.3 	"/>
	<path class="st32" d="M1029.2,506.1c0,0-13.5-14-14.6-13.1s-2.5,4-1.8,4.9c0.6,0.9,18.1,10.7,18.1,10.7L1029.2,506.1z"/>
	<path class="st32" d="M1046,505.5c0,0,2.7-14,3.1-13.4s4.8,4.4,5,5.4s-5.4,8.8-8,9.4C1043.6,507.5,1046,505.5,1046,505.5z"/>
	<circle class="st40" cx="2172.8" cy="38.5" r="3.3"/>
	<circle class="st40" cx="2172.8" cy="64" r="3.3"/>
	<circle class="st40" cx="2203.1" cy="38.5" r="3.3"/>
	<circle class="st40" cx="2203.1" cy="64" r="3.3"/>
	<circle class="st40" cx="2233.3" cy="38.5" r="3.3"/>
	<circle class="st40" cx="2233.3" cy="64" r="3.3"/>
	<circle class="st40" cx="2263.5" cy="38.5" r="3.3"/>
	<circle class="st40" cx="2263.5" cy="64" r="3.3"/>
	<circle class="st40" cx="2110.1" cy="38.5" r="3.3"/>
	<circle class="st40" cx="2110.1" cy="64" r="3.3"/>
	<circle class="st40" cx="2142.4" cy="38.5" r="3.3"/>
	<circle class="st40" cx="2142.4" cy="64" r="3.3"/>
	<circle class="st40" cx="2172.8" cy="86.7" r="3.3"/>
	<circle class="st40" cx="2172.8" cy="112.1" r="3.3"/>
	<circle class="st40" cx="2203.1" cy="86.7" r="3.3"/>
	<circle class="st40" cx="2203.1" cy="112.1" r="3.3"/>
	<circle class="st40" cx="2233.3" cy="86.7" r="3.3"/>
	<circle class="st40" cx="2233.3" cy="112.1" r="3.3"/>
	<circle class="st40" cx="2263.5" cy="86.7" r="3.3"/>
	<circle class="st40" cx="2263.5" cy="112.1" r="3.3"/>
	<circle class="st40" cx="2110.1" cy="86.7" r="3.3"/>
	<circle class="st40" cx="2110.1" cy="112.1" r="3.3"/>
	<circle class="st40" cx="2142.4" cy="86.7" r="3.3"/>
	<circle class="st40" cx="2142.4" cy="112.1" r="3.3"/>
	<circle class="st40" cx="2830.3" cy="634.8" r="3.3"/>
	<circle class="st40" cx="2830.3" cy="660.3" r="3.3"/>
	<circle class="st40" cx="2767.6" cy="634.8" r="3.3"/>
	<circle class="st40" cx="2767.6" cy="660.3" r="3.3"/>
	<circle class="st40" cx="2799.9" cy="634.8" r="3.3"/>
	<circle class="st40" cx="2799.9" cy="660.3" r="3.3"/>
	<circle class="st40" cx="2830.3" cy="683" r="3.3"/>
	<circle class="st40" cx="2830.3" cy="708.4" r="3.3"/>
	<circle class="st40" cx="2767.6" cy="683" r="3.3"/>
	<circle class="st40" cx="2767.6" cy="708.4" r="3.3"/>
	<circle class="st40" cx="2799.9" cy="683" r="3.3"/>
	<circle class="st40" cx="2799.9" cy="708.4" r="3.3"/>
	<circle class="st40" cx="2830.9" cy="731.9" r="3.3"/>
	<circle class="st40" cx="2830.9" cy="757.4" r="3.3"/>
	<circle class="st40" cx="2768.2" cy="731.9" r="3.3"/>
	<circle class="st40" cx="2768.2" cy="757.4" r="3.3"/>
	<circle class="st40" cx="2800.4" cy="731.9" r="3.3"/>
	<circle class="st40" cx="2800.4" cy="757.4" r="3.3"/>
	<circle class="st40" cx="2830.9" cy="780" r="3.3"/>
	<circle class="st40" cx="2830.9" cy="805.5" r="3.3"/>
	<circle class="st40" cx="2768.2" cy="780" r="3.3"/>
	<circle class="st40" cx="2768.2" cy="805.5" r="3.3"/>
	<circle class="st40" cx="2800.4" cy="780" r="3.3"/>
	<circle class="st40" cx="2800.4" cy="805.5" r="3.3"/>
	<path class="st40" d="M77.2,412.1c-2.6,0-4.5,3-2.4,5.8c2.7,2.1,5.8,0.2,5.8-2.4C80.5,413.5,79,412.1,77.2,412.1"/>
	<circle class="st40" cx="77.2" cy="440.8" r="3.3"/>
	<path class="st40" d="M107.4,412.1c-2.6,0-4.5,3-2.4,5.8c2.7,2.1,5.8,0.2,5.8-2.4C110.7,413.5,109.2,412.1,107.4,412.1"/>
	<circle class="st40" cx="107.4" cy="440.8" r="3.3"/>
	<path class="st40" d="M137.6,412.1c-2.6,0-4.5,3-2.4,5.8c2.7,2.1,5.8,0.2,5.8-2.4C141,413.5,139.5,412.1,137.6,412.1"/>
	<circle class="st40" cx="137.6" cy="440.8" r="3.3"/>
	<circle class="st40" cx="1815.9" cy="335.2" r="3.3"/>
	<circle class="st40" cx="1815.9" cy="360.7" r="3.3"/>
	<circle class="st40" cx="1846.1" cy="335.2" r="3.3"/>
	<circle class="st40" cx="1846.1" cy="360.7" r="3.3"/>
	<circle class="st40" cx="1753.2" cy="335.2" r="3.3"/>
	<circle class="st40" cx="1753.2" cy="360.7" r="3.3"/>
	<circle class="st40" cx="1785.4" cy="335.2" r="3.3"/>
	<circle class="st40" cx="1785.4" cy="360.7" r="3.3"/>
	<circle class="st0" cx="1743" cy="203.8" r="26.6"/>
	<circle class="st41" cx="1743" cy="202.4" r="17.4"/>
	<circle class="st0" cx="61.7" cy="843.7" r="29.5"/>
	<circle class="st41" cx="61.7" cy="843.7" r="17.4"/>
	<circle class="st0" cx="1189.1" cy="64" r="7.5"/>
	<circle class="st41" cx="1742.1" cy="203.8" r="17.4"/>
	<circle class="st0" cx="1732.9" cy="196.7" r="5.7"/>
	<circle class="st0" cx="1557.7" cy="90.1" r="11"/>
	<circle class="st0" cx="1948.7" cy="172.8" r="8.1"/>
	<circle class="st42" cx="2834.2" cy="71.5" r="23.7"/>
	<circle class="st40" cx="1856.5" cy="1179.6" r="3.3"/>
	<circle class="st40" cx="1856.5" cy="1205.1" r="3.3"/>
	<circle class="st40" cx="1886.7" cy="1179.6" r="3.3"/>
	<circle class="st40" cx="1886.7" cy="1205.1" r="3.3"/>
	<circle class="st40" cx="1917" cy="1179.6" r="3.3"/>
	<circle class="st40" cx="1917" cy="1205.1" r="3.3"/>
	<circle class="st40" cx="1947.2" cy="1179.6" r="3.3"/>
	<circle class="st40" cx="1947.2" cy="1205.1" r="3.3"/>
	<circle class="st40" cx="1793.8" cy="1179.6" r="3.3"/>
	<circle class="st40" cx="1793.8" cy="1205.1" r="3.3"/>
	<circle class="st40" cx="1826.1" cy="1179.6" r="3.3"/>
	<circle class="st40" cx="1826.1" cy="1205.1" r="3.3"/>
	<circle class="st40" cx="1856.5" cy="1227.8" r="3.3"/>
	<circle class="st40" cx="1856.5" cy="1253.2" r="3.3"/>
	<circle class="st40" cx="1886.7" cy="1227.8" r="3.3"/>
	<circle class="st40" cx="1886.7" cy="1253.2" r="3.3"/>
	<circle class="st40" cx="1917" cy="1227.8" r="3.3"/>
	<circle class="st40" cx="1917" cy="1253.2" r="3.3"/>
	<circle class="st40" cx="1947.2" cy="1227.8" r="3.3"/>
	<circle class="st40" cx="1947.2" cy="1253.2" r="3.3"/>
	<circle class="st40" cx="1793.8" cy="1227.8" r="3.3"/>
	<circle class="st40" cx="1793.8" cy="1253.2" r="3.3"/>
	<circle class="st40" cx="1826.1" cy="1227.8" r="3.3"/>
	<circle class="st40" cx="1826.1" cy="1253.2" r="3.3"/>
	<circle class="st42" cx="224.4" cy="219.7" r="29.5"/>
	<circle class="st40" cx="274" cy="1246.7" r="3.3"/>
	<circle class="st40" cx="304.3" cy="1246.7" r="3.3"/>
	<circle class="st40" cx="334.5" cy="1246.7" r="3.3"/>
	<circle class="st40" cx="274" cy="1273.7" r="3.3"/>
	<circle class="st40" cx="304.3" cy="1273.7" r="3.3"/>
	<circle class="st40" cx="334.5" cy="1273.7" r="3.3"/>
	<circle class="st0" cx="601.9" cy="1215.2" r="9.2"/>
	<circle class="st42" cx="1742.3" cy="1252.9" r="16.7"/>
	<circle class="st0" cx="2877.8" cy="972.2" r="17.2"/>
	<circle class="st0" cx="2825.8" cy="420.4" r="8.4"/>
	<g>
		<path class="st43" d="M2392.8,520.6v-7.7c-3.9-1.4-6.4-1.8-7.7-4.8l0,0c-1.3-3,0.2-5.1,2-8.8l-5.4-5.4c-3.7,1.8-5.8,3.3-8.8,2l0,0
			c-3-1.3-3.4-3.8-4.8-7.7h-7.7c-1.4,3.9-1.8,6.4-4.8,7.7l0,0c-3,1.3-5.1-0.2-8.8-2l-5.4,5.4c1.8,3.7,3.3,5.8,2,8.8
			s-3.8,3.4-7.7,4.8v7.7c3.9,1.4,6.4,1.8,7.7,4.8c1.3,3.1-0.3,5.2-2,8.8l5.4,5.4c3.7-1.8,5.8-3.3,8.8-2l0,0c3,1.3,3.4,3.8,4.8,7.7
			h7.7c1.4-3.9,1.8-6.4,4.8-7.7l0,0c3-1.2,5,0.2,8.8,2l5.4-5.4c-1.8-3.7-3.3-5.8-2-8.8C2386.4,522.3,2388.9,521.9,2392.8,520.6z
			 M2364.2,526.2c-5.3,0-9.5-4.3-9.5-9.5c0-5.3,4.3-9.5,9.5-9.5c5.3,0,9.5,4.3,9.5,9.5C2373.8,522,2369.5,526.2,2364.2,526.2z"/>
	</g>
	<g>
		<path class="st44" d="M1670.3,419.3c7.2-7.3,7-19-0.2-26.2c-7.3-7.2-19-7-26.2,0.2s-7,19,0.2,26.2c7.2,7.1,18.7,7.1,25.9,0
			l20.5,20.5 M1679.6,425.9l13.3,13.3l-3.1,3.1l-13.3-13.3"/>
	</g>
	<g>
		<g>
			<path class="st43" d="M356.4,512.6c4.2,0,7.6-3.4,7.6-7.6v-23c0-4.2-3.4-7.6-7.6-7.6h-42.1c-4.2,0-7.6,3.4-7.6,7.6v23
				c0,4.2,3.4,7.6,7.6,7.6h5.5v7.9c0,1,0.6,1.8,1.5,2.2c0.3,0.1,0.6,0.2,0.9,0.2c0.6,0,1.2-0.2,1.7-0.7l9.6-9.6L356.4,512.6
				L356.4,512.6z"/>
			<path class="st43" d="M371.7,494.3h-3.8V505c0,6.3-5.1,11.4-11.4,11.4h-21.3l-4.5,4.5c0.5,3.1,3.3,5.5,6.5,5.5h18.5l7.8,7.8
				c0.5,0.5,1.1,0.7,1.7,0.7c0.3,0,0.6-0.1,0.9-0.2c0.9-0.4,1.5-1.2,1.5-2.2v-6.1h4.1c3.7,0,6.6-3,6.6-6.6V501
				C378.3,497.3,375.3,494.3,371.7,494.3z"/>
		</g>
	</g>
</g>
<g>
	<line class="st45" x1="87.4" y1="101.3" x2="93.5" y2="105.5"/>
	<line class="st45" x1="56.7" y1="80" x2="97.1" y2="108.1"/>
	<line class="st45" x1="61.2" y1="114.5" x2="89.3" y2="74"/>
	<line class="st46" x1="2627.1" y1="295.1" x2="2629.3" y2="300.6"/>
	<line class="st46" x1="2616" y1="267.6" x2="2630.7" y2="303.9"/>
	<line class="st46" x1="2603.3" y1="292.3" x2="2640.9" y2="278.1"/>
	<line class="st47" x1="992.6" y1="1274" x2="993.3" y2="1281.4"/>
	<line class="st47" x1="989.2" y1="1237.3" x2="993.7" y2="1285.7"/>
	<line class="st47" x1="966" y1="1262.7" x2="1014.4" y2="1258.2"/>
</g>
</svg>
